/* XPM */
static char *result[] = {
/* columns rows colors chars-per-pixel */
"70 70 254 2 ",
"   c #241F1B",
".  c #2D231D",
"X  c #23201E",
"o  c #31251D",
"O  c #36281E",
"+  c #2E2B27",
"@  c #2A2521",
"#  c #332A24",
"$  c #3A2E25",
"%  c #342B26",
"&  c #35312D",
"*  c #3C332B",
"=  c #3C3226",
"-  c #3A3430",
";  c #473C1D",
":  c #42342B",
">  c #483628",
",  c #463B33",
"<  c #513D2B",
"1  c #7E1A14",
"2  c #554726",
"3  c #4C4438",
"4  c #574637",
"5  c #4E4124",
"6  c #64552B",
"7  c #624939",
"8  c #665437",
"9  c #725C39",
"0  c #79663B",
"q  c #746830",
"w  c #5A4F45",
"e  c #685647",
"r  c #6C5B4E",
"t  c #776744",
"y  c #78675A",
"u  c #6E6258",
"i  c #7D6D61",
"p  c #861815",
"a  c #9B1914",
"s  c #AE1913",
"d  c #B32519",
"f  c #AD291A",
"g  c #992F23",
"h  c #B23A23",
"j  c #8E251C",
"k  c #C91B12",
"l  c #DA1D13",
"z  c #C5190F",
"x  c #E61D15",
"c  c #CA231A",
"v  c #D6281A",
"b  c #E92218",
"n  c #F3231A",
"m  c #FC241A",
"M  c #FB261A",
"N  c #F7342A",
"B  c #D33729",
"V  c #964E2C",
"C  c #B0522B",
"Z  c #8A672B",
"A  c #956B2C",
"S  c #9A6B36",
"D  c #877438",
"F  c #9C7639",
"G  c #886B36",
"H  c #A4652F",
"J  c #A96933",
"K  c #B36F33",
"L  c #BA7436",
"P  c #AC7138",
"I  c #D2492B",
"U  c #C67B39",
"Y  c #CE6B35",
"T  c #F84A35",
"R  c #897746",
"E  c #90784D",
"W  c #B07251",
"Q  c #85776C",
"!  c #806B60",
"~  c #B76D58",
"^  c #DD4D4E",
"/  c #DC4F50",
"(  c #D6584F",
")  c #E54D4E",
"_  c #EC4E51",
"`  c #E44E50",
"'  c #E55253",
"]  c #EB5455",
"[  c #EB5A59",
"{  c #F35355",
"}  c #F45B5B",
"|  c #FA585A",
" . c #E3524E",
".. c #D07152",
"X. c #F6645D",
"o. c #E96F59",
"O. c #FE6464",
"+. c #FF6C6C",
"@. c #F86862",
"#. c #F57968",
"$. c #FF7473",
"%. c #FF7978",
"&. c #FE7B75",
"*. c #E57E62",
"=. c #D17562",
"-. c #98863C",
";. c #AB883D",
":. c #CD813C",
">. c #D6853D",
",. c #E38D3F",
"<. c #9C854A",
"1. c #988656",
"2. c #A7884B",
"3. c #A89745",
"4. c #B89648",
"5. c #A58C52",
"6. c #AB9554",
"7. c #AD995B",
"8. c #AB9657",
"9. c #B49B54",
"0. c #B99E54",
"q. c #B39D5C",
"w. c #B89958",
"e. c #B68A50",
"r. c #B9A74B",
"t. c #BCA255",
"y. c #BBA35B",
"u. c #B6A25C",
"i. c #AFA457",
"p. c #978877",
"a. c #928472",
"s. c #B49E64",
"d. c #AD9671",
"f. c #BAA564",
"g. c #BCA766",
"h. c #B8A771",
"j. c #C89B58",
"k. c #CF914E",
"l. c #E78F49",
"z. c #C2A55A",
"x. c #C4AA5C",
"c. c #C6A859",
"v. c #CAB953",
"b. c #CEB053",
"n. c #E9A84E",
"m. c #D39665",
"M. c #FF8679",
"N. c #EE8F6B",
"B. c #C3AC64",
"V. c #CCAD63",
"C. c #C3AD6A",
"Z. c #C7A563",
"A. c #C6B16D",
"S. c #CBB46C",
"D. c #CCB567",
"F. c #D3B464",
"G. c #D2BA6C",
"H. c #D7BA68",
"J. c #CBB672",
"K. c #CEB973",
"L. c #C7B477",
"P. c #D3BC74",
"I. c #D6BC76",
"U. c #D1AB6D",
"Y. c #F7A978",
"T. c #E8B86C",
"R. c #DAC656",
"E. c #E2CD59",
"W. c #E9D45C",
"Q. c #F3DA5E",
"!. c #DCC26C",
"~. c #DAC268",
"^. c #D7C176",
"/. c #DBC374",
"(. c #D6C179",
"). c #DBC57A",
"_. c #DEC87D",
"`. c #DED177",
"'. c #E2C56C",
"]. c #E9C76C",
"[. c #F3DE61",
"{. c #E4CA74",
"}. c #E3CB7D",
"|. c #E8C975",
" X c #ECD47C",
".X c #ECD376",
"XX c #F4DA7D",
"oX c #F4D77B",
"OX c #EED16D",
"+X c #F9E967",
"@X c #F6ED76",
"#X c #F9F076",
"$X c #9B9186",
"%X c #A69886",
"&X c #A89E91",
"*X c #ACA397",
"=X c #B7AA99",
"-X c #AFA28D",
";X c #BCB3A6",
":X c #CAB887",
">X c #D4BC86",
",X c #D0B691",
"<X c #FDB799",
"1X c #F2B18C",
"2X c #C3BAAA",
"3X c #C8BFB3",
"4X c #FFBEA4",
"5X c #D8C888",
"6X c #D5C497",
"7X c #CFC287",
"8X c #E5CE82",
"9X c #EAD382",
"0X c #EAD583",
"qX c #F3DC84",
"wX c #F6DA87",
"eX c #E9D899",
"rX c #F5C98B",
"tX c #FAE385",
"yX c #F5EF82",
"uX c #FAE58A",
"iX c #FDEA8D",
"pX c #F6E38A",
"aX c #FDEC92",
"sX c #FAEA98",
"dX c #FFF294",
"fX c #FFF69B",
"gX c #F3E98E",
"hX c #DDD3BA",
"jX c #D5C9AE",
"kX c #F8C9A5",
"lX c #E8D8AA",
"zX c #E4D8BA",
"xX c #FCD9B7",
"cX c #F4D7AA",
"vX c #F8E9A7",
"bX c #FEF6A3",
"nX c #F5EAB9",
"mX c #EFE6B7",
"MX c #DBD4C8",
"NX c #D3CBC1",
"BX c #E6DBC4",
"VX c #E4DFD2",
"CX c #F6E8C8",
"ZX c #FBF4C4",
"AX c #FBF5C8",
"SX c #ECE6D7",
"DX c #F3ECDA",
"FX c #FCF8D8",
"GX c #ECE3C9",
"HX c #FAF6E7",
"JX c #FFFFFC",
"KX c #FBFAF4",
"LX c #F1ECE3",
"PX c None",
/* pixels */
"PXPXPXPXPXPXPXqXXX0XqXwXgXsXPXPXPXPXPXPXPXPXPXPXPXPXPXPXPXPXPXPXPXPXPXPXPXPXPXPXPXPXqXqXqXpXpXsXPXPXPXPXPXPXPXPXPXPXPXPXPXPXPXPXPXPXPXPXPXPX",
"PXPXPXPXPX.X{././.P.P.(.5XqXpXPXPXPXPXPXPXPXPXPXPXPXPXPXPXPXPXPXPXPXPXPXPXPXPXPX}.{.).^.(.P._.9XqXuXPXPXPXPXPXPXPXPXPXPXPXPXPXPXPXPXPXPXPXPX",
"PXPXPX.X|.I.K.J.g.g.g.g.g.J.8XpXiXPXPXPXPXPXPXPXPXPXPXPXPXPXPXPXPXPXPXPXPXPXPX'.^.K.S.B.g.g.C.J.).9XwXgXPXPXPXPXPXPXPXPXPXPXPXPXPXPXPXPXPXPX",
"PXPX'./.P.C.f.f.7.5.5.5.s.f.J._.qXPXPXPXPXPXPXPXPXPXPXPXPXPXPXPXPXPXPXPXPXPXF.S.S.A.g.u.6.2.6.7.g.J.).qXpXPXPXPXPXPXPXPXPXPXPXPXPXPXPXPXPXPX",
"PXH.G.A.A.B.q.F H H H H F 8.h.J.9XqXPXPXPXPXPXPXPXPXPXPXPXPXPXPXPXPXPXPXPXD.B.S.A.C.4.J H J H A <.s.J.(.9XpXPXPXPXPXPXPXPXPXPXPXPXPXPXPXPXPX",
"PXD.C.A.A.w.K L K K H H H F q.C.8XwXPXPXPXQ d.fXd.i y ! ! ! p.vX:XQ PXPXPXF.C.S.D.k.U U U L K J H F 7.C.P. XPXPXPXPXPXPXPXPXPXPXPXPXPXPXPXPX",
"F.B.C.L.B.K L U U K K K H H 5.C.).uXp.! u r h.aXA.4 w 7 7 7 d.dXL.y ! Q $X_.^.(.H.U >.:.U U Y K J H E g.K.}..XPXPXPXPXPXPXPXPXPXPXPXPXPXPXPX",
"x.g.A.J.e.U L L L U K U K K e.).wXsXC.7 < e  XiXpXE 7 < 7 R qXaXwXR 7 8 h.bXbXgXT.,.,.>.>.:.U U L J S s.A./..XPXPXPXPXPXPXPXPXPXPXPXPXPXPXPX",
"x.C.J.P.k.>.U >.U U U U U n.wXiXtXtX@X|./.qXqXtXuXtXP.g.K.iXuXiXsXiX5X XdXfXfXbXbXOXl.l.,.,.,.U L K F g.S.^.{.PXPXPXPXPXPXPXPXPXPXPXPXPXPXPX",
"x.f.C.P.z.:.>.>.>.>.>.l..XtXtXXXXXXXwXXXXXqX.XXXqXtXtXtXuXuXiXiXuXaXuXaXiXiXiXfXfXfXiXT.n.l.,.>...L 2.g.A.K.!.PXPXPXPXPXPXPXPXPXPXPXPXPXPXPX",
"x.q.C.K.P.j.>.,.>.l.|.XXXXXXoXoXXXoX.X.XoXoXF.T.qXqXqXqXtXuXtXuXuXuXuXuXuXiXOXuXdXdXdXfXgXT.l.:.L 2.A.g.g.G.H.PXPXPXPXPXPXPXPXPXPXPXPXPXPXPX",
"PX0.f.C.K.}.j.k.n.oXoX.X.X.X.X.X|.H.F.F.F.H.b.|.XXqXpXqXwXwXwXwXqX X|.].OXOXT.qXiXdXdXdXfXaXT.:.e.B.A.g.g.D.PXPXPXPXPXPXPXPXPXPXPXPXPXPXPXPX",
"PXPXq.q.B.^.8X{..X.XOX|.OX.X{.F.I.,X8 4 8 E c.'. XqX0XqXqXwXpX XT.8XBXE 8 G e.].tXiXiXdXdXfXfXqX^.S.C.g.y.PXPXPXPXPXPXPXPXPXPXPXPXPXPXPXPXPX",
"PXPXPX0.7.A.{.|.OX].{.{.{.{.V.lXKXe = + # % 0 z./.}. X0X0XqXqXF.lXJX=X< - - % R T.pXiXiXiXdXdXdXgX^.B.t.PXPXPXPXPXPXPXPXPXPXPXPXPXPXPXPXPXPX",
"PXPXPXPXPXH.{.].'.'.!.{./.F.,XJX2X= % + + # & E c.}.9X9XqXqXT.>XKXJX! > & - & * D ].uXiXiXiXdXdXdXpXG.PXPXPXPXPXPXPXPXPXPXPXPXPXPXPXPXPXPXPX",
"PXPXPXPX{.].'.!.'.'.'.{.{.z.HXJXp.= + + + + % 8 j.}.8X X0XtXV.zXJXJXr > & & & & < F.qXtXiXtXiXiXdXdXaXPXPXPXPXPXPXPXPXPXPXPXPXPXPXPXPXPXPXPX",
"PXPXPXPX'.'.'.'.H.!.!./.H.L.JXJX! = + + + + % 5 w.I. X X9X0XZ.HXJXJXy > & & & & * 2.|.uXtXiXiXiXiXiXiXPXPXPXPXPXPXPXPXPXPXPXPXPXPXPXPXPXPXPX",
"PXPXPX'.H.H.R.H.~.~.!./.c.jXKXJXy = + + + + & 5 w.G.}.8X9X9Xz.HXJXJX%X> * & & & * 0 T.wXuXuXtXiXiXiXiXuXPXPXPXPXPXPXPXPXPXPXPXPXPXPXPXPXPXPX",
"PXPX{.H.H.H.F.H.H.D.H./.c.jXJXJXp.= # + + + = 2 w.S._.8X8X Xj.LXJXJXVX< : & & & * 9 H.qXtXuXuXuXtXwXyXtXtXPXPXPXPXPXPXPXPXPXPXPXPXPXPXPXPXPX",
"PXPXI.F.n.m.U.F.D.G.G.G.j.6XJXKXSX> = # % * > E w.S.}.}.8X8Xy.BXJXJXKXa.> : * : > G H.qXtXtXwXwXwXoXwXtXqXPXPXPXPXPXPXPXPXPXPXPXPXPXPXPXPXPX",
"PX{.T.*.| X.X.o.m.F.D.G.Z.L.KXJXKX;X4 : > 4 %X6Xw.I.}._.}.8XZ.6XJXJXJXKXp.4 > < r C.F.wXwXwXrXY.M.M.%.Y.wXwXPXPXPXPXPXPXPXPXPXPXPXPXPXPXPXPX",
"PXT.o.| | | | | } N.U.G.S.2.DXKXJXKXLXjXNXLXKXs.f.^.).).).}.I.Z.HXJXJXJXJXLXNXMXLXF.I.wXwXY.M.&.%.%.%.%.M.oXPXPXPXPXPXPXPXPXPXPXPXPXPXPXPXPX",
"PXN.| | | } | } } X.N.F.I.0.d.HXJXJXJXJXJXKX:Xe.J.(.I.5X_._.9Xz.:XKXJXJXJXJXJXKX>XV.0XwX1XM.%.%.%.%.%.%.$.Y.PXPXPXPXPXPXPXPXPXPXPXPXPXPXPXPX",
"/.@.| { { { } } [ } X.m.G.I.6.s.jXDXLXSXhXh.6.A.P.P.).I.I.)._.}.j.C.hXLXKXLXBXU.V.|.wXrXM.%.%.%.%.%.%.$.$.&.|.PXPXPXPXPXPXPXPXPXPXPXPXPXPXPX",
"T.@.| { { { } } } } O.*.U.A.I.q.2.5.8.2.2.0.K.P.I.(.(.P.).).)._.8XU.w.w.Z.Z.w.V.}.9XwX1X$.$.%.%.%.%.%.$.$.#.Y.PXPXPXPXPXPXPXPXPXPXPXPXPXPXPX",
"N.| | { { } } ] } [ } [ m.C.S.G.P.J.P.I.P.P.K.I.P.).P.I.).5X).(.}.9XqX}.8X}.8X8X8X X|.M.%.$.%.$.$.%.$.&.$.$.N.PXPXPXPXPXPXPXPXPXPXPXPXPXPXPX",
"N.| | { _ { ] ] } } @.} m.Z.A.S.S.K.S.S.J.A.J.J.J.P.(.P.(.(.(.(.P.).8X_.}.8X}.}.rX9XY.%.%.$.%.%.%.$.$.$.+.+.M.PXPXPXPXPXPXPXPXPXPXPXPXPXPXPX",
"#.| { { ] ] ] ] [ } [ [ o.Z.A.C.A.C.J.A.g.J.A.K.K.J.K.:XK.(.P.(.).).)._._.}.).}.I.8XY.$.$.$.$.%.%.$.$.&.+.+.N.PXPXPXPXPXPXPXPXPXPXPXPXPXPXPX",
"#.| | { { _ ] _ [ } [ [ [ C.C.C.A.C.A.C.C.A.K.J.L.J.J.L.K.(.K.(.^._.}._.).}._.}.8X8XM.&.$.$.$.$.$.$.$.+.+.O.#.PXPXPXPXPXPXPXPXPXPXPXPXPXPXPX",
"#.| { { _ _ ' ' ' ] [ [ [ m.Z.C.B.C.g.C.g.A.A.A.J.J.J.K.(.(.(.K.).).).).)._.).}.8XT.&.$.+.$.$.$.$.$.$.$.+.O.*.PXPXPXPXPXPXPXPXPXPXPXPXPXPXPX",
"#.| { _ _ ' ' ' ' ' ' [ [ m.s.C.C.C.Z.B.h.C.g.g.L.L.S.J.K.P.P.K./.).).).).^.^.).).|.&.$.+.$.$.+.$.$.+.+.+.O.#.PXPXPXPXPXPXPXPXPXPXPXPXPXPXPX",
"N.| | { { _ ' ` / ' ' [ =.w.s.s.f.B.g.g.C.C.C.g.S.S.K.J.J.K.J.K.J.P.^.^.P.^.I.).}.T.$.+.+.$.+.+.$.+.$.+.+.@.Y.iXaXsXbXvXPXPXPXPXPXPXPXPXPXPX",
"PXX.| _ _ ) ) ) / / ' ' [ e.f.f.f.f.s.f.A.g.g.g.S.S.L.A.J.K.K.(.I.K.K.K.(.(./.^.T.T.&.$.+.+.$.+.+.+.O.+.O.X.|.uXiXiXaXaXsXsXvXPXPXPXPXPXPXPX",
"PX@.| { { _ ) ) / / / / ( w.7.q.q.f.q.f.f.1.3 - - 3 3 3 4 3 3 3 4 1.G.J.G.K.G.^.I.I.#.+.+.+.+.+.+.+.+.O.O.#.qXtXuXuXiXaXdXaXdXsXPXPXPXPXPXPX",
"PXPX| { _ _ _ _ ^ / / / ( 7.q.q.u.7.q.f.f.3 X @ + & & & - - - - - 3 J.J.G.J.G.G.{.H.N.+.O.O.+.O.O.O.O.O.O.Y.qXwXpXpXuXiXiXaXaXaXsXsXPXPXPXPX",
"PXPXX.| _ _ _ ) ` / ^ ` ~ 8.7.q.7.s.7.7.i.1.+   X @ @ + + + + % 3 7.J.G.J.G.S.S.I.H.N.O.O.O.O.O.O.O.O.O.N.0X0X0XqXqXwXuXiXaXiXiXiXpXaXPXPXPX",
"PXPXPX*.{ _ ) ) ) ^ ^ / e.6.6.6.7.7.7.7.7.i.8.t * X X X @ X * t f.B.S.G.D.D.B.V.D.F.U.#.O.O.O.O.O.O.X.#.}. X0X0XeXvXCXFXFXFXFXAXvXaXtXtXPXPX",
"PXPXPXPXo._ _ ) ) ) ^ ..6.6.6.5.0 5.9.7.7.8.7.f.u.8.t 0 R 7.g.g.g.B.C.D.B.i.D 5.D.D.H.N.X.O.X.| | | X.G.8X8XeXZXHXDXNX2X&X-X=XhXDXFXvXtXPXPX",
"PXPXPXPXPX*.o. . .( W e.9.9.6.5.5 ; D 6.8.8.8.8.8.7.u.u.u.u.y.u.y.y.y.y.<.2 2 7.D.B.V.V.N.o.X.} X.N.S.}.eXCXSX2XQ w : : $ : : > 4 p.BXnXqXPX",
"PXPXPXPXPXPXc.j.j.j.9.t.9.9.6.6.8.q ; ; q <.<.6.7.8.7.7.q.q.9.9.9.5.q 2 ; 0 q.B.x.x.x.c.c.c.j.c.V.P.I.lXDXjXu , $ $ $ $ $ $ : : > > e jXvXPX",
"PXPXPXPXPXPXPXPXx.b.y.t.0.9.9.9.7.6.5.t 6 5 = ; 5 2 6 6 6 2 2 5 ; ; 6 R 6.u.y.t.t.x.t.x.x.x.x.D.K.P.lXDX*X3 $ $ $ $ $ $ $ $ * : > > < w BXrX",
"PXPXPXPXPXPXPXPXPXPXx.z.t.t.9.0.0.9.9.u.D.3.i.<.R D 0 q 0 R R <.6.i.u.t.9.0.t.t.t.y.t.x.x.B.J.G.K.lXDX*X, # % % # $ , u p.&X%Xy < > > > Q vX",
"PXPXPXPXPXPXPXPXPXPXPXPXPXx.z.t.t.y.`.@XW.D i.-.3.0.9.9.9.9.0.0.9.0.9.r.0.0.t.z.z.y.y.u.C.A.A.J.6XDX*X, # O % = r *XVXHXHXHXHXHXSXQ < > 7 zX",
"PXPXPXPXPXPXPXPXPXPXPXPXPXPXPXPX~.+X#X#X@X-.6 q -.0.0.0.t.t.t.t.t.z.z.y.x.x.x.y.u.7.7.f.A.A.A.7XGX*X, # # % w =XLXDXmXeX0X8X9XwXvXHXp.> > ,X",
"PXPXPXPXPXPXPXPXPXPXPXPXPXPXPXPX[.Q.+X+X+X3.5 q -.r.k.V.n.Y I v b m N PXH.b.y.u.q.7.f.C.C.A.L.zX2X, + # = i MXSXeX5X).}.0X8X0X X9XvXBX4 : d.",
"PXPXPXPXPXPXPXPXPXPXPXPXPXPXPXPX[.Q.W.E.R.v.q q -.4.c c k k l x b b x M o.x.y.7.q.7.g.A.A.C.6XMXw @ @ , *XSXmX)./.8XlXGXBXMXBXnXwXoXnXe > -X",
"PXPXPXPXPXPXPXPXPXPXPXPXPXPXPXQ.W.R.r.>.r.;.-.3.-.k.v l b z l l x l k l N k.i.7.7.f.g.A.A.L.hX$X# @ * &XSXeX(./.5XCX3XQ w 4 w 2XnX0XmXe > =X",
"PXPXPXPXPXPXPXPXPXPXPXPXPXPXPXI I H Z V A A A -.;.k.s k k s k l l b z k l N k.7.7.B.C.A.A.jX2X,   % $XGX6XP.^.5XGX*X: % % & 3 i GX XcXe > ,X",
"PXPXPXPXPXPXPXPXPXPXPXPXPXPXyXOXl.Y C a 1 a s f f d a e.j s s k l n l l b M T w.C.A.A.C.7XMXr @ * $XVX6XJ.G.^.lXjX- # # * $XzXBXAX0X6X< e PX",
"PXPXPXPXPXPXPXPXPXPXPXPXdXyXyX@X+XQ.>.d f h s a s z h lX( l m m M b n n m m M T m.K.A.L.hXp.@ % $XzX:XB.D.S.(.GXi @ . o y zX8X0XeXeXp.: d.PX",
"PXPXPXPXPXPXPXPXPXPXPXiXyXyXyX#X#X+Xn.h K h C s a l N.AXm.l n M M M m m n m M M l.L.J.hX*X& # p.jXA.9.9.y.g.:XVXw . o o a.GX}.}.eX=X> u PXPX",
"PXPXPXPXPXPXPXPXPXPXyXyXyXyX@Xx.[.#Xn.c :.I H h d c kXZXnXc l M M M n m n n M T I.6XMX$X- w =X6Xg.9.9.9.7.y.,XjX+ + . # r zXmXzXa.> < PXPXPX",
"PXPXPXPXPXPXPXPXPX@X@X@XyXyXx.A D.#X[.v Y Y z ;.d C vXZXnX..l l x b m m M b o. XwX=Xe w %X6XA.z.0.9.9.4.6.u.7XjX:     o # 4 r > O e s.PXPXPX",
"PXPXPXPXPXPXPXPXPX#X#XW.~.r.A A 3.[.+Xn.B d s V L C 5XZXZX>Xb n n m m m M ..^..XqXd.-X,XK.V.x.x.z.t.9.9.9.9.L.zXu o .   o o o , a.PXPXPXPXPX",
"PXPXPXPXPXPXPXPX+X+X#Xr.A A D A A Z A r.R.v.;.f -.h t.AXAXZXB n n n m m N m.J./. XtXPXPXPXPXD.x.z.z.0.0.9.9.u.,X3XQ w & , e p.:XPXPXPXPXPXPX",
"PXPXPXPXPXPXPXPX+X+X+X#X;.A A A Z Z -.R.W.R.v.h F V W nXZXZX>X( o.*.1XkXCXmXA.^.}.qXtXPXPXPXPXPXB.x.z.r.0.0.9.t.L.>X6X,X,X>XPXPXPXPXPXPXPXPX",
"PXPXPXPXPXPXPXPX[.+X+X#Xr.Z Z Z Z r.+XW.W.R.v.C V A 2.nXZXAXZXZXFXCXxXkX<XFXC.C.^.}.D.PXPXPXPXPXPXPXPXz.z.t.t.t.z.z.y.PXPXPXPXPXPXPXPXPXPXPX",
"PXPXPXPXPXPXPXPXPXQ.[.+X-.Z -.A Z ;.W.W.R.v.v.F F -.7XnXnXnXZXkX1X<XkXCXHXHX6Xq.7.<.9 4 PXPXPXPXPXPXPXPXPXPXPXPXPXPXPXPXPXPXPXPXPXPXPXPXPXPX",
"PXPXPXPXPXPXPXPXPXW.W.Q.;.R.[.R.-.G E.R.v.r.r.3.3.i.mXmXnXAXZXnXCXFXFXFXFXLXkXE 4 > $ > PXPXPXPXPXPXPXPXPXPXPXPXPXPXPXPXPXPXPXPXPXPXPXPXPXPX",
"PXPXPXPXPXPXPXPXPXPXR.R.R.E.E.W.R.r.R.v.v.r.3.3.i.lXnXnXZXnXZXZXnXZXZXAXxX<XxX..O   O $ PXPXPXPXPXPXPXPXPXPXPXPXPXPXPXPXPXPXPXPXPXPXPXPXPXPX",
"PXPXPXPXPXPXPXPXPXPXPXPXR.v.v.v.b.r.r.r.i.3.6.m.6XkXvXmXxXcXcXkX<X<X<X1XxXxX+.N PXPXo PXPXPXPXPXPXPXPXPXPXPXPXPXPXPXPXPXPXPXPXPXPXPXPXPXPXPX",
"PXPXPXPXPXPXPXPXPXPXPXPXPXPXPXr.4.;.;.S W 7XlX,X>X1X1X1X1XkXkXcXcXFX,X..=.B n PXPXPXPXPXPXPXPXPXPXPXPXPXPXPXPXPXPXPXPXPXPXPXPXPXPXPXPXPXPXPX",
"PXPXPXPXPXPXPXPXPXPXPXPXPXPXPXPXPXPXp p 1 p j 1 V ~ ~ g ~ ~ ~ a g g s f d PXPXPXPXPXPXPXPXPXPXPXPXPXPXPXPXPXPXPXPXPXPXPXPXPXPXPXPXPXPXPXPXPX",
"PXPXPXPXPXPXPXPXPXPXPXPXPXPXPXPXPXPXPXPXx.2.E V V g p j p g g V P W c.PXPXPXPXPXPXPXPXPXPXPXPXPXPXPXPXPXPXPXPXPXPXPXPXPXPXPXPXPXPXPXPXPXPXPX",
"PXPXPXPXPXPXPXPXPXPXPXPXPXPXPXPXPXPXPXPXV.u.6.6.t.x.PXPXPXF.9.6.7.x.~.PXPXPXPXPXPXPXPXPXPXPXPXPXPXPXPXPXPXPXPXPXPXPXPXPXPXPXPXPXPXPXPXPXPXPX",
"PXPXPXPXPXPXPXPXPXPXPXPXPXPXPXPXPXPXPXPXx.i.9.8.y.y.PXPXPXD.9.7.y.H.OXPXPXPXPXPXPXPXPXPXPXPXPXPXPXPXPXPXPXPXPXPXPXPXPXPXPXPXPXPXPXPXPXPXPXPX",
"PXPXPXPXPXPXPXPXPXPXPXPXPXPXPXPXPXPXPXPXu.8.5.8.y.i.PXPXPXy.6.7.g.^.H.PXPXPXPXPXPXPXPXPXPXPXPXPXPXPXPXPXPXPXPXPXPXPXPXPXPXPXPXPXPXPXPXPXPXPX",
"PXPXPXPXPXPXPXPXPXPXPXPXPXPXPXPXPXPXPXPX8 8 9 0 0 8 PXPXPXe 9 t R <.0 PXPXPXPXPXPXPXPXPXPXPXPXPXPXPXPXPXPXPXPXPXPXPXPXPXPXPXPXPXPXPXPXPXPXPX",
"PXPXPXPXPXPXPXPXPXPXPXPXPXPXPXPXPXPXPXPX: . . o O = PXPXPXPXo O $ > > PXPXPXPXPXPXPXPXPXPXPXPXPXPXPXPXPXPXPXPXPXPXPXPXPXPXPXPXPXPXPXPXPXPXPX",
"PXPXPXPXPXPXPXPXPXPXPXPXPXPXPXPXPXPXPXPXPXX X . O PXPXPXPXPX. . # = PXPXPXPXPXPXPXPXPXPXPXPXPXPXPXPXPXPXPXPXPXPXPXPXPXPXPXPXPXPXPXPXPXPXPXPX"
};
