/* XPM */
static char *_4aadeb721c84038c3231da8028856aflSFPKcvY5bnOCPIg[] = {
/* columns rows colors chars-per-pixel */
"70 70 243 2 ",
"   c None",
".  c #343A1F",
"X  c #353B23",
"o  c #5A3B14",
"O  c #334A1C",
"+  c #374926",
"@  c #3B5629",
"#  c #3D5633",
"$  c #344A2B",
"%  c #3C652A",
"&  c #3E6833",
"*  c #6F4B18",
"=  c #454829",
"-  c #445B2B",
";  c #465928",
":  c #454D32",
">  c #485A34",
",  c #525A34",
"<  c #564629",
"1  c #694C24",
"2  c #775829",
"3  c #6E5127",
"4  c #45632B",
"5  c #4B632D",
"6  c #436C2D",
"7  c #486928",
"8  c #556A2D",
"9  c #4A732D",
"0  c #49752C",
"q  c #547D2E",
"w  c #56752C",
"e  c #4B6233",
"r  c #4A6C34",
"t  c #466839",
"y  c #536A34",
"u  c #546B3B",
"i  c #576836",
"p  c #447333",
"a  c #4C7434",
"s  c #4D7B34",
"d  c #4A743C",
"f  c #4C7C3B",
"g  c #46773B",
"h  c #537334",
"j  c #5B7534",
"k  c #537B33",
"l  c #5C7A34",
"z  c #54743B",
"x  c #5C743C",
"c  c #547C3B",
"v  c #5B7D3D",
"b  c #7C672E",
"n  c #646939",
"m  c #637C3D",
"M  c #657537",
"N  c #707538",
"B  c #4C6642",
"V  c #4B7C43",
"C  c #4A7744",
"Z  c #597944",
"A  c #556E46",
"S  c #657D44",
"D  c #616843",
"F  c #88511B",
"G  c #855929",
"H  c #945D25",
"J  c #834E24",
"K  c #89662C",
"L  c #976A2A",
"P  c #8A6D32",
"I  c #896734",
"U  c #936B32",
"Y  c #8E7635",
"T  c #997534",
"R  c #99712C",
"E  c #A6762B",
"W  c #A57A35",
"Q  c #B47E33",
"!  c #AE6F29",
"~  c #C47D32",
"^  c #9A7C49",
"/  c #56832E",
"(  c #4D833B",
")  c #4E8B3C",
"_  c #4E8236",
"`  c #548334",
"'  c #5B8534",
"]  c #5C8C35",
"[  c #53833C",
"{  c #5B843C",
"}  c #548C3C",
"|  c #5B8C3C",
" . c #558A33",
".. c #55933C",
"X. c #5C943C",
"o. c #5B963A",
"O. c #63843B",
"+. c #6D833C",
"@. c #628C3D",
"#. c #668937",
"$. c #748B3F",
"%. c #74873D",
"&. c #63943B",
"*. c #6A953C",
"=. c #649B3C",
"-. c #6C9B3C",
";. c #679536",
":. c #749A3A",
">. c #65842E",
",. c #6CA33D",
"<. c #67A43D",
"1. c #72A33E",
"2. c #78A93E",
"3. c #4D8244",
"4. c #4E8A43",
"5. c #4E8448",
"6. c #538443",
"7. c #5C8543",
"8. c #538B43",
"9. c #5B8D43",
"0. c #558B4B",
"q. c #56884A",
"w. c #549243",
"e. c #5B9242",
"r. c #5B934A",
"t. c #599749",
"y. c #5C9753",
"u. c #558650",
"i. c #668645",
"p. c #748B43",
"a. c #778844",
"s. c #639443",
"d. c #6B9443",
"f. c #639B43",
"g. c #6B9C44",
"h. c #66984B",
"j. c #739B4B",
"k. c #789944",
"l. c #649855",
"z. c #739152",
"x. c #5DA149",
"c. c #5EA250",
"v. c #6CA343",
"b. c #68A547",
"n. c #72A343",
"m. c #72AA44",
"M. c #7AAC4C",
"N. c #78A849",
"B. c #7CB244",
"V. c #7BB24A",
"C. c #67A457",
"Z. c #79A755",
"A. c #77B558",
"S. c #6FAA64",
"D. c #7DC065",
"F. c #AC843B",
"G. c #A9813A",
"H. c #BB8434",
"J. c #BB8C3A",
"K. c #B78637",
"L. c #BA822E",
"P. c #81A63C",
"I. c #C68A36",
"U. c #C99339",
"Y. c #D79839",
"T. c #CF8933",
"R. c #E29A34",
"E. c #DBA33D",
"W. c #DBA43B",
"Q. c #EBAC3C",
"!. c #E6A63B",
"~. c #EFB13E",
"^. c #878B48",
"/. c #859648",
"(. c #8A9A55",
"). c #939457",
"_. c #B59049",
"`. c #84A94A",
"'. c #85B343",
"]. c #88B84B",
"[. c #88AA55",
"{. c #98A857",
"}. c #84B353",
"|. c #89B957",
" X c #96B65A",
".X c #90AF48",
"XX c #A8AB5C",
"oX c #989266",
"OX c #B09466",
"+X c #98BB62",
"@X c #89AA67",
"#X c #B8A766",
"$X c #A8B765",
"%X c #B5B470",
"&X c #C68E43",
"*X c #C89446",
"=X c #D79C47",
"-X c #FB985A",
";X c #E29B43",
":X c #DBA342",
">X c #DCA548",
",X c #E6A847",
"<X c #FDA35E",
"1X c #FAAB5E",
"2X c #EFB253",
"3X c #F99C65",
"4X c #E29877",
"5X c #C3A779",
"6X c #D2AD73",
"7X c #FBA767",
"8X c #FCB364",
"9X c #FDB56B",
"0X c #FAA778",
"qX c #FDBD74",
"wX c #FCB671",
"eX c #E8A965",
"rX c #CF9C78",
"tX c #97C453",
"yX c #A5CA5D",
"uX c #94C564",
"iX c #A7C868",
"pX c #ACD269",
"aX c #B7CA76",
"sX c #B6D274",
"dX c #AFCF6D",
"fX c #C7C877",
"gX c #C5D77B",
"hX c #D5C772",
"jX c #FCC478",
"kX c #E5C870",
"lX c #EFC25F",
"zX c #B6B485",
"xX c #D8B685",
"cX c #FCB987",
"vX c #F1B186",
"bX c #D3CD8C",
"nX c #FCCA87",
"mX c #FBCD95",
"MX c #FBD59A",
"NX c #F1CE89",
"BX c #CBE485",
"VX c #F5D9A3",
"CX c #EBDBA5",
/* pixels */
"                                                                                                                                            ",
"                                                                                                                                            ",
"                                                        q.0.l.Z.[.[.Z.g.<.B.                                                                ",
"                                                    C.l.q.y.r.8.e.s.9.e.N.}.tXiX X                                                          ",
"                                                A.A.v.h.X.t.y.l.l.j.h.|.iX+X X X[.[.                                                        ",
"                                          l.y.y.b.e.8.| ;.@.i.7.l.C.A.+X X(.j.v.N.g.O.i.                                                    ",
"                                        S.S.y.t.w.5.3.V { c x x x s.s.t.g.g.s.f.M.].p.p.$XaX$XXX%X%X                                        ",
"                                        S.y.t.x.t.4.3.V 3.6.{ i i x ) X.X.g.h.n.|.tXyXk..X X{.`.[.{.fX                                      ",
"                                      S.x.w.} x.x...8.} 4.9.O.8 8 k o.....b.v.].pX|.N.:.[.uX.X[.+X%XhX                                      ",
"                                    Z.y.e.6.} f.x.<.1.g.,.,.@.d c { } ` ....<.].pXk.O.d.+XuX[.M.dXgXgX                                      ",
"                                  l.u.V V 5.z ] ,.,.-.' #.;.6.3.6.9.6.( } o.2.P.1. .d.j.N.n.[.k.+XBXgX$X                                    ",
"                                S.l.u.C V 5.[ f [ k C d p _ } 4.8.e.8.9.v.,.2.:./ w  .=.s.d.Z.Z. XgX#X^. XfX                                ",
"                                  C.y.[ ) ) t.4.( V C d p ( } } ) ..o.2.m.:.1.;./ ' } X.v.v.s.g.Z.iXdX(.(.bX6X                              ",
"                                  C.t.} p s s & 3.3.6.f [ [  .@.s.g.1.P.:.w k 6.9.i.q.e.v.V.1.*.;.`. X(.(.$X                                ",
"                                C.f.| f - $ $ # f 4.} =.e.i.{.6XxXxXxXbXXXS C 6.7.i.7.s.m.V.'.N.N.N.k.a.(.{.                                ",
"                                y.5.p g t & B & ( o.=.X.i.OX0X0X0XvXcXmXVXbX@XZ [ 9.s.N.A.n.&.d.}.|.`.p./.(.{.                              ",
"                                q.q.C g g 4.3.C g `  .9 oXvX7X7X0X7XwXjXnXVXCXz.a } f.B.M.@.v d.}.].:.a./.                                  ",
"                              h.9.0.V V ) ) V C t & % B rX3X-X8X7X1X9XjXnXnXVX@Xj ' =.B.d.7.d.g.}./.j %.{.                                  ",
"                            |.S.Z.0.3.d p s ( 3.C & @ D 4X-X-X7X-X<X9XjXqXqXmXOXM w 0 X.9.9.9.f.V.N.M %.{.                                  ",
"                      D.S.C.C.l.q.d a 4 - 9 ( 4.4.g % r rX-X-X3X-X-X<X8X8XwXmX{.j h 6 a } X.{ { g.k.$.k./.$X                                ",
"                    uXD.C.w.r.r.[ 5 r h k 9 ) e.e.p @ % ^.6X2X<X3X8X8X2X8XjXfX{ s k a k X.=.*.m O.p.k.N.k.{.aXbX                            ",
"              Z.D.uXD.A.b.t.t.6.s p [ X.} 0 s [ t $ $ @ @ x _.#X#X6XkXkX6XXX] s c [ 7.s.v.#.#.i.a.k.`.V.V.].yXpXsXaXBXBX                    ",
"            |.A.A.A.b.t.w.f.&.h a ) ....e.` a B B # # # $ @ ; , 5 M ^.+.5 @ p 6.[ 6.e.v.v.w j i.k.j.f.}.yXpXyXyXsXaXsXsXpXsXsX              ",
"          A.l.0.c.c.t.5.3.6.[ A 9.f.t.t.t.s.*.x > B B u > - y - ; ; ; O O + 9 k p f 8.b.,./ ] =.n.j.=.|.pXpXyXpXsXsXuX|.|.dXsX+X            ",
"      `.M.l.y.Z r.c.t.5.3.V 3.9.d.z.c f w.1.2.l r x Z i.l 7 j h ; e y > y c f 0 9 s _ X.] ] ;.<.<.<.v.M.uX`.M. XdXdXiX X$XiXdXdX            ",
"      `.C.C.0.V 5.C.t.) 8.4.8.e.7.z k s { &.{ c 9.9.9.s.=.;./ @.*.v A u i.h.C.h.e...[  ...,.2.-.;.;.=.,.M.j.d.Z.iXdXdX X[.`.+XiXpX          ",
"    }.M.b.t...} w.b.<.<.,.=.&.@.f 6.8.X.g.e.4.8.s.e.9.s.,.B.:.g.[.j r c 6.3.0.C.b.b.B.m.m.'./.$.m j l @.g.j.j.j.|.iXuX X[.j.C.uXdXpX        ",
"    z.z.h.X.` 0 ..,.-.*.>.' 6.V 6.5.8.X.&.} } } w.f.e.m.B.P.2.*.M.@.f 8.V g V b.V.'.N.#.=.:.O.m m u 8 { 9.| } s.b.|.|.j.Z.j.d.+XsXgXgX      ",
"j p.z.S Z u.4 4 9.9.f t a 3.3.5.q.3.3.8.=.X.} ) ..o.,.tX2./ ' X.n.M.f.r.6.d t [ e.@.' a f V 6.7.Z v O.#.{ ' ` ` X.m.V.V.n.d.j.[.dXaXBX      ",
"j Z z.S S S z 6.4.3.C d ( 4.3.4.q.8.e.f.n.;.h k ..o.2.].-.0 [ X.;.;.g.r.} f g f f f c f V 3.q.9.V 6.e.*.>.q { s.e.f.b.V.].1.&.g.].dXfX      ",
"  S i.S Z Z u.8.4.4.C g ( ( 4.8.} =.1.*.-.O.f | *.,.-.;. .} e.=.=./ o...o... .) ( ( s ( ) 4.8.e.8.e.f.n.1.{ r.s.s.e.m.V.P.P.:.,.'.].{.dX    ",
"j i.i.y.u.u.C r 0.8.( c f f 8.h.j.[.`.l a d V e.v.,. .` | { 7.h.,.1.;.o. .` f ( ` s ) ........e.o.m.m.P.`.e.9.e.f.f.m.tXP.>.] 2.].tXP.XX    ",
"  Z r.0.u.C C V t...e.&.i.).5X6XvXvXxXzXoXZ f =.&.-.| c 7.7.i.b.m.n.X.} ( g 3.f p s ' o.*.....=.2.P.,.,.1.e.w.} } e.,.tXP.<...&.M.A.].{.    ",
"  u 6.0.5.C C V t.o.] x oXvX0X0XvXcXnXMXCXzXd.] 0 s ` f [ X.f.V.M.&.e.8.5.5.3.3.(  .#.0 7 7  .,.2.k.{ *.g.e.] `  ...=.2.2.2.:.&.N.k.p.[.{.  ",
"    B V 8.6.6.V 8.( 6 S 4X7X7X7X3XwXjXjXmXVXzX] 6 _  .9 s ..,.B.k.$.:.X.w.4.3.4.t.g.] 4 0 7 7 /.OXrX5XxXxX+X`./ } } } =.m.'.P.v.m.n.a././.(.",
"    t 0...e.| | w.g # oX0X7X7X7X7X9XjXjXjXMXbXm 9  .&.q l ' -.:.:.%.+.*.e.w.w.b.-.1.@.% 6 6 a.rX0X0XvXvXcXMXbX@X9.| 9.e.m.B.&.X.v.N.p.{.^.^.",
"    u 9.8.c 6 p _ p & OX3X-X<X-X-X9XqXjXqXnXxXi.' X.#.' N O.p.:.p.a.7 s ,.v.,.*.f c c r 9 S 4X0X-X7X7X0XwXnXMXVX@X[ o.f.m.tXo.} s.p.%.(./.  ",
"    x Z A # # - - @ 4 S eX-X-X-X-X<X1X8X9XnXaXi.=. .9 j i.a.p.p.$.#.p & k ;.| p & g 6.6.k oX0X-X7X7X3X8XqXjXnXMXbXs.X.,.2.P.-.O.8 , m a.^.  ",
"      z A B > t 4 - 6 k XXeXeX7X1X8X8X8XjXhXN.] =.` 9 5 O.@.O.+.%.' f g t % p & & V 8.X.l OX3X-X7X3X-X1XqXjXjXnXbXs.] ;.:.:.-.-.y , , n N   ",
"      Z Z A A A u 4 9 q l S ^.).#XhXhXhX$Xk./ ] } f k c ' @.k i i e # p C C V d p ( } ] > ^ 3X-X<X-X-X<X8X9X9XnXfX] q s q @.v.n.m n , D N   ",
"      m S Z A u Z u e ; 4 & & & a i.j.*.q w w _ 3.6.6.e.h.n.i , : : X > V 0.r.( @ & p 5 + h #XeX1X-X<X1X1X1XwXNX{.` s [ 9.h.M.:.%.N x D     ",
"        x u @ + > Z Z u h [ h d f 8.e./ O O 7 k f r f 9.b.*., , = = ; , z 7.7.t + O @ e 4 @ 8 ^._.#X6XkXkXkX%X/.k ( [ 7.r.v.n.p.%.n , n     ",
"            > $ + Z S S 5 + 8 8 f 9.&.4 + 5 j M e - u { s.y = = = < 1 1 3 3 u u 5 ; ; 5 @ O O % p d i.p./.:.8 O 4 ' O.v [ h.-.a.k.          ",
"            t > @ u S i X . X ; 5 d z 5 y m m j - - x m x + X < < 1 2 3 * * , x y ; O @ @ O @ ( } } ` `  ./ - - x +.O.j l #.+.a./.          ",
"              u A i 8 > : X $ : : > y x m m ; ; ; ; j M < . = 1 3 J G G J J J K b @ O + @ + @ 9.s.&.j w O.{ x m a.n n M M %.+.+.            ",
"                        : X X X : : > y m j ; ; 5 8 b 3 2 2 2 2 G I U U H H L L L b y 4 @ + - x O.m 8 j   x S p.S 8 i                       ",
"                          $ X O = ; ; ; 8         M b b P T R K I K U U L L L R E E G.    u u x %.%.M >.    %.p.                            ",
"                            =       ;               P K Y T T U L H U W U L E ! E E L.    D S +.                                            ",
"                                                    Y P U W G.R L L L W R G.G.L.E L.J.      p.                                              ",
"                                                    Y P T G.F.G.R L R G.J.U.U.U.J.J.J.                                                      ",
"                                                    Y P Y G.J.H.H.Q K.I.W.W.W.W.W.L.J.                                                      ",
"                                                    P P R F.J.J.I.I.U.U.W.W.Q.Q.Q.W.:X                                                      ",
"                                                    P P T F.J.J.H.I.I.U.W.,XQ.!.!.~.~.                                                      ",
"                                                    P P G.K.J.K.H.I.I.Y.W.,XW.W.Q.Q.Q.                                                      ",
"                                                    Y Y G.F.K.L.Q I.T.U.W.:XY.!.~.Q.!.,X                                                    ",
"                                                  P P K Y W G.L.I.I.U.Y.!.!.Y.R.~.~.Q.2X2X                                                  ",
"                                              _.^ I I 2 U W Q Q Q T.U.W.W.W.R.R.!.Q.!.!.,X1X1XlX                                            ",
"                                          I I P I b 2 I K E Q Q L.U.W.W.W.W.Y.Y.R.R.T.~ ;XR.;X2X2X                                          ",
"                                          3 3 3 1 1 2 b T G.K.H.I.Y.Y.W.W.W.R.T.R.T.! ! ~ ~ ~ T.Y.                                          ",
"                                              1 o o 3 I W K.&X_.U.U.U.W.W.W.W.Y.T.R.! H H ! ~ ~                                             ",
"                                                  * U Q &X&XQ ~ H.Q J.I.U.Y.W.E.!.,XQ *                                                     ",
"                                                  _.*X=X;X=X&X&X! L L ! L.U.:X>X2X2X>X                                                      ",
"                                                  *X=X>X>XeX=XQ L F * J R _.=X>X,X2X2X                                                      ",
"                                                _.*X=X=X>X=XT.! H * o * G _.*X>X>X,X2X>X                                                    ",
"                                                W *X*X*XI.H.Q               F._.&X=X=X:X                                                    ",
"                                                  _.K.W E                       G.J.&X                                                      ",
"                                                                                                                                            ",
"                                                                                                                                            ",
"                                                                                                                                            ",
"                                                                                                                                            "
};
