/* XPM */
static char *_bcf70e6184644c7ba0d132f3cd943e63ZgToNhVHGsNQ8gz[] = {
/* columns rows colors chars-per-pixel */
"70 70 146 2 ",
"   c #B46F31",
".  c #AF7239",
"X  c #B77235",
"o  c #B97435",
"O  c #B3753B",
"+  c #B9763A",
"@  c #B4783E",
"#  c #BB7A3D",
"$  c #D5792F",
"%  c #C17837",
"&  c #C27C3E",
"*  c #CB7F3D",
"=  c #D67B31",
"-  c #D97E34",
";  c #B57A42",
":  c #BB7D43",
">  c #B77F48",
",  c #C27F41",
"<  c #CB813F",
"1  c #DB8137",
"2  c #DD843A",
"3  c #DF883F",
"4  c #E0863C",
"5  c #E1893F",
"6  c #BE8146",
"7  c #B5814C",
"8  c #BC834B",
"9  c #BE8751",
"0  c #BF8953",
"q  c #C48244",
"w  c #CC8645",
"e  c #C3854A",
"r  c #C98649",
"t  c #C5884D",
"y  c #CA894C",
"u  c #D18644",
"i  c #DC8741",
"p  c #D28946",
"a  c #DC8A44",
"s  c #D38B4A",
"d  c #DB8E49",
"f  c #DE914C",
"g  c #C58C54",
"h  c #CC8E52",
"j  c #C38E5A",
"k  c #C88F58",
"l  c #D18F51",
"z  c #CD9056",
"x  c #C6915C",
"c  c #CA945D",
"v  c #D49254",
"b  c #DC9453",
"n  c #DF9857",
"m  c #D3955A",
"M  c #D99759",
"N  c #D5995F",
"B  c #DD9A5C",
"V  c #E28C43",
"C  c #E08F4A",
"Z  c #E18F49",
"A  c #E59047",
"S  c #E19049",
"D  c #E39048",
"F  c #E1914A",
"G  c #E0914B",
"H  c #E1914B",
"J  c #E59148",
"K  c #E79249",
"L  c #E4924A",
"P  c #E0914C",
"I  c #E2934F",
"U  c #E4934D",
"Y  c #E6944C",
"T  c #E3924B",
"R  c #E9954C",
"E  c #EA954C",
"W  c #EB964C",
"Q  c #E9944A",
"!  c #E69650",
"~  c #E69651",
"^  c #E49752",
"/  c #E79752",
"(  c #E09655",
")  c #E19755",
"_  c #E29653",
"`  c #E89750",
"'  c #E89750",
"]  c #E39854",
"[  c #E29856",
"{  c #E49956",
"}  c #E59956",
"|  c #E49956",
" . c #E89852",
".. c #E99A55",
"X. c #E19958",
"o. c #E39B5B",
"O. c #E39C5B",
"+. c #E29B5B",
"@. c #E99D59",
"#. c #E99E5A",
"$. c #EAA15E",
"%. c #CA9660",
"&. c #CD9761",
"*. c #CD9760",
"=. c #CB9660",
"-. c #D19962",
";. c #D29A63",
":. c #D49B63",
">. c #D59D64",
",. c #D49B63",
"<. c #DB9C60",
"1. c #DA9C61",
"2. c #DC9C60",
"3. c #DD9D61",
"4. c #DD9E62",
"5. c #DF9F63",
"6. c #D99F65",
"7. c #DC9D61",
"8. c #D69F68",
"9. c #D69F68",
"0. c #E09F62",
"q. c #DBA067",
"w. c #DCA066",
"e. c #DEA064",
"r. c #DAA26B",
"t. c #DAA36B",
"y. c #DBA36B",
"u. c #DEA268",
"i. c #DCA36A",
"p. c #DCA36B",
"a. c #DEA46B",
"s. c #DBA36C",
"d. c #DCA46C",
"f. c #DEA46C",
"g. c #DEA56C",
"h. c #DEA56D",
"j. c #DEA76F",
"k. c #DBA36B",
"l. c #E3A265",
"z. c #E8A263",
"x. c #E9A363",
"c. c #E1A469",
"v. c #E3A66A",
"b. c #EAA768",
"n. c #E0A86F",
"m. c #EBA868",
/* pixels */
"z y.y.y.N @ q.w., m t.r.t.h > g.B # q.r.r.t.q g g.v 6 i.t.t.w.# N t.r y i.r.r.N O q.w.6 m t.r.t.z > v.B # q.y.r.t.q g g.v q t.y.y.q.# N i.y ",
"y.3 1 - V 6 b f 6 4.1 1 1 d 6 _ f 9 O.1 1 2 p y f s x G 1 1 V q v f r :.3 - 2 V 6 b f q 4.1 1 1 a 8 b f 0 [ - 1 2 u y f s x d 1 1 5 q v I p ",
"r.- = = 3 O z c > B - = = a O =.g 7 ( $ $ - w ; *.8 x i $ $ 2 # e *.> :.1 - $ i + x c > 7.- $ = i O c k 7 [ $ - 1 r ; *.e x a $ $ 2 : e c 6 ",
"r.2 = = 3 k +.V y 4.- $ = a c I D k [ $ = 1 u >.V f c D $ $ 2 y e.a s :.2 $ = 3 g O.V t 4.= $ - a c I D g [ $ $ 1 u :.D f c V = $ 2 y w.V f ",
"6 f V 1 V k f 2 , q Z V 1 d c i 3 # s G 2 2 s >.1 a @ f A 1 V y B - w : f V = D k b 1 < q L 3 2 f c i 3 # s D 4 5 s :.1 i @ f V 2 V t 7.- a ",
"h y w R s v 5 4 q h y d W w n 2 5 : v r I Y r } - a 6 v r K G y Y = u t y s W s v i 1 q v y s W r n 1 3 : v r G R q } = a 8 v r K G w Y - d ",
"j.~ b e 6 } - 1 y v.Y v 6 y I $ 5 k x.^ h : v i $ 3 c @.b t : n 2 = s r.^ b r 6 } - 2 y c.~ v 6 t Y = 5 k x.] h : v V $ i c @.] t : [ 1 - s ",
"b 3 V _ j Y 1 V r f 2 V M c V 2 V q G 2 L h 7.2 2 f t a 3 ' g O.2 4 s s 4 5 ] j W 1 V q f 2 V b c V 2 V e a 2 L z 7.2 2 f t V 2 ^ g O.2 2 f ",
"X y y e @ q r y o # y y 6 : q r y   q t y > , q y q X q y y ; q q y & X t y r ; q r r o # y y 6 : < y y X q y y ; q q y q X q t t ; q q y q ",
"N 7.7.B B : l.l.q N 2.4.4.l e l.B q 7.B 7.+.r z l.v e w.B 7.+.: 7.l.y h 5.B 1.M : l.l.q 7.B B 4.v 8 l.B 6 w.7.B e.q z l.b e w.B 7.+.: B l.s ",
"t.1 - $ 5 # w s : 7.= = = a : s w 8 b $ - - w : s q x a - $ 2 & q s : :.2 = $ V @ s s ; 4.= = = a @ s w 8 b $ = 1 u 6 s q x a = $ 2 , r s q ",
"r.1 $ - i : :.N 6 1.= = = a > >.m 0 b $ = 1 u t q.h x a = $ 2 q z >.r ;.1 = = i : :.:.6 e.= = = a 6 7.m 0 b $ = = p t :.h x i - $ 2 q z >.y ",
"q.3 - $ 3 k b 2 y +.1 - = a *.a 3 g } 1 $ 1 u q.2 a c G = - 2 y 5.2 p N V = = 3 k b 2 r +.2 = = a c a V g } 1 $ 1 w >.2 a j K = $ 2 y 4.2 d ",
"O d D 2 D g I 2 , # d D 4 d m i 3 O q D 5 5 y N 1 i O p G 3 V y B - w O d V 2 G g _ 2 , # d V 2 d c i 3 + q f 5 5 u >.1 a O u K 5 V y B = d ",
":.b y T u M 2 2 r B h s Y q X.- 3 e $.y f T t ! - a t B y f d h V - p m m w ~ u b 3 2 q 4.z s I q [ 1 3 e B y f T t ] - i k B y f d z V - d ",
"g.V b t 8 _ - 1 y q.Z b 6 k V = 3 k B D l 7 m 2 = i =.Y I y > X.- - s >.V ( t 8 ~ = 1 y e.V b 8 h D $ 3 k X.D l 7 M 2 = i c Y _ h > X.- = d ",
"s 5 3 I g ^ 3 V q a 3 V f z D 3 D , a 3 K y B V 3 d q a 3 R t O.5 5 s r a 3 I g ^ 2 V q s 3 V f c D 3 D : V 3 D y B i 5 d q V 3 W t +.i V d ",
"X k k g 6 O t g X : k g 9 > # g e   6 k k 8 # : k q   t g k 8 + 6 g # O g g g 6 + t g X # k g 0 : + g t   e k g 7 # : g q   e k g 8 + 6 g : ",
"q.n b b [ q x.$.r 7.( ( b b t x.#.e l.( ( } w m x.b g $.b b } q l.$.s N X.b b } e l.$.r w.( b ( b t x.@.e l._ b } s m x.b k +.b b } q 0.$.b ",
"t.1 $ $ 3 O q t ; 4.$ = $ a . t q 7 b $ = - w O t 6 0 a $ $ 2 & : y + ;.1 $ $ 3 + q t ; B $ $ $ a . t q 7 b $ $ 1 u O y : j a = $ 2 & > y + ",
"t.1 $ - a e e.B t 4.= = = a g 0.n g ( $ = - u c B v c a $ $ 2 q N $.y >.1 - $ i 8 l.B t B - = = a t e.B g b $ = 1 u z 4.b x a $ = 2 q 7.+.l ",
"m D 1 $ 3 j I 2 q B 5 = = a =.i 3 t ( 4 - - s >.1 a g ! 1 - 4 t 4.= s z D 1 $ 3 x b 2 q B 5 - = d %.i 3 t ^ 2 - 1 s >.1 i g Y 2 = 4 y 4.- d ",
"+ r T V f h f 2 & # s Y V s m 3 3 O q s K V w B 1 a . w f V G y X.= w O u f 5 f h f 2 < # s L V d m 2 3 O q s L V u B 1 a . r d V K r X.- d ",
"i.$.y d < n 1 2 r v.M y d q } = 3 g m.v s s y U $ a z z.v s u v V - p 7.#.y d w B 1 2 q l.B y d q [ = i t m.v s s y G - a z x.h s w v V = d ",
"w.2 f y 0 Y - 2 y M 2 f t z V = 3 g _ 4 b 8 B 2 = a x V V v 9 O.- = s m 4 G z g Y - 2 t M 2 f g c V $ 3 g b 3 b 8 B 2 = a z V V v 7 @.= 1 d ",
"< a a f 8 _ i a < w a a s g d a a # a i d r v a i d # a i G 6 b a a w & i i f 6 I 3 a < w a a s y G i a # a i d q m a i d # a a G 6 b a a s ",
"6 c c c t . x z + e c c x e O c g X k x =.x # > c r X z c c k O g c # : c c x g O j z O e c c c e O c k X g =.c x # > c e + x c c k O t c q ",
"y.G a a I q $...t w.a a a f g #.^ 0 $.i a V s v } b x [ a i G r B ..s >.I a a L 8 $.} r e.a a a f g #.[ e @.i a G s v @.f x [ a a L q B @.d ",
"y.1 = $ i O e g ; B $ = = a . g e 7 _ $ $ - w O x > x i = $ 2 & > k O ;.- $ $ i O 8 g ; 0.= = = i . g e 7 _ $ = - w O j > j a $ $ 2 # : g @ ",
"y.1 = = 3 t l.^ g 7.$ - - i z O._ k b $ $ 1 p ;._ I c i $ = 2 q 0._ l >.2 = = 3 t l.^ y 4.= = = i x X.] k ( $ = - p :.[ I c a $ $ 2 r e._ f ",
"y L 2 = V k f 1 q s L 1 - a =.i 3 : f V 1 1 s >.- i 6 I 5 - 3 y B = u t L 3 = V g b 1 q l A 1 = a c i 3 : b V - 1 s >.- a 6 I 5 - 3 t B - a ",
"6 r d K f h a 2 < 6 r G D p M 2 3 # r y L K w X.- a ; y s K G y ] - u # r d K d v a 1 < q r G R s m 2 3 # r w R K w X.- a @ r s R L y ] 1 s ",
"n.} v r q X.= 2 y n.} l r r ^ = 3 g b.] y q y D - i c $.b y 6 b 4 = u 6.#.v w , } - 2 y v.} h r r ~ = 3 k x.n y q s V - i c x.b y q b 2 - d ",
"B 2 V M j W - 4 r b 2 V v c V = V t G 4 K g e.2 - a z V 3 b 0 O.- 2 s m 4 V M j ' = 4 r b 2 Z l c V = V e I 2 I g 7.2 - a k a 3 b g O.1 2 a ",
"% u s s > s u s # * s s q e p p p X < s s 6 w p p r X u p s : s u s , o s u s : s u s # & s u r q p p s X w p s 6 w s s u X u p s ; s u s w ",
"h -.-.>.v O :.:.# h -.-.>.y : >.m + c >.>.:.6 t q.y : >.-.>.N # z 6.q y >.-.-.m O :.1.# z >.-.>.g : >.m # m >.-.>.: t >.h # >.>.>.N + z >.t ",
"t.2 1 1 V 6 b f e 4.- 2 2 a e b f 0 X.1 1 2 p y f p x G 1 1 3 q v I q ;.3 - - Z : b I 6 1.2 2 - a e _ d 8 X.1 1 4 s y I p x f 1 1 5 q v f u ",
"r.2 = = 5 O k z ; 1.= = = a O =.h 7 b $ $ 1 w ; *.t x a $ - 2 # e *.: ;.- = = a @ k z > 1.= = = a O c k 9 [ $ $ 1 < 7 c e x i $ $ 2 & 9 c 6 ",
"y.3 = = i k #.V y 4.- = = i c I D g [ - $ 1 p :.a f x D = $ 1 y 5.a s :.3 = = i g +.V y 2.- $ = i =._ V g ( $ $ = u >.a f x f $ $ 2 t e.a f ",
": f a - V k b 1 , q L i 1 d c i 3 # s D 2 2 s >.1 i @ f V 1 V y B - u : Z V - V g _ 2 , q L V - d c i 3 ; s L 4 2 d >.1 a + f A 2 5 t B - f ",
"h y w ' s v a 2 q l y s W w B 1 3 6 v t G R q } - a 6 v r L G y U = p t h p Y s v V 2 q h y s W w n 1 3 : v r I R q } = a 8 v r K f y I 1 a ",
"n.' b e q } = 2 y i.Y v q g U = 3 g z.Y y 6 v V = a =.#.[ t : B 2 - p 8...b e : ..= 2 y v.Y v e t I $ 5 k x._ h 6 v 5 $ a c #.] t : X.1 - d ",
"M 4 4 ~ j Y 1 5 r f 2 V b c V 2 V q G 2 L z 7.3 2 a y V 4 Y g +.4 4 s s 4 4 ] j ~ 1 5 r f 2 V b c V 1 V q f 2 L z B 3 2 a t V 2 ' g @.4 3 s ",
"o r y t ; w r y o # y y 6 > q w t   q y w ; , q r q   r y y ; q q y # o r y t ; q r y o # y y 6 : w y r   q y y ; q q t q X q y t ; q q y < ",
"m 4.2.1.B : w.l.q N 4.B 4.v e v.0.q 5.7.4.4.r z v.b e w.B 4.+.: 1.l.y z 0.2.2.n : l.l.q N 2.4.4.s e v.B q w.4.B B r z l.b e e.B B $.: N i.s ",
"r.2 = = 5 # w p ; 7.- = = i ; s w 7 b = - - u : s q j a = $ 3 & r s : -.2 = $ V : w p > 4.= = = a ; s w 7 ( $ = 1 w 6 s q x a - $ 4 6 q s q ",
"r.- = = 5 : >.1.6 7.- = = i 6 >.m 9 b = = - w t >.h x i = = 2 q z :.r -.- = = i : N :.6 B = - = a 6 6.m 9 b $ - 1 u 0 >.h x i - $ 2 q c :.y ",
"6.V = = 3 j ( 2 y B 1 = - a c a V g } - = - s >.2 d z G - = 2 t 4.2 s m V = = i k b 4 r B 2 = = a =.a V g } = $ 1 p >.2 a z G - $ 2 y B 1 f ",
"@ d V 3 D g f 1 < # f A 2 f c 3 3 O q I V 5 w :.1 a O u G 4 V y B = u O d J 2 G g b 1 < # a A 2 d c i 5 O q f V 5 p :.1 i O w G 2 D y O.= f ",
"B m w I u M 3 2 e B z s K q X.= 3 e +.y d G r ~ = i k B y f d l D 1 u m M y T u b 2 2 q 4.z s I q X.- 5 e l.y d I r Y - a g O.y I s y D 1 a ",
"t.V _ e 8 ! $ 2 t e.D b 6 h D $ 4 k X.V v 8 M 2 - i c I I y > X.1 = p :.D f t 8 ] $ 2 y e.V b 8 k V $ 3 g X.L l > m 3 = i c I Y h > X.- - a ",
"s V i ~ g ! 3 A q a 3 5 f c D 3 L , d 3 D y B V 3 d q V 3 Y g X.5 5 p r V 3 I g ^ 3 D q a 5 a f z D 3 D q V 2 D y B 5 5 d q V 3 Y t O.3 i f ",
"+ k k 0 > + t g X # k g 0 ; @ g e   8 k k 7 # : g 6 X 9 g g 8 # q k + X g g g 6 + t g X # k k 0 : # g t   6 k k 8 # : k 6   t g k 6 O 6 g : ",
"6.[ b b [ q l.$.t e.b ] n f h x.#.9 l.( _ [ s m x.b k +.b b } q e.$.l N B b b [ 6 x.$.t w.[ b _ b t x.@.e l.b b } w m $._ k +.b b } q l.$.b ",
"y.- = $ 3 O q y @ B = $ $ i . t q > b $ $ = w O y : j a $ $ 1 & : y @ ;.1 $ $ 3 O q t @ B $ = = i . t q 7 b = $ 1 w O y : j a - $ 2 # : y @ ",
"y.1 = = i e w.B t 7.= = = s t l.n g _ $ - 1 p c +.b c a $ - 2 q 7.B y >.1 = = 3 e e.B t 4.= = = a g e.n g b = = 1 u c 0.v x a $ - 2 q 7.+.v ",
"N D = - 5 j f 1 r M 5 = 1 a %.i 3 t ] 2 $ 1 s >.1 i g W 4 = 3 y 7.= p z D 1 $ 5 k b 1 r B 5 = = a c i 3 r ^ 4 = 1 p >.2 i g Y 2 = 4 w 4.= d ",
"O u G 5 G h G 2 : # p R 5 d m 3 i + q s A A w B - a . r d V V t X.1 w O u G 5 G h G 1 , + p L V s m 3 3 O q s K D w B = a . r f V D y X.1 d ",
"v.+.y f w n 1 2 r l.M y s q [ - 3 t m.v s s y Y - i z l.l s w v V = s 7.+.s f w B - 2 r v.M y d q } = V g x.v y s y Y = a z l.s v u v i = a ",
"q.3 D z 0 I $ 2 y B 4 f g z V $ 3 g ( 3 f 7 B 2 = a c V V v 9 } = 1 p N i d h 0 ~ $ 2 y B 4 I t z V $ 3 g ( i f 8 B 2 = a c V V v 7 O.- 1 a ",
"< i a f 8 I i D & w a V s t f i d # i i G q v a i s # a i Z 6 b a a w & a i f 8 f i d , w a V s h d i f # i i d r v a a s # i i G q b a i s ",
": c c c t O j c o e =.c c e O c g X g c c c # > %.e O z %.c j + t c & : c =.c t O j z + e =.=.x 6 ; c h X g c %.x # 6 c e O c c c j O t c q ",
"t.d a a I e #.^ r w.a a a f g #.} g #.a a Z s v @.f z [ a a L q B ..w >.Z a a Y e #.] r 4.a a a d g @.^ g #.a a d s m } f x ^ a i L q B @.f ",
"y.1 = = i O e g ; 4.= = = i . g e 7 ( $ = = w O k > j a $ $ 4 & > j @ ;.1 = = i O e g ; 2.$ = = a . g e 7 ( $ = = u O z > j a = $ 2 & > k @ ",
"r.2 = = 3 g 0.~ g 4.$ = = i z +.( k b $ = 1 u N ^ b c a - $ 2 r w.~ s >.2 $ $ 5 g l._ y 4.- $ = a z X._ k b = - 1 p N ( f c a = = 2 r w._ f ",
"y G 2 - V g b - q s D 1 1 a c i 3 6 f V 1 1 s :.1 i 6 T 5 - 5 t B = p t L 2 = V k f 1 q s D 1 = d =.i 3 : f V - 1 s ;.1 a 6 I 5 - 5 t B = d ",
"q r d K d h V 2 q q r I K p M 2 3 + r r ' R r X.= a @ y s D L y ^ 1 w : r s W d v D 1 q q y G R s M 2 3 # r r L R r O.= a ; r s D D y _ = d ",
"g.#.v y q X.- 2 y v.[ l r r ~ $ 3 k m.[ y q y D - i c x.b y 6 b 4 = p q.@.v y , [ = 1 y v.} h r q ^ - 3 k m.X.y q s G $ a c x.b y q b 3 1 d ",
"B 2 V b j Y - 3 r b 2 Z z *.V = i t I 2 G g B 2 1 a h a 3 b 0 O.= 2 s v 2 a b x I = 4 y b 1 V z c i - V t I 1 G g B 1 1 a k i 3 _ 0 O.1 1 d ",
"& a d s 6 I a d & * d a w r d d f + u a a q l f a s o a a f 6 f a f w % d a s 6 ] a f # < a d u y f a f o u a f q v f a s o a a d : b a d p "
};
