/* XPM */
static char *result[] = {
/* columns rows colors chars-per-pixel */
"70 70 248 2 ",
"   c #261F1A",
".  c #2D221C",
"X  c #27231F",
"o  c #31251E",
"O  c #3A2D1F",
"+  c #2E2A26",
"@  c #2A2623",
"#  c #342B23",
"$  c #3A2D25",
"%  c #332A25",
"&  c #35302C",
"*  c #3C332B",
"=  c #3B3026",
"-  c #3F3830",
";  c #473C1D",
":  c #433226",
">  c #42352B",
",  c #4A3828",
"<  c #483C33",
"1  c #533D2F",
"2  c #554628",
"3  c #4B4239",
"4  c #584836",
"5  c #544930",
"6  c #624B39",
"7  c #675435",
"8  c #68562F",
"9  c #776539",
"0  c #584E46",
"q  c #6A5848",
"w  c #6E5D4F",
"e  c #746446",
"r  c #78675A",
"t  c #736658",
"y  c #776C62",
"u  c #8B1916",
"i  c #B8160E",
"p  c #B81811",
"a  c #AD1510",
"s  c #91251D",
"d  c #AF271B",
"f  c #933428",
"g  c #AE3529",
"h  c #C41A12",
"j  c #CC1B12",
"k  c #C81F18",
"l  c #DC1C13",
"z  c #D41C12",
"x  c #C3180E",
"c  c #E31D13",
"v  c #F31C18",
"b  c #D9271B",
"n  c #CD2119",
"m  c #EB2319",
"M  c #FC241A",
"N  c #F6251A",
"B  c #D23629",
"V  c #F13026",
"C  c #A64E39",
"Z  c #936C39",
"A  c #A6662E",
"S  c #A76834",
"D  c #B36E33",
"F  c #BA7437",
"G  c #A7783E",
"H  c #934034",
"J  c #F44636",
"K  c #C77B39",
"L  c #CC623B",
"P  c #D7513D",
"I  c #897646",
"U  c #977A44",
"Y  c #897453",
"T  c #AF6F4D",
"R  c #86786B",
"E  c #867B72",
"W  c #A75948",
"Q  c #DC4D4E",
"!  c #DC4F50",
"~  c #D5584E",
"^  c #E44C4E",
"/  c #EA4D4F",
"(  c #ED4E51",
")  c #E64E50",
"_  c #E55253",
"`  c #EC5355",
"'  c #EC595A",
"]  c #F35355",
"[  c #F45A5B",
"{  c #FB5B5C",
"}  c #F75658",
"|  c #D16F50",
" . c #E56758",
".. c #EF6F5C",
"X. c #FF6465",
"o. c #FF6C6C",
"O. c #F96863",
"+. c #F77768",
"@. c #FF7473",
"#. c #FF7978",
"$. c #FF7976",
"%. c #E97E62",
"&. c #E46E65",
"*. c #D6853D",
"=. c #CC813C",
"-. c #E38D3E",
";. c #99854A",
":. c #9C8854",
">. c #A5884C",
",. c #AB9454",
"<. c #AF9855",
"1. c #AE995B",
"2. c #A99458",
"3. c #B49B53",
"4. c #B99E54",
"5. c #B29D5C",
"6. c #B69656",
"7. c #AF8D50",
"8. c #BCA255",
"9. c #BBA35A",
"0. c #B7A15C",
"q. c #978979",
"w. c #92826D",
"e. c #B49D65",
"r. c #AC946D",
"t. c #B6A262",
"y. c #BBA664",
"u. c #BEA965",
"i. c #BDA969",
"p. c #B7A369",
"a. c #BBAA74",
"s. c #C88B4B",
"d. c #C59755",
"f. c #D48E55",
"g. c #EA9349",
"h. c #C2A55A",
"j. c #C4AA5C",
"k. c #C7A75A",
"l. c #D4AF5D",
"z. c #E7AC5B",
"x. c #C99765",
"c. c #D5976F",
"v. c #E88965",
"b. c #E69566",
"n. c #FE8477",
"m. c #F29174",
"M. c #C5A662",
"N. c #C3AC63",
"B. c #C3AE6B",
"V. c #CAAB66",
"C. c #D2AD65",
"Z. c #CCB264",
"A. c #C6B16C",
"S. c #CBB56C",
"D. c #CFB86D",
"F. c #D3BA6D",
"G. c #D6B967",
"H. c #CBB671",
"J. c #CEB973",
"K. c #C6B478",
"L. c #D3BD74",
"P. c #D4BE79",
"I. c #D8B675",
"U. c #C5AC78",
"Y. c #E3B768",
"T. c #EAB777",
"R. c #F2A875",
"E. c #DCC26C",
"W. c #DBC375",
"Q. c #DAC57A",
"!. c #DEC97C",
"~. c #D6C177",
"^. c #E5C66C",
"/. c #E4CA73",
"(. c #E3CC7D",
"). c #E6C973",
"_. c #ECD47C",
"`. c #ECD278",
"'. c #F4DB7D",
"]. c #F2D47B",
"[. c #F2C875",
"{. c #978C82",
"}. c #9C9389",
"|. c #A79989",
" X c #A79D92",
".X c #B6A992",
"XX c #BBB2A6",
"oX c #D7A885",
"OX c #CDBB88",
"+X c #D5B788",
"@X c #D0B893",
"#X c #E8A985",
"$X c #FBB999",
"%X c #ECB88E",
"&X c #C4BAA8",
"*X c #C6BEB1",
"=X c #E29D85",
"-X c #D9C586",
";X c #D9C799",
":X c #CEC394",
">X c #E3CF83",
",X c #EBD482",
"<X c #EED984",
"1X c #E8D486",
"2X c #F3DC84",
"3X c #F6DA86",
"4X c #F7C39D",
"5X c #E8D695",
"6X c #F4CA8E",
"7X c #FAE285",
"8X c #F5E28B",
"9X c #FAE58A",
"0X c #FDEA8C",
"qX c #F8E386",
"wX c #FCEC92",
"eX c #F9EA98",
"rX c #FFF294",
"tX c #FEF69C",
"yX c #D7CAA6",
"uX c #DAD3A9",
"iX c #D8CDB7",
"pX c #D2C9B5",
"aX c #FCC4A5",
"sX c #E8D9A7",
"dX c #E6D9B6",
"fX c #F6D2AE",
"gX c #F8EAA7",
"hX c #EDE5B5",
"jX c #F4EDBC",
"kX c #F5E7B9",
"lX c #F9F1BA",
"zX c #F3ECA8",
"xX c #D8D2C7",
"cX c #E6DDC7",
"vX c #E4DFD5",
"bX c #EBE2C8",
"nX c #F9E9C8",
"mX c #FAF4C3",
"MX c #FCF6CA",
"NX c #ECE6D5",
"BX c #F4ECDA",
"VX c #FCF8D6",
"CX c #F3EFE6",
"ZX c #F8F5E6",
"AX c #FFFFFD",
"SX c #F9F8F3",
"DX c #ECE9E3",
"FX c None",
/* pixels */
"FXFXFXFXFXFXFX].2X<X<X8X8XeXFXFXFXFXFXFXFXFXFXFXFXFXFXFXFXFXFXFXFXFXFXFXFXFXFXFXFX2X_.<X<X8X8XwXFXFXFXFXFXFXFXFXFXFXFXFXFXFXFXFXFXFXFXFXFXFX",
"FXFXFXFXFX`./.!.W.L.~.W.!.<X8XFXFXFXFXFXFXFXFXFXFXFXFXFXFXFXFXFXFXFXFXFXFXFXFXFX`.(.Q.W.~.~.!.<X3XwXFXFXFXFXFXFXFXFXFXFXFXFXFXFXFXFXFXFXFXFX",
"FXFXFX`.).L.F.A.i.p.p.p.B.D.(.8X9XFXFXFXFXFXFXFXFXFXFXFXFXFXFXFXFXFXFXFXFXFX/.L.L.H.S.N.i.u.A.H.Q.,X2X0XFXFXFXFXFXFXFXFXFXFXFXFXFXFXFXFXFXFX",
"FXFX^.F.D.B.i.e.,.>.>.>.1.t.K.!.3XFXFXFXFXFXFXFXFXFXFXFXFXFXFXFXFXFXFXFXFXFXZ.A.A.A.N.3.>.>.>.5.y.H.!.<X9XFXFXFXFXFXFXFXFXFXFXFXFXFXFXFXFXFX",
"FXE.F.A.B.N.6.U S A A A U 2.p.H._.2XFXFXFXFXFXFXFXFXFXFXFXFXFXFXFXFXFXFXFXG.N.B.A.N.7.A A A A S >.t.H.Q.,X2XFXFXFXFXFXFXFXFXFXFXFXFXFXFXFXFX",
"FXZ.B.A.A.6.D D D D S A A G 5.B.(.3XFXFXFXr .XeXr.r r Y y r r.gX.XFXFXFXFXS.B.D.Z.s.K K F F D A A U e.B.!._.FXFXFXFXFXFXFXFXFXFXFXFXFXFXFXFX",
"Z.N.B.K.h.D F K F D D A A A 7.i.-X8Xq.r t q K.0Xp.4 0 6 6 q U.tXA.w r R r.>X~.W.l.=.*.=.=.F F D S Z >.i.L.(._.FXFXFXFXFXFXFXFXFXFXFXFXFXFXFX",
"N.u.B.J.6.K K F F K K F F D 4.!.3XwXM.7 6 Y <X0X<X:.4 1 6 U 3XrX<XY q e OXtXzX8XY.-.*.-.*.=.=.K F A Z y.S.W./.FXFXFXFXFXFXFXFXFXFXFXFXFXFXFX",
"N.N.H.L.d.=.=.=.K K =.F =.z.'.0X7X7X'./.~._.7X7X9X2XD.y.L.8X0X0X0X2X!.>XrXrXtXtXtX[.g.-.-.-.-.=.F D U y.A.W./.FXFXFXFXFXFXFXFXFXFXFXFXFXFXFX",
"h.y.B.L.k.=.=.*.*.*.*.g.`.'.7X'.'.'.7X'.7X2X`.'.'.7X9X9X0X9X9X0X0XwX0XrX0XrX0XtXtXtX0XY.g.g.-.*.K D 6.i.A.~.E.FXFXFXFXFXFXFXFXFXFXFXFXFXFXFX",
"j.5.B.I.L.l.*.-.*.g.^.'.'.'.'.'.'._.`._._._.l.^.2XqX2XqXqXqXqX9X9X9X9X9X7X'.[.0XrXrXtXtX3Xz.*.=.F 7.A.i.A.D.G.FXFXFXFXFXFXFXFXFXFXFXFXFXFXFX",
"FX0.5.B.D.P.l.s.z.].'.`.`.`.`.`.E.G.l.h.l.l.l.).].2X3X8X3X3X3X8X2X).^.^.^.^.^.3X0X0XrXrXtXwXY.s.6.i.i.u.u.Z.FXFXFXFXFXFXFXFXFXFXFXFXFXFXFXFX",
"FXFX3.5.u.~.(./.`.`.`./.`.`.E.G.;X.X8 2 5 U d.^.,X,X<X2X3X3X8X`.G.sXiXI 6 9 7.[.7X0X0XrXrXrXrX<XW.K.N.9.9.FXFXFXFXFXFXFXFXFXFXFXFXFXFXFXFXFX",
"FXFXFX4.3.N././.`.^././.^.^.l.dXBXw O # + = e h.W._._.,X<X3X_.C.dXAX|.: * $ > I ^.7X0X0XrXrXrXtX8XL.9.9.FXFXFXFXFXFXFXFXFXFXFXFXFXFXFXFXFXFX",
"FXFXFXFXj.E.^.^.^.^.E./.W.l.;XAXXX: + + + + * >.C.(.,X,X2X<XF.%XSXSXY > & & & > >.^.0X0X0X0XrXrXtX<XFXFXFXFXFXFXFXFXFXFXFXFXFXFXFXFXFXFXFXFX",
"FXFXFXFX^.^.^.^.E.E.E./.E.M.BXAXq.= + + + + % 7 h.(.(.,X<X2XC.bXAXCXw * & & & & 6 l.'.0X7X0X0X0XrXrXrXFXFXFXFXFXFXFXFXFXFXFXFXFXFXFXFXFXFXFX",
"FXFXFXFX^.E.^.E.E.E.E.E.Z.OXAXSXy O + + + + + 6 4.W.(.,X,X_.V.CXAXSXt : & & & & : 7.`.8X0X0X0X0X0X0X9XFXFXFXFXFXFXFXFXFXFXFXFXFXFXFXFXFXFXFX",
"FXFXFX^.G.G.G.G.E.G.E.~.k.uXAXSXr O + + + + = 2 6.L.(.,X,X(.C.CXAXAXq., & & & & : I ).9X7X7X7X0X0X0X0X9XFXFXFXFXFXFXFXFXFXFXFXFXFXFXFXFXFXFX",
"FXFX/.G.G.Z.G.G.G.D.G.W.4.dXAXAXq.$ # + + % = 8 6.H.!.(.>X(.M.BXAXAX*X1 * & & & > Z Y.qXqX9X0X0X7X7X7X7XqXFXFXFXFXFXFXFXFXFXFXFXFXFXFXFXFXFX",
"FXFXF.G.f.b.z.l.Z.G.F.L.6.yXAXAXcX4 O # % # 1 :.6.L.(.>X>X(.k.cXAXAXSXw., : * * , U G.2X3X7X9X3X6X6X].7XqXFXFXFXFXFXFXFXFXFXFXFXFXFXFXFXFXFX",
"FX/.Y...{ { ....b.Z.S.F.4.U.SXAXAX*Xq , 5 w XX@Xd.~.!.Q.!.(.k.yXAXAXAXCX|.q 2 6 w.A.I.2X3X3XR.m.n.$.n.R.6X'.FXFXFXFXFXFXFXFXFXFXFXFXFXFXFXFX",
"FXY...} [ { { } [ v.C.D.S.,.bXAXAXAXDXxXxXSXBXe.M.P.Q.!.Q.(.I.V.CXAXAXAXAXDXxXvXbXC.).2X6X#Xn.#.$.$.#.@.m.].FXFXFXFXFXFXFXFXFXFXFXFXFXFXFXFX",
"FXv.{ } ] [ { } [ { v.Z.L.4.e.NXAXAXAXAXAXCXa.6.S.P.P.Q.Q.>X(.M.+XZXAXAXAXAXAXCXI.C.,X3X#X#.#.#.$.$.#.#.@.R.FXFXFXFXFXFXFXFXFXFXFXFXFXFXFXFX",
"T.+.} ] } ] ] ' [ [ ..c.F.I.6.r.yXbXBXNXpXe.6.H.P.P.P.P.P.Q.!.(.M.U.iXBXCXNXdXU.V._.'.%Xn.#.#.@.$.#.$.@.@.n.FXFXFXFXFXFXFXFXFXFXFXFXFXFXFXFX",
"Y.X.} ] ` [ [ ] [ [ X.%.V.H.I.M.,.1.e.7.6.9.D.L.P.P.P.P.P.Q.Q.-X>XF.M.M.M.x.M.F.(.,X,X#X$.$.#.#.#.#.@.@.@.+.T.FXFXFXFXFXFXFXFXFXFXFXFXFXFXFX",
"v.{ } } ] ] ` [ ` [ [  .x.B.S.D.D.D.D.I.J.J.H.P.L.Q.L.P.Q.Q.Q.Q.(.,X,X(.(.(.(.,X,X,XR.n.$.@.$.#.$.#.@.@.o.o.R.FXFXFXFXFXFXFXFXFXFXFXFXFXFXFX",
"+.{ } ] ` ` ` ` [ [ [ O.f.B.A.A.S.J.H.H.A.S.H.H.K.L.P.P.Q.Q.Q.~.P.!.(.>X-X(.!.(.(._.R.$.@.@.$.#.@.@.@.@.o.o.m.FXFXFXFXFXFXFXFXFXFXFXFXFXFXFX",
"v.} } ] ` ` ` ` ' ' ' ' %.M.Z.B.A.B.S.B.B.B.H.H.H.I.H.H.K.P.L.P.Q.Q.Q.!.(.(.!.(.(.6Xm.$.$.@.@.@.$.$.@.@.o.o.v.FXFXFXFXFXFXFXFXFXFXFXFXFXFXFX",
"+.{ ] ] ( ( ` ` ' ' ' ' &.e.B.B.B.B.B.B.B.B.H.H.H.H.J.H.P.L.P.J.Q.Q.!.!.!.!.!.(.(.T.n.@.@.@.@.@.@.@.@.o.o.X.v.FXFXFXFXFXFXFXFXFXFXFXFXFXFXFX",
"+.{ ] ] ( ( ) _ _ ' ' '  .x.N.i.B.B.i.B.B.B.B.B.H.H.H.J.P.P.~.L.W.!.Q.Q.Q.!.W.!.(.T.n.@.@.@.o.@.@.@.@.o.X.X.+.FXFXFXFXFXFXFXFXFXFXFXFXFXFXFX",
"+.{ } ] ( _ _ _ _ _ _ '  .x.y.y.N.i.i.i.i.B.i.i.A.S.H.H.J.P.H.J.L.Q.Q.W.~.Q.W.(.!.T.$.o.o.o.o.@.@.@.@.o.o.X.v.FXFXFXFXFXFXFXFXFXFXFXFXFXFXFX",
"FX{ ] ] ` ( ) ) ! _ _ ' ~ x.y.e.y.N.y.N.i.i.B.B.K.H.H.H.H.L.J.J.H.L.Q.L.P.L.L.W./.T.@.o.o.@.o.@.o.o.o.o.o.X.[.wXwXeXtXgXFXFXFXFXFXFXFXFXFXFX",
"FXO.] ( ( ) ) ^ ! ! ! ! ~ 6.t.t.i.t.t.i.i.a.1.2.t.p.e.p.p.p.p.p.B.J.J.D.~.J.E.~./.T.o.o.o.o.o.o.o.o.o.X.X.+.'.9X0X0XwXeXeXeXgXFXFXFXFXFXFXFX",
"FX+.{ ] ( ( ^ ^ ! ! ! ! ~ 6.5.5.t.1.t.t.t.e - & & - - 3 - 3 3 3 4 Y H.H.J.~.~.~.L.Y.+.o.o.o.X.o.o.o.o.X.X.m.'.qX9X9X0X0X0XrXwXeXFXFXFXFXFXFX",
"FXFX{ ] ( ( / / ) ! ! ! | r.5.5.5.1.1.t.1.5 X X + + + & & & & & & e H.D.D.D.Z.E.W.I.n.X.X.X.X.o.X.X.X.X.O.T.2X2XqX8X8X0X0X0XrXwXwXeXFXFXFXFX",
"FXFXO.} ( ( ( ^ Q Q ! ! | 7.1.5.t.1.1.1.t.:.- X X X @ @ + + @ @ 4 p.H.D.H.D.Z.A.F.G.b.X.X.X.X.X.X.X.X.X.R.<X1X2X<XqXqX8XwXwXwX0X9X9XeXFXFXFX",
"FXFXFX%.` ( / ^ ^ Q Q ~ 7.7.,.<.1.1.1.1.1.1.2.9 < + X X X & 5 ;.y.Z.u.E.A.Z.N.Z.D.D.C.+.X.X.X.{ { X.{ b.(._.,X1XsXkXMXVXVXVXVXVXgXwXqXqXFXFX",
"FXFXFXFX..] ( / ^ ^ ~ | ,.3.<.;.8 I <.<.1.1.1.5.1.:.;.;.;.2.0.u.u.u.u.u.N.;.8 ,.Z.Z.G.b.O.{ { { { { v.W.(.5XhXVXNXxX.X{.E E {..XcXnXgX7XFXFX",
"FXFXFXFXFXf.|  .~ ~ 7.6.3.3.,.:.8 ; 9 ;.3.3.2.2.1.1.1.1.8.0.8.4.9.u.8.3.9 O 9 9.Z.9.Z.V.f..... .%.b.~.>XsXVXxXq.q < * $ $ $ : , 4 R cXgX3XFX",
"FXFXFXFXFXFXl.k.k.d.4.4.3.3.,.,.2.9 2 ; 8 9 ;.;.2.2.2.1.3.,.,.3.;.I 8 2 2 ;.9.u.Z.9.9.j.l.k.k.k.Z.H.-XhXBX X0 # # $ $ $ $ * : : : , q iXgXFX",
"FXFXFXFXFXFXFXFXZ.j.8.8.3.3.3.3.<.<.,.Z 8 2 ; ; 2 2 2 8 2 2 2 ; ; 2 9 ;.,.9.8.8.8.h.h.j.9.Z.Z.H.J.-XdXvXw.> # # $ # # & : > > : : : : Y iX6X",
"FXFXFXFXFXFXFXFXFXFXj.8.8.h.8.8.3.<.3.4.3.<.;.;.;.Z I 9 I ;.;.;.3.3.8.3.4.4.8.8.8.9.h.9.j.A.A.H.~.dXvXE & # # % * < t }.XXXXXX{.q , , , |.gX",
"FXFXFXFXFXFXFXFXFXFXFXFXFXj.h.9.8.8.8.8.4.8.8.3.8.3.4.4.3.8.8.4.4.8.3.8.h.8.4.h.9.0.0.0.A.A.A.H.dXcXR $ % % $ 0 {.pXBXBXBXMXnXVXNXq.1 , w dX",
"FXFXFXFXFXFXFXFXFXFXFXFXFXFXFXFXFXFX9.9.d.s.s.4.d.9.8.9.8.8.8.4.=.s.k.9.M.j.h.h.0.1.1.y.A.A.A.;XcXE & o % : y xXBXbXsX1X(._.,X5XgXBXR : 6 @X",
"FXFXFXFXFXFXFXFXFXFXFXFXFXFXFXFXFXFXFXFXV m b b B L s.s.s.L B c V m V FXG.l.9.5.5.<.t.A.A.B.OXcX}.& @ o 3  XbXhX>X!.-X1X5X5X5X_.,XgXpX1 1 .X",
"FXFXFXFXFXFXFXFXFXFXFXFXFXFXFXFXFXFXFXm j n n z z j j b z j c c m m c V g.j.5.5.1.1.i.A.A.A.uXXX3 @ @ q pXbXuXW.Q.5XdXdXpX&XiXkX<X2XuX1 1 @X",
"FXFXFXFXFXFXFXFXFXFXFXFXFXFXFXFXFXFXb x i k j x x x j l l x j z l l j z m s.4.1.1.y.B.A.B.-XiXy X . 0 pXbX-XL.Q.sXcX}.0 < * 4 XXkX'.yX1 4 @X",
"FXFXFXFXFXFXFXFXFXFXFXFXFXFXFXFXFXV i i a n x j x i a p i i j z l c x h l V s.e.t.B.A.B.K.iX}.& . 0 XXcX-XH.L.5XNXy # . % < t |.kX3X&X> q yX",
"FXFXFXFXFXFXFXFXFXFXFXFXFXFXFXFXV h a a a k i i a i s e.f i j z l m l l v M J x.A.A.A.A.uXXX0 X 3 XXbX-XD.D.~.bX X= o o 3 XXhXbXkX8X|.: R FX",
"FXFXFXFXFXFXFXFXFXFXFXFXFXFXFXV j p a p a p p i x x ~ kX~ l N N N N M N M M M J b.H.K.OXiXt X 3 .XiXa.y.N.S.-XcXw . o o {.kX(.,X1XsXw 4 FXFX",
"FXFXFXFXFXFXFXFXFXFXFXFXFXFXFXz p i p i p k i z c l R.MXc.n N M M M M M N M M V x.~.:XiXE + 0 .X:X0.3.3.0.u.;XXX- . o # |.kX>X1XyXr < Y FXFX",
"FXFXFXFXFXFXFXFXFXFXFXFXFXFXFXL p i p x a p p z l B zXMXfXB l v N N N M m v M g.!.uX&Xy 3 y @XJ.9.3.3.,.0.9.;X X+ X . o w pXuX.Xq = e FXFXFX",
"FXFXFXFXFXFXFXFXFXFXFXFXFXFXZ.9.W d p i p p p p h  .lXmXmX| l l m v M M v B g.2X5Xq.0 y .X+XZ.8.8.3.3.7.3.8.:XXX$ . . . % 1 3 : 3 Y FXFXFXFX",
"FXFXFXFXFXFXFXFXFXFXFXFXFXFXh.5.2.T h x h k j j b %XmXmXMX%Xb v N N M M v f.!._._.a..X:XFXV.j.k.8.8.3.3.3.0.OXpXt o   .   o : w r.FXFXFXFXFX",
"FXFXFXFXFXFXFXFXFXFXFXFXFXZ.0.1.2.p.~ g p p p h P kXmXmXMXjXP c m N V J +.+XS.!.'.qXFXFXFXFXFXj.k.h.8.4.,.3.8.-X&Xq.r t r R r.FXFXFXFXFXFXFX",
"FXFXFXFXFXFXFXFXFXFXFXFXZ.9.0.t.p.:X@X@XoXoXx.x.+XhXjXjXmXjX;XR.#X%XfXkXnXhXu.~.(.'._.FXFXFXFXFXN.j.h.8.4.4.3.8.B.P.@XOXOXFXFXFXFXFXFXFXFXFX",
"FXFXFXFXFXFXFXFXFXFXFXFXU 1.y.y.B.yX=Xc.oX@XuXdXhXhXjXjXlXMXmXMXnXfXaXaXaXMXi.B.L.~.3.FXFXFXFXFXFXFXFXFXh.8.8.8.4.8.9.FXFXFXFXFXFXFXFXFXFXFX",
"FXFXFXFXFXFXFXFXFXFXFX< 1 e 2.0.K.pXyX;X%X=XR.%XsXhXjXjXlXlXmX4X$XaXfXVXSXZX:X2.:.I 6 5 FXFXFXFXFXFXFXFXFXFXFXFXFXFXFXFXFXFXFXFXFXFXFXFXFXFX",
"FXFXFXFXFXFXFXFXFXFXFX#   $ 4 :.oX&XyXuXuXsXsXsXsXhXhXjXmXmXmXjXnXVXVXVXBXnX$XI , = $ : FXFXFXFXFXFXFXFXFXFXFXFXFXFXFXFXFXFXFXFXFXFXFXFXFXFX",
"FXFXFXFXFXFXFXFXFXFXFX%     $ T oXc.oXoX@X;XuXsXhXhXhXhXjXmXmXMXmXkXkXfXaXaXaX~ o   o FXFXFXFXFXFXFXFXFXFXFXFXFXFXFXFXFXFXFXFXFXFXFXFXFXFXFX",
"FXFXFXFXFXFXFXFXFXFXFXFXFXFXFXB g r.@X%X=Xc.#X=X+X%X$X4X4X4X4X4X$X4XaXaXnX=XJ M FXFXFXFXFXFXFXFXFXFXFXFXFXFXFXFXFXFXFXFXFXFXFXFXFXFXFXFXFXFX",
"FXFXFXFXFXFXFXFXFXFXFXFXFXFXFXFXa a f H T @XoXU.+X5X4X#X%XaX4XoX%XyX&.C Q z v FXFXFXFXFXFXFXFXFXFXFXFXFXFXFXFXFXFXFXFXFXFXFXFXFXFXFXFXFXFXFX",
"FXFXFXFXFXFXFXFXFXFXFXFXFXFXFXFXFXFXFXs f 1 u u f C C f C W C s f g g d FXFXFXFXFXFXFXFXFXFXFXFXFXFXFXFXFXFXFXFXFXFXFXFXFXFXFXFXFXFXFXFXFXFX",
"FXFXFXFXFXFXFXFXFXFXFXFXFXFXFXFXFXFXFXFXk.T U S S C u 1 s C S Z T 7.M.FXFXFXFXFXFXFXFXFXFXFXFXFXFXFXFXFXFXFXFXFXFXFXFXFXFXFXFXFXFXFXFXFXFXFX",
"FXFXFXFXFXFXFXFXFXFXFXFXFXFXFXFXFXFXFXFXj.8.,.<.9.j.FXFXFXZ.8.2.3.Z.E.FXFXFXFXFXFXFXFXFXFXFXFXFXFXFXFXFXFXFXFXFXFXFXFXFXFXFXFXFXFXFXFXFXFXFX",
"FXFXFXFXFXFXFXFXFXFXFXFXFXFXFXFXFXFXFXFXZ.<.,.1.u.j.FXFXFXZ.0.<.N.E./.FXFXFXFXFXFXFXFXFXFXFXFXFXFXFXFXFXFXFXFXFXFXFXFXFXFXFXFXFXFXFXFXFXFXFX",
"FXFXFXFXFXFXFXFXFXFXFXFXFXFXFXFXFXFXFXFX,.>.:.,.3.>.FXFXFX2.>.2.N.S.Z.FXFXFXFXFXFXFXFXFXFXFXFXFXFXFXFXFXFXFXFXFXFXFXFXFXFXFXFXFXFXFXFXFXFXFX",
"FXFXFXFXFXFXFXFXFXFXFXFXFXFXFXFXFXFXFXFX6 2 4 6 8 5 FXFXFX7 5 7 e 9 7 FXFXFXFXFXFXFXFXFXFXFXFXFXFXFXFXFXFXFXFXFXFXFXFXFXFXFXFXFXFXFXFXFXFXFX",
"FXFXFXFXFXFXFXFXFXFXFXFXFXFXFXFXFXFXFXFX-       o FXFXFXFXFXo @ o : , FXFXFXFXFXFXFXFXFXFXFXFXFXFXFXFXFXFXFXFXFXFXFXFXFXFXFXFXFXFXFXFXFXFXFX",
"FXFXFXFXFXFXFXFXFXFXFXFXFXFXFXFXFXFXFXFXFXX   @ $ FXFXFXFXFXo o # = FXFXFXFXFXFXFXFXFXFXFXFXFXFXFXFXFXFXFXFXFXFXFXFXFXFXFXFXFXFXFXFXFXFXFXFX"
};
