/* XPM */
static char *_053a42d9a854c7dca4f88b608420112l9YSFbV4ziYOVsae[] = {
/* columns rows colors chars-per-pixel */
"70 70 230 2 ",
"   c None",
".  c #691912",
"X  c #751611",
"o  c #463E1C",
"O  c #6A2117",
"+  c #772515",
"@  c #6C2724",
"#  c #4C441E",
"$  c #544A21",
"%  c #594F22",
"&  c #5D5324",
"*  c #655A26",
"=  c #7D5D29",
"-  c #755627",
";  c #6E632B",
":  c #766B2D",
">  c #796B2C",
",  c #746528",
"<  c #7C7131",
"1  c #786D31",
"2  c #871812",
"3  c #941A14",
"4  c #9B1A15",
"5  c #951614",
"6  c #AC1615",
"7  c #A61815",
"8  c #B41616",
"9  c #BB1616",
"0  c #B31D19",
"q  c #B71A17",
"w  c #8B2818",
"e  c #9A2619",
"r  c #952618",
"t  c #88381D",
"y  c #99341E",
"u  c #A7281A",
"i  c #BB221A",
"p  c #B6271B",
"a  c #A8351F",
"s  c #B7331F",
"d  c #973C21",
"f  c #8A302C",
"g  c #BB3722",
"h  c #AB3E21",
"j  c #D30E15",
"k  c #DC0D15",
"l  c #C41517",
"z  c #CC1316",
"x  c #C31B19",
"c  c #D91315",
"v  c #D51617",
"b  c #CC0E15",
"n  c #E10E15",
"m  c #E21719",
"M  c #C9291C",
"N  c #CE2C1D",
"B  c #E3281F",
"V  c #C43B23",
"C  c #D83823",
"Z  c #D52F2F",
"A  c #E13B23",
"S  c #8B4622",
"D  c #974725",
"F  c #845D29",
"G  c #98592B",
"H  c #A44726",
"J  c #BA4726",
"K  c #BA572B",
"L  c #A95B2D",
"P  c #83622A",
"I  c #8B6529",
"U  c #8E692B",
"Y  c #836C2D",
"T  c #936C2C",
"R  c #95642D",
"E  c #98712E",
"W  c #8C6E30",
"Q  c #946B32",
"!  c #9F6C32",
"~  c #867A36",
"^  c #8B7C35",
"/  c #857634",
"(  c #947332",
")  c #9A7532",
"_  c #9D7C35",
"`  c #9C7F3A",
"'  c #84752F",
"]  c #A56832",
"[  c #B86A32",
"{  c #A37335",
"}  c #A57B38",
"|  c #B57837",
" . c #A1622F",
".. c #CC522B",
"X. c #E44A2A",
"o. c #D5733A",
"O. c #E66D37",
"+. c #9D514E",
"@. c #8F5C52",
"#. c #A97775",
"$. c #AA6A52",
"%. c #C45C5C",
"&. c #8E8138",
"*. c #94853B",
"=. c #9D833A",
"-. c #978A3E",
";. c #9B8B3D",
":. c #9D8037",
">. c #9E923F",
",. c #A3853B",
"<. c #A38C3D",
"1. c #A7883A",
"2. c #B6863C",
"3. c #A9913E",
"4. c #B4943F",
"5. c #C8813E",
"6. c #9B8F40",
"7. c #9D9141",
"8. c #AA8C45",
"9. c #A29643",
"0. c #AC9442",
"q. c #A69945",
"w. c #AB9C46",
"e. c #AC9D49",
"r. c #A69A4A",
"t. c #B49C43",
"y. c #B49C4C",
"u. c #B99942",
"i. c #AE8E54",
"p. c #AFA049",
"a. c #BBA245",
"s. c #B3A44B",
"d. c #B7A84C",
"f. c #BBAC4D",
"g. c #B7A349",
"h. c #B2A454",
"j. c #BAAB53",
"k. c #B8A859",
"l. c #BFB04E",
"z. c #B39563",
"x. c #B49577",
"c. c #BEB26A",
"v. c #B7AB6F",
"b. c #C89B43",
"n. c #D49C45",
"m. c #E79043",
"M. c #C3AC4A",
"N. c #CAAC49",
"B. c #C3A546",
"V. c #D6A749",
"C. c #C2B14F",
"Z. c #CCB44C",
"A. c #D4B44D",
"S. c #D2BA4E",
"D. c #DCB44E",
"F. c #C5B451",
"G. c #CAB651",
"H. c #CCBA53",
"J. c #C3B45C",
"K. c #CAB95B",
"L. c #D2BE52",
"P. c #D8BF51",
"I. c #C1AC55",
"U. c #E6B44E",
"Y. c #E6BE52",
"T. c #E39E61",
"R. c #C5BA78",
"E. c #CCB167",
"W. c #D4C254",
"Q. c #DAC555",
"!. c #DDCA59",
"~. c #D8C65A",
"^. c #E4CB56",
"/. c #EBCB57",
"(. c #E2CD5A",
"). c #E8C655",
"_. c #E6D25B",
"`. c #EBD55C",
"'. c #EEDA5E",
"]. c #F4D65B",
"[. c #F3DC5E",
"{. c #F0CC58",
"}. c #DBCC6A",
"|. c #D9CA68",
" X c #D4C96F",
".X c #EEDC60",
"XX c #E5D669",
"oX c #F2DE60",
"OX c #F5DF65",
"+X c #ECDD74",
"@X c #E6D975",
"#X c #EED36D",
"$X c #F5E363",
"%X c #F9E563",
"&X c #FBEA65",
"*X c #FAEC6B",
"=X c #F5E66B",
"-X c #F9F06F",
";X c #EDE57A",
":X c #FAEF72",
">X c #F6EF7C",
",X c #F8EF79",
"<X c #F3E875",
"1X c #FAF075",
"2X c #F8F07A",
"3X c #F7F07D",
"4X c #B68480",
"5X c #C6BD86",
"6X c #C3A98A",
"7X c #D2C987",
"8X c #C9C293",
"9X c #D7CE93",
"0X c #F5EF81",
"qX c #F4EE89",
"wX c #F6EA85",
"eX c #F6F082",
"rX c #F6F08D",
"tX c #FAF38D",
"yX c #EFE293",
"uX c #F6F19B",
"iX c #F6F092",
"pX c #F5EF96",
"aX c #D7D1A4",
"sX c #D7CDA1",
"dX c #F7F2A4",
"fX c #F7F3AB",
"gX c #F8F5BC",
"hX c #F6EBAA",
"jX c #F0D5A1",
"kX c #FAF6C4",
/* pixels */
"                                                                                                                                            ",
"                                                                                                                                            ",
"                                                                                                                                            ",
"                                                                                        gX Xk.8X                                            ",
"                                                                                  kXfXpX;XW.;.>.8XfXpX Xj.k.                                ",
"                                                                              gXuXrXrXrX;Xf.> < -. X0X X&.&.r.aX                            ",
"                                                                          kXpXrXeX3X3X>X>Xd., > ' >.l.h.: < ~ r.                            ",
"                                                                        dX0XeX2X3X3X-X>X>XW., , > ^ 6.-.1 < ~ *.c.                          ",
"                                                                      iX3X1X1X-X1X1X1X1X2X}.&.; , , : : < ~ ~ &.r.                          ",
"                                                                    rX:X&X&X-X&X-X-X-X-X-X@X*.# $ % * ; < ~ &.-.p.R.                        ",
"                                                                  eX&X%X%X&X&X&X-X-X-X-X-X;Xp.# # $ * ; > ~ &.-.w.j.                        ",
"                                                                qX%XoX$X%X&X-X&X-X-X-X-X-X-Xl.& o $ & * : / &.*.9.g.                        ",
"                                                              dX$X].].$X%X&X&X&X-X-X&X&X&X&X!.< o # % * ; < ~ &.>.s.7X                      ",
"                                                              <X].`.oX%X&X&X&X&X&X$X%X%X$X$X`.w.$ o $ % * : / ~ -.p.R.                      ",
"                                                            hX`.`.[.%X%X%X%X%XoX.X'.'.^.^.^.^.Z.~ # # $ * ; < ~ *.p.J.                      ",
"                                                            wX].[.%X%X%X$X'.`._.^.^.^.Q.Q.W.W.S.p.; o $ * , < ~ -.g.K.                      ",
"                                                            +XoXoXoX].`.^.^.).Q.W.W.S.S.S.Z.Z.N.l.w.: & * > &.<.f.~.!.                      ",
"                                                            #XoX[.`.^.^.Q.S.S.S.A.Z.Z.N.N.N.B.B.a.p.d.p.p.3.;.>.d.W.W.aX                    ",
"                                                            +X`.`.Q.W.Z.Z.Z.Z.N.N.B.B.a.4.4.3.3.3.1.3.w.p.w.>.-.w.Z.H.                      ",
"                                                            +X^.W.S.Z.N.N.N.a.a.t.4.3.<.1.1.,._ _ :.:.=.=.;.3.&.<.C.l.                      ",
"                                                            T.D.N.Z.B.a.u.4.3.1.:._ E E ( E E ) ) _ _ _ _ =.<.>.9.M.f.                      ",
"                                                            B ......[ _ ) E T R I R T T Q Q T ) ) ) _ } _ :.,.w.H.Q.j.                      ",
"                                                            v c k n c i e X + + X . @.x.x.z.$.( T E ) _ _ } :.3.f.j.c.                      ",
"                                                          jXZ z j c z l 8 2 . 2 2 X . O @.          6Xx.x.z.z.i.k.k.                        ",
"                                                    kXdXqXeX#Xo...V M s u w t u 6 6 w O . . #.                                              ",
"                                                kXuXrX0X0X>X:X&X].).U.V.V.b.5.V 8 8 6 t + 2 + f                                             ",
"                                              dXiXqX0X0X0X,X:X*X%X[.].{.).D.A.C 9 4 q 0 S t 4 3 2 +.                                        ",
"                                          dXiXrXqX0X0X0X>X2X2X:X&X&X%X].).Q.A.C l w y l p G a 6 8 4 f 4X                                    ",
"                                      kXpXiXqXeXeX0X0X0X,X1X1X:X&X&X%X%X].).U.C z e F M l a R h q 9 7 2 +.                                  ",
"                                    fXiXrXeX0X0X0X0X0X>X2X1X1X1X-X&X&X&X[.].U.A j u R [ v 9 H } J 8 9 8 2 f                                 ",
"                                  fXrXqX0X0X0X0X0X0X0X0X>X1X1X1X1X-X&X&X%X].Y.A k u ) 4.K v 0  .1.g 8 9 8 5 X #.                            ",
"                                uXqX0X0X0X0X0X0X0X0X0X0X0X0X2X1X1X1X&X&X&X%X).A k q { 4.| N z a } 8.g 8 9 9 3 + %.                          ",
"                              dXqX0X0X0X0X0X0X0X0X0X0X0X>X>X;X=X1X1X:X*X&X%X{.X.n x ] B.4.K c l H 3.2.s 6 9 q d r %.                        ",
"                            uX0X0X0X0X0X0X0X0X0X0X0X0X0XeX;Xq.t.2X1X1X:X&X&X].O.n z L N.V.2.N j q  .w.o.i 6 9 s h 8                         ",
"                          fX0X0X0X0XeX0X>XeX0X0X0X0X0X0X;Xe.I :.;X1X1X1X*X&X[.O.n j H B.A.b.K k l u :.4.[ 9 7 l p x Z                       ",
"                          qX0X0XeX>X>X>X>X0X0X0X0X>X0X>XJ.Q T E }.2X1X1X:X*X&Xm.m k s 0.A.N.2.N c 0 D 4.t.J 8 6 9 9 M                       ",
"                        iX0X>X>X>X>X>X>X>X0X0X0X0X0XeX|.E T T T K.eX2X1X:X*X%XU.B n M | A.A.4...k z 7 ) t.4.V 6 6 9 0 T.                    ",
"                      gXeX>X,X,X,X>X>X>X0X0X0X0X0X0X@X,.I T T I y.0X2X1X1X*X%X{.X.n b M o.n.B.[ c c 8 D 4.t.| q 4 e G j.                    ",
"                      iX,X1X1X1X1X>X>X>X0X0X0X0X0X0Xh.T T T T I } ;X2X1X1X:X&X[.m.c k z z M V V c c l 4 ] t.t.J 6 r ,.j.7X                  ",
"                      2X1X:X*X1X1X,X>X3XeXeXeX>XwXK.T T T T T T Q @XeX,X1X:X*X&X).O.c j z z z z z z z 4 D 3.t.2.i 7  .h.J.                  ",
"                    fX1X*X*X*X:X1X,X;X@X}. XI.y.2.E T E E T T T U j.;X,X2X1X-X&X[.Q.5.g i 9 l x x q 6 3 r } w.u.J 6 d 8.j.                  ",
"                    tX*X&X*X*X*X-XXX,._ T U T T T T E T T T E T U T ` y.L.XX*X*X&X$X(.G.4.) G D S S t 3 5 G 0.u.| 0 7 { y.7X                ",
"                    :X&X&X&X*X*X1X~.W Q T U T T T T T T T E T T T T I I P W 8.g.L..X[._.~.W.C.p.w.<.( i 6 d 6.8.8.g 7 D e.c.                ",
"                    *X%X&X&X&X*X-X<X0.I U T T T E T E E T T T T U I I I P F = = P ;._.`.^.!.Q.W.H.C.t.g 9 7 ) 9.6.L 6 r 8.k.                ",
"                    &X&X&X&X*X*X1X1XXX,.U U T E E T T T T T T T U U I I I P = P F _ _.'.(.!.~.W.H.H.f.[ x 7 G 6.6.{ 0 5 ! h.                ",
"                    $X$X%X&X&X*X-X1X2X}._ U T T T T E T T T T T T I I I P P F P <.!.'.'._.!.~.W.H.H.C.2.q 6 d 6.6.*.g 5 D h.                ",
"                    $X$X%X&X&X&X*X1X>X>X|._ U T T E T T E T T T T I I I P > ( F..X$X'.'._.!.!.W.H.G.C.u.s 6 r ` ;.*.D 7 y e.                ",
"                    %X$X$X%X&X&X*X1X1X>X>XK.U U T T T T T T U U I I I P Q g._.%X%X.X'._._.!.!.W.W.H.F.t.J 8 r ( 6.*.G 7 3 8.                ",
"                    OXOX$X$X&X&X&X*X1X1X2XI.I I T T U T U U U U I I P ,.!.$X$X$X$X'.'._.(.!.W.W.H.G.l.d.L 9 3 R 6.-.F 4 r 8.                ",
"                    OXoXOX[.$X%X&X*X1X1X,X0.I U I T I I U I U I I I F M.-X$X*X$XoX'.`._.(.!.W.W.H.G.l.d.[ 9 3 R -.-.W e r z.                ",
"                    ;XoX[.[.OX$X&X&X*X1XXX( P I I I I I I I I I P P , t.$X$X$X$X'.'._.^.!.~.W.W.G.F.l.d.{ 9 3 R 6.6.~ w d 5X                ",
"                    hXoXOXOX[.[.$X&X&X*X~.P P P P I I I I I P P P P , *.$X=X$X.X'.`._.(.!.Q.W.H.G.F.l.d.} p 3 Q -.*.*.Q `                   ",
"                      .X'.'.]..XoXOX%X&Xf.F F P P F > U I P P F P P = Y _.$X.X'.'._.(.!.~.W.W.H.F.l.f.s.,.u w *.-.-.-.-.z.                  ",
"                      yX`.'..X.X.XoXOX$X3.- > = = ( f.(.C.( = , = = = = W.oX'.`._.(.!.~.Q.W.H.H.F.l.d.s.9.R Q -.-.-.-.-.                    ",
"                        XX_.`.'..X.X.XoX_ = = Y p._.$X$X$X(.;.= = = - - g.'.`.`.^.^.!.Q.W.H.H.F.l.d.d.p.9.7.7.7.7.7.7.v.                    ",
"                        yX_._._._._._._._ = ,.Q.$X$X$X$X$X$X'.d.P - - - =._._.(.!.~.Q.W.H.H.F.l.f.d.p.w.9.9.9.9.9.7.r.                      ",
"                          yX^.^.^._._._.G.M._..X.X.X.X.X.X.X.X.XW.=.= - W ~.(.!.Q.W.W.H.H.F.l.f.d.p.r.w.9.9.9.9.9.9.8X                      ",
"                            }.!.(.(.(.(.(._._._._.`._.`.`._.`._._.!.t.Y W L.!.Q.W.W.H.H.F.l.f.d.s.w.w.9.9.9.9.9.r.v.                        ",
"                              }.Q.(.!.(.(.!.!.(.(.(.(.(.(.(.!.(.(.!.!.L.L.W.L.L.H.H.G.C.f.f.s.s.p.w.9.9.9.9.9.9.5X                          ",
"                                |.Q.Q.!.!.Q.Q.~.~.!.Q.!.!.!.!.W.Q.Q.W.Q.W.L.H.H.F.F.l.f.f.s.p.w.w.w.w.r.r.p.w.5X                            ",
"                                  9XW.W.W.W.W.W.W.W.W.W.W.W.W.W.W.L.H.H.G.G.F.F.l.f.d.d.p.p.w.e.w.w.w.w.w.h.                                ",
"                                       XH.H.H.H.H.H.H.H.H.H.G.G.G.H.F.F.F.f.f.f.f.h.s.w.w.w.w.w.w.r.w.p.5X                                  ",
"                                           XF.F.H.F.F.F.F.C.F.l.l.l.f.f.f.d.s.s.p.p.w.e.w.w.w.w.w.h.5X                                      ",
"                                              7XJ.l.f.f.f.f.d.f.d.d.d.s.s.s.s.p.w.w.w.w.w.e.h.c.                                            ",
"                                                    aXR.E.k.d.s.s.s.h.s.s.s.e.e.s.h.k.R.8X                                                  ",
"                                                                  aXsXsXsXsX                                                                ",
"                                                                                                                                            ",
"                                                                                                                                            ",
"                                                                                                                                            ",
"                                                                                                                                            "
};
