/* XPM */
static char *_1cb1ebe3d804c1198e0b3c6ae3e86b9YWRUwkkOj3kBJgJy[] = {
/* columns rows colors chars-per-pixel */
"70 70 239 2 ",
"   c None",
".  c #330700",
"X  c #350A02",
"o  c #390B01",
"O  c #380F08",
"+  c #3D1105",
"@  c #3C120A",
"#  c #370F0A",
"$  c #353934",
"%  c #2D322C",
"&  c #421503",
"*  c #461B03",
"=  c #4B1D03",
"-  c #41150C",
";  c #45190D",
":  c #491B09",
">  c #451A12",
",  c #4A1D12",
"<  c #471C15",
"1  c #521F00",
"2  c #4D2204",
"3  c #4D220B",
"4  c #522502",
"5  c #5B2C02",
"6  c #572808",
"7  c #5E3105",
"8  c #4D231B",
"9  c #4C2217",
"0  c #5B2C1B",
"q  c #542716",
"w  c #5A3716",
"e  c #632D06",
"r  c #633401",
"t  c #6B3705",
"y  c #743D05",
"u  c #653718",
"i  c #6D3118",
"p  c #572B22",
"a  c #5A3B37",
"s  c #533529",
"d  c #673624",
"f  c #733D25",
"g  c #613429",
"h  c #6D160C",
"j  c #0C4E37",
"k  c #3C433E",
"l  c #28513C",
"z  c #31613D",
"x  c #7C4206",
"c  c #794419",
"v  c #55493A",
"b  c #565537",
"n  c #4D4A38",
"m  c #774526",
"M  c #695339",
"N  c #065D43",
"B  c #1F5F47",
"V  c #3F4640",
"C  c #3A4C43",
"Z  c #295848",
"A  c #335649",
"S  c #06684A",
"D  c #176D53",
"F  c #0C7C5B",
"G  c #067857",
"H  c #167859",
"J  c #096F50",
"K  c #236A54",
"L  c #2E6E53",
"P  c #1C7E60",
"I  c #2E7864",
"U  c #404741",
"Y  c #434A45",
"T  c #474E48",
"R  c #484F4A",
"E  c #494F47",
"W  c #4B514C",
"Q  c #4F5551",
"!  c #555A57",
"~  c #525248",
"^  c #725352",
"/  c #4B6D4B",
"(  c #6F6E6A",
")  c #6B5D5F",
"_  c #883316",
"`  c #8E392E",
"'  c #851107",
"]  c #854C04",
"[  c #8A4E02",
"{  c #854D0D",
"}  c #874B09",
"|  c #8E5001",
" . c #8C510C",
".. c #925202",
"X. c #995709",
"o. c #854D12",
"O. c #844C1B",
"+. c #8A5115",
"@. c #8A531C",
"#. c #875017",
"$. c #95581A",
"%. c #984B1A",
"&. c #A15D17",
"*. c #A5621D",
"=. c #824D27",
"-. c #8C5522",
";. c #8A542A",
":. c #945D2C",
">. c #925924",
",. c #895734",
"<. c #925D32",
"1. c #975C36",
"2. c #8D4B2C",
"3. c #AB5235",
"4. c #99602D",
"5. c #956136",
"6. c #9B6334",
"7. c #9A653A",
"8. c #97653A",
"9. c #8D623D",
"0. c #A76628",
"q. c #AA6B33",
"w. c #A46A3B",
"e. c #AB6E3C",
"r. c #A46736",
"t. c #B6733B",
"y. c #B06F38",
"u. c #C27B3B",
"i. c #9D3E41",
"p. c #A9454C",
"a. c #B64A55",
"s. c #BC545C",
"d. c #B35149",
"f. c #8E6A4A",
"g. c #AA6E41",
"h. c #AD7142",
"j. c #B37444",
"k. c #BB7946",
"l. c #B56E44",
"z. c #BE5761",
"x. c #88726D",
"c. c #9D4040",
"v. c #C27D48",
"b. c #C26754",
"n. c #C25C66",
"m. c #C7626C",
"M. c #08815E",
"N. c #1B875E",
"B. c #358B5B",
"V. c #078561",
"C. c #0A8461",
"Z. c #098A66",
"A. c #098E69",
"S. c #078965",
"D. c #138261",
"F. c #1A8866",
"G. c #0A936D",
"H. c #14926C",
"J. c #0C9770",
"K. c #0D9972",
"L. c #179A75",
"P. c #288766",
"I. c #35856A",
"U. c #269A78",
"Y. c #339E7D",
"T. c #349575",
"R. c #36976C",
"E. c #27A07E",
"W. c #39A07E",
"Q. c #4D8E57",
"!. c #6F9553",
"~. c #479271",
"^. c #73AA74",
"/. c #5FA06D",
"(. c #C8803E",
"). c #919E4E",
"_. c #9AA658",
"`. c #ADA84F",
"'. c #88817F",
"]. c #89AB6A",
"[. c #8AAF70",
"{. c #AC845B",
"}. c #CB854E",
"|. c #C6814A",
" X c #D38C53",
".X c #DC9359",
"XX c #CE8751",
"oX c #3E40A9",
"OX c #544991",
"+X c #4345AB",
"@X c #4446B4",
"#X c #5A5BB2",
"$X c #696CBD",
"%X c #5F5FB0",
"&X c #777BC4",
"*X c #2DA382",
"=X c #37A685",
"-X c #539A85",
";X c #709993",
":X c #46A889",
">X c #4DB195",
",X c #51B498",
"<X c #4BAA8E",
"1X c #71A792",
"2X c #7E82C9",
"3X c #928889",
"4X c #AC9A8B",
"5X c #969BA8",
"6X c #87A5A5",
"7X c #97A4AB",
"8X c #99B0B4",
"9X c #A2ACB6",
"0X c #A6B4BC",
"qX c #AFA8A9",
"wX c #81A29F",
"eX c #C4B3A1",
"rX c #ABBAC3",
"tX c #AAB9C2",
"yX c #B4BDC7",
"uX c #AEB3D9",
"iX c #898DCE",
"pX c #B4C2CC",
"aX c #BBC3CC",
"sX c #BAC6D1",
"dX c #BCC9D5",
"fX c #BFCDD9",
"gX c #B7C6D0",
"hX c #C0CEDA",
"jX c #C5C9D6",
"kX c #C3D1DD",
"lX c #CACACD",
"zX c #C6D4E1",
"xX c #C9D7E3",
"cX c #CCD9E7",
"vX c #D4DDE7",
"bX c #C8CDE6",
"nX c #DCE3EC",
"mX c #E5EBF3",
"MX c #EAF0F4",
/* pixels */
"                                                      6 2 : = : 2 3                                                                         ",
"                                                q 4 3 6 6 0 0 e 3 1 4 6                                                                     ",
"                                            u 7 6 i ` i.p.a.a.a.i._ t y y                                                                   ",
"                                          O.y t ` a.z.z.n.n.n.n.s.a.%.[ x ;.                                    w 6 3 = = 3 3               ",
"                                          } x ` a.z.n.m.m.m.m.n.s.3.&...o.:.                                @.y e 6 6 q 3 : = * : 3         ",
"                                        4...[ %.a.s.s.n.n.b.b.b.u.u.u.|.}. X.X.X.X.X.X.X                    X.] _ ` p.p.p.i.` 0 : * :       ",
"                                        0.....X.%.3.3.b.v.v. Xv.v.v.k.l.j.l.j.j.k.v.|.}. X.X X X.X.X X    y.X...3.s.z.n.n.z.a.a.` q * 2     ",
"                                          $.| X.0.u.}.k.r.2.f g 0 8 3 > > > > , , q 0 u f 2.1.l.v.|.XXXX X}.t.*.$.a.n.m.n.n.n.z.s.i.6 = 3   ",
"                                            t.k.g.2.d 8 > - - - - - o - & o - & o o - o o - - , 0 f 1.e.v.}.}.|.u.q.3.n.n.m.m.n.s.a.f 4 4 9 ",
"                                          XX6.d < < - - - - - - & o o o o o o o o o o o o & o o o O - , d ;.y.v.v.v.t.q.d.s.s.s.s.a._ e 5 6 ",
"                                        l.f < > < 0 e e : & o o & o o o o o o o o o o o o o o o o o o + O @ 9 f r.k.k.k.y.0.3.3.3.%.x y r u ",
"                                      1.p < 9 f %.&.&.&...1 o o . o o o o o o o o o o o o . o o o o o o o O @ @ , f r.t.k.t.0.....| x x y m ",
"                                   X1.8 > q %.0.&.X.X.X.X...1 o o o o o o o o o o o o . o o o o o o o . X X o O # @ 9 =.y.j.j.r.+.x o.O.    ",
"                                 X1.< > q >.*.&.X.X.X.$.{.eXf O o o o o o o o o o . o o o o o o o o 1 e e 5 = o O + + @ f q.h.j.g.8.        ",
"                              .Xr.8 ; ; c &.&.2.^ ) OX#XbXMXa . o . o o . o o o o o . o . o o o 1 y [ ......[ y * O # # @ m r.e.j.j.        ",
"                              k.d > ; p eX3XOX+X@X@X@X&XMXlX, o o o o o o o o . o o o o o o . a 4X0.........| | ] = X O # @ ;.w.h.j.        ",
"                            XX2.< ; - ^ MXuXoX@X@X@X#XcXMX^ o o o o . o o . o . o o X X o o + qXMX9X^ O.| ..| | | y O X O O 0 6.w.h.j.      ",
"                           Xk.0 ; - & a MXmXiX#X%X2XbXMX3X- . o . o o o . o o o X X o o X X q xXMX$XoXOX^ #.| | | [ * X O X @ =.6.e.j.      ",
"                          XX6.> - & O & x.nXMXmXmXMXlXx.- o o . o . o o o . . o o . o o o X s vXnX%XoXoX+XOX^ -.[ ] = . X # # c 6.w.h.j.    ",
"                         X|.;.; @ O o o - a x.3X3X) 8 . o . o & = 1 1 e 1 1 & o . o X X X . 9 fXmX&XoXoXoXoXoXOX4X6.& . # X X 0 4.6.g.h.    ",
"                        }.v.:.: & o o o o . o . . . . o & e y +.&.0.0.0.0.&. .] e & o o X X # 3XMXbX$X+X+X+X%XuXmX3XX X . . X w 4.4.w.h.    ",
"                        }.k.y.f - o o o . o o o o : e %.0.t.v.v.k.l.t.v.k.k.t.y.*...t & X X X > 4XnXnXbXuXjXvXmXqX% . . # . # 0 :.6.r.h.    ",
"                        |.k.y.0.O.e = & & & 1 e { $.t.v.}.v.g.f q ; > 0 m 1.w.j.j.q.&.} 5 # # # # ^ 3X0XlXyX4X) @ . . . X X . u :.4.7.g.j.  ",
"                        v.j.t.q.0.&.%.} } %.X.&.q.t.v.k.g.2.q # . . . . @ 9 d ;.1.w.w.0.$.t * # . . # @ ; - + . . . . X X X + c >.4.7.g.j.  ",
"                        k.k.j.e.r.0.&.&.&.&.*.0.t.t.t.t.,.q @ # X . . . . # @ g c M 0.8.4. .x r X . . X . . . X . . . . . . w #.>.4.6.e.j.  ",
"                          j.h.j.q.q.0.0.*.0.0.q.t.t.y.7.m 9 > # X . . . # # @ q c c c *.>.$.X.x x 2 X . . X . . . X . . . 2 c @.>.:.6.h.    ",
"                            l.j.g.e.r.0.0.0.0.q.e.y.w.<.f 8 ; @ # . . . X @ > q w c c c c $.x X.] x x 2 + X X X X . X 2 r { @.@.>.:.7.g.    ",
"    0 9 , 9 x.vX                g.g.g.e.r.r.q.q.q.q.w.:.m 0 < - # # # # @ @ 3 6 c c c X.x $. . .| | | [ x x 7 x r x x x  .+.@.>.:.4.w.h.    ",
"  0 & o . . ( xXjXjXaX            w.w.g.w.w.w.r.r.e.w.6.;.m w 8 > > @ ; 9 3 q w c x c c c  . .x [ | [ [ | | [ | [ [ { { #.@.-.>.:.7.e.      ",
"g ; o o . a jXzXfXsXaXkXaX              w.7.w.w.w.w.w.r.5.;.=.u u 0 w u 0 u u c c c c  . . .x | x |  .x ] ] x  .{ { #.@.-.-.>.4.6.w.h.      ",
"g > X . a aXvXcXkXkXkXkXpX0X0X0X              7.7.r.7.r.7.8.5.<.,.=.m m =.m =.-.c :.>.c @.+. .c +.x x  .{ { #.#.@.@.@.>.>.4.5.6.w.h.        ",
"    ^ ( jXcXcXcXxXcXvXkXaXpX0XqXyXaXaXaXpXyX      x.f.f.8.8.8.8.8.5.5.5.4.<.<.<.:.>.:.:.>.>.-.-.-.@.@.-.@.-.-.-.:.:.4.4.6.7.7.w.            ",
"      xXkXxXxXxXcXnXcXkXkXdXpXpXgXdXdXdXsXsXgXyXrX9X7X3X( / b b f.,.,.<.9.8.5.5.8.5.5.4.5.4.;.<.:.:.<.:.<.5.5.5.5.7.7.7.w.w.                ",
"          fXfXcXvXcXcXxXkXfXdXdXdXfXdXdXdXdXsXsXpXtX6X~.L n l ( ) h h f ) M n b b b M M 9.M f.,.9.9.5.9.5.5.5.7.7.7.                        ",
"              xXfXzXkXxXkXkXfXfXfXdXgXgXsXgXgXpX8X-XR.H / z M ` ' h 0 n l j j j j j j j j / 3X3X3Xx.'.'.                                    ",
"                  dXfXfXfXfXdXgXgXgXpXrXtXtX0X1X~.U.N.M.Q./ _ ' f b z B N S j j j j S N N I.6X5X5XwX5X5X5X7X                                ",
"                        dXgXpXpX0X0X8X8X6X1X-XU.L.H.A.A.F L / L D G M.M.G J j % j S S S S D ;X8X8X9X8X9X9X9X9X9X0X                          ",
"                                    7X6X;X:XU.H.J.G.G.A.G.F Z.C.Z.S.M.M.N.F.B l H D D D J J I 6X8X0X0XtXtX0XtXtXtXyXpX                      ",
"                                        :XU.K.H.J.G.J.G.G.A.G.A.A.A.A.A.A.A.M.M.C.C.M.G G G J B.6X0XrXpXpXpXpXgXgXsXsXfX                    ",
"                                      =XL.H.K.J.J.J.J.J.G.G.G.G.G.G.G.A.G.A.A.A.V.V.M.M.M.M.M.H I.6XtXpXgXdXfXfXhXkXkXkXkXkX                ",
"                                    <XU.P.G.K.L.*XK.K.J.A.G.G.G.G.J.G.G.A.G.A.A.S.S.Z.M.M.M.M.M.P I.;XuXgXdXkXzXxXxXxXcXxXkX                ",
"                                  :X=XR.).P.E.=X=X*XG.A.F.A.J.L.W.E.J.J.G.Z.A.A.A.S.Z.Z.Z.M.Z.M.P I ~.;X8XyXgXfXkXzXzXcXzXkX                ",
"                                :XY.Y._.`./.*XK.L.=XU.=X<XH.*X=XE.E.E.G.N.Q.B.A.A.U.U.A.Z.S.S.S.F P.P.~.;X8XpXdXkXzXzXzXkXfX                ",
"                                W.R.^.].[.^.K.K.H.*X>X,X,X<X*XJ.K.K.E.R.!.`.).B.U.U.A.A.Z.Z.S.M.V.P P I.;X8XyXfXzXzXcXkXfXkX                ",
"                              :XE./.`.^.[.`.Q.J.U.<X,X>X,X,X=XA.K.G.B.^.^.`._.^.~.A.A.A.A.A.A.M.V.D.F.I.-X7XyXfXzXzXzXkXfX                  ",
"                              :XL.Y.^.[.[._.B.A.*X,X,X,X,X,X<XH.Z.N.).`.[.^.^.].).Q.S.A.A.A.S.S.V.F P P.-X6XtXsXkXkXfXfX                    ",
"                              W.L.E.^.`.^.R.J.K.H.:X,X,X,X>X*XD.G.N.!.`.].1X^._.`.!.M.A.A.A.S.S.S.D.F P.I.;X0XpXsXsXdX                      ",
"                              W.E.W.Q._./.*XK.K.*X=X>X,X>X<XH.G.K.G.F.^.^._.].^.!.N.A.A.A.A.S.S.C.C.F P P.1XtXpXsXsX                        ",
"                              W.*XL.H.B.A.*X=X*X=XK.U.>XU.L.=X*XK.L.=XY.Q.`.`.Q.U.U.H.A.A.A.S.S.C.F D.F.P.-X9XyXdXdX                        ",
"                              Y.L.K.K.J.K.K.*X=XL.K.S.H.A.J.L.=X=X=XL.G.D.Q.Q.S.G.U.*XG.A.A.S.V.V.C.D.P P./ a )                             ",
"                              Y.L.K.K.K.K.K.K.K.K.K.J.A.J.K.J.K.*XL.J.G.G.A.S.G.A.G.L.H.A.A.S.C.C.C.P D.P.L 8                               ",
"                              T.P.L.K.H.J.K.K.K.K.K.K.K.K.J.J.J.J.J.J.G.G.G.G.A.A.A.A.A.A.S.S.V.F F H P P P.                                ",
"                              T.P.L.H.F G.J.G.G.J.J.K.J.J.J.J.J.G.G.J.G.G.G.A.A.A.A.S.C.S.S.F J C.P D P P I                                 ",
"                                P.F.A.F A.G.F F S.G.S.G V.A.J.A.G V.S.G.G.G G V.A.S.G J F C.G J F H D I I M <.5.5.                          ",
"                                T.P.F.F F.G.M.G A.J.S.G G A.A.S.G G S.S.A.G J V.S.S.G S C.C.J J F K K L b c x c =.=.,.,.                    ",
"                                  ! ! L L H F D F A.Z.G G A.G.S.G G V.A.A.G J F S.F J S D D Z Z A Y T Q w t 7 r t y f m m m                 ",
"                                    ! ! W T C C A A Z A Z K K D B B K D K B Z Z Z A C V C k k k k E W v r t r t t r r t u d m d             ",
"                                      ! Q W Y Y Y Y Y U U U Y V V V U U a V k k V k $ V k k V V E ~ v 7 r r r r t r 7 7 5 6 0 d d           ",
"                                          ! Q W T Y U U U U V V V V V V V V k k V k V V k C Y R Q v 7 5 7 r r r 7 7 7 5 5 4 3 0 p           ",
"                                            ! ! Q W R R R Y Y V V V U U V Y V V V Y V Y Y T R W E 6 4 7 7 r r 7 7 7 5 5 4 2 2 3 p           ",
"                                              W T Y T T T R R T R Q Q Q Q Q Q W W R R Y C V k V s 4 4 5 5 7 5 7 7 5 5 4 4 2 * ; 8 p         ",
"                                              W T Y Y V V V $ $ %           k k $ k V k k k k V n 2 4 4 5 4 5 4 4 4 4 2 2 * @ 3 8 p         ",
"                                              W R R T Y Y $ $ % %           $ V $ Y V V V V V V a q 2 2 2 2 2 2 2 2 * * * - ; 9 p           ",
"                                              Q R T T Y Y Y $ % $           U U Y Y Y Y Y V V V n w 0 3 2 2 2 * 2 * * * - - 9 8 p           ",
"                                              Q W W E E Y n k % $           W Y Y T Y T Y Y V Y     p p 8 9 > : ; ; ; > , < 8               ",
"                                              Q ~ E E ~ Y C k $ $             T T T T T R Y V V         8 8 8 8 9 < < 8 8 p                 ",
"                                                m u w w w w w 9 d             v v n n n n n n ~                                             ",
"                                                u 3 2 2 2 * + 3               m e e 7 7 5 6 u m                                             ",
"                                                  > @ + X O @ 9               p > * & + & * 8                                               ",
"                                                                                < @ @ O # >                                                 "
};
