/* XPM */
static char *fd188dddd1ec46fb8bc3c42d987664e35djT0qlIRht0Cxwr[] = {
/* columns rows colors chars-per-pixel */
"70 70 204 2 ",
"   c #5D913F",
".  c #648D3D",
"X  c #6F9035",
"o  c #63943D",
"O  c #6B943D",
"+  c #66993D",
"@  c #699B3F",
"#  c #779136",
"$  c #789332",
"%  c #73963E",
"&  c #7D943B",
"*  c #739B3E",
"=  c #7C993D",
"-  c #5F8F45",
";  c #5F9544",
":  c #5F9148",
">  c #648E45",
",  c #618E49",
"<  c #639545",
"1  c #6B9544",
"2  c #659A46",
"3  c #6C9B44",
"4  c #65954B",
"5  c #6A964C",
"6  c #669A4B",
"7  c #6A9C4D",
"8  c #739644",
"9  c #7A9740",
"0  c #739A45",
"q  c #7B9B44",
"w  c #72964A",
"e  c #729C4C",
"r  c #7B9D4B",
"t  c #679651",
"y  c #6A9651",
"u  c #679A50",
"i  c #6C9C52",
"p  c #6E9F58",
"a  c #709754",
"s  c #719D54",
"d  c #789C52",
"f  c #729F59",
"g  c #67A346",
"h  c #6CA246",
"j  c #6CAA47",
"k  c #67A14A",
"l  c #6CA24D",
"z  c #6EA94D",
"x  c #75A046",
"c  c #7CA145",
"v  c #72A44D",
"b  c #7CA24B",
"n  c #72AB4E",
"m  c #7BA94F",
"M  c #74B24E",
"N  c #7BB14F",
"B  c #6EA251",
"V  c #6FA950",
"C  c #6EA059",
"Z  c #72A453",
"A  c #7BA453",
"S  c #74AB53",
"D  c #7AAD55",
"F  c #74A459",
"G  c #7AA55A",
"H  c #76AB58",
"J  c #7BAC5A",
"K  c #76B152",
"L  c #7BB255",
"P  c #7DB259",
"I  c #7FB85A",
"U  c #869737",
"Y  c #809538",
"T  c #819F3F",
"R  c #83A13E",
"E  c #819742",
"W  c #849C43",
"Q  c #899C43",
"!  c #829E4A",
"~  c #809F51",
"^  c #85A145",
"/  c #8AA647",
"(  c #8DA945",
")  c #83A34C",
"_  c #8BA54D",
"`  c #87A94E",
"'  c #8EAA4D",
"]  c #94AA45",
"[  c #9AAA47",
"{  c #91A54B",
"}  c #98A74C",
"|  c #93AB4D",
" . c #9AAC4C",
".. c #84B04E",
"X. c #96B24E",
"o. c #9DB14E",
"O. c #84A552",
"+. c #8BA651",
"@. c #84A954",
"#. c #8BAA53",
"$. c #81A75E",
"%. c #83AB5B",
"&. c #8CAD5A",
"*. c #93AB54",
"=. c #9AAE54",
"-. c #93AE59",
";. c #98AE59",
":. c #81B456",
">. c #8EB155",
",. c #81B35B",
"<. c #8DB15C",
"1. c #96B255",
"2. c #9BB355",
"3. c #91B956",
"4. c #93B45C",
"5. c #9CB55C",
"6. c #95BB5E",
"7. c #9FB95D",
"8. c #A5AF4E",
"9. c #A4B447",
"0. c #A2B34E",
"q. c #ABB34D",
"w. c #B7BE4A",
"e. c #BFBD4C",
"r. c #A4AF51",
"t. c #A3B553",
"y. c #AFB456",
"u. c #ABB654",
"i. c #A7B953",
"p. c #A3BA55",
"a. c #AABA57",
"s. c #ABBA54",
"d. c #A3B55B",
"f. c #A8B75C",
"g. c #A9B65B",
"h. c #A5B95E",
"j. c #A4BA5C",
"k. c #ABB95A",
"l. c #ADBB59",
"z. c #A8BC5B",
"x. c #A9BA5E",
"c. c #AFBF5D",
"v. c #ABBA5B",
"b. c #B2B756",
"n. c #B2BE56",
"m. c #B3BB54",
"M. c #BBBD50",
"N. c #BCBF54",
"B. c #B8BD56",
"V. c #B2B759",
"C. c #B1BE59",
"Z. c #B2BB5A",
"A. c #B8BE5E",
"S. c #81A960",
"D. c #8DB060",
"F. c #97B661",
"G. c #9EB660",
"H. c #9CB763",
"J. c #97B861",
"K. c #9CB962",
"L. c #A3BB62",
"P. c #AABC61",
"I. c #A3BE69",
"U. c #C0BE45",
"Y. c #BCC14D",
"T. c #AEC05A",
"R. c #B5C356",
"E. c #BDC153",
"W. c #BDC156",
"Q. c #BCC453",
"!. c #B6C55F",
"~. c #B2C25D",
"^. c #BAC55C",
"/. c #BDC65E",
"(. c #BDC55A",
"). c #B3C95D",
"_. c #A7C065",
"`. c #A7C166",
"'. c #ACC167",
"]. c #ACC46B",
"[. c #B7C667",
"{. c #B3C766",
"}. c #BCC761",
"|. c #B2C866",
" X c #BCC862",
".X c #B0CB6E",
"XX c #B3C869",
"oX c #C0C04E",
"OX c #C4C24D",
"+X c #C8C34D",
"@X c #C2C151",
"#X c #C0C254",
"$X c #C4C455",
"%X c #C0C954",
"&X c #C0C35A",
"*X c #C6C358",
"=X c #C0C65C",
"-X c #C3C55A",
";X c #C3CA5E",
":X c #C2C95C",
">X c #C8C858",
",X c #C2CA63",
"<X c #C0C960",
"1X c #C8CB64",
/* pixels */
"@XE.~.( = 5.Z.y.f.E q *.t.t.i.2.r 7 7 H D n D 0 X.l.a.t.' b 1 %.D.w p s F F G a 7 %.F s a s i a F s H J Z p i w { }.W.e.R.| 0 H L D P e e G ",
"oXW.a.Q O @.#.=.k.} U C.Y.U.:Xo.8 7 Z P L D D m ^ !.$X$X(.} T G.I.+.0 i i A A i s J ,.P J s s s f i i a C i i 1 ^ !.W.W.l.| 1 F Z Z S D 0 F.",
";Xt.1 i 4 5 5 4 A A 0 ! n.(.z.q e i 7 7 v S S D % 2.=X&Xi.9 ! %.#.-.a s i s p s p D ,.,.J e 7 J H i s G A @.+.@.= t.,Xl.1 i y y i 5 a F f s ",
"#.r e i B Z B B i i B 1 ^ XX&.1 e 5 s %.A 7 4 i 1 O.[.t.0 s p y i p Z a F a s a B G S.Z s s Z J ,.J 0 r f.x.P.{ 9 &.4.r 0 s f f p i s s f s ",
"u B i i B B B S S Z 4 e 1 J G 5 5 e r L.f.8.2.#.A 8 J.@.1 i i Z v Z s F i 5 a f f s f a s s Z D P D Z 0 ) G.K.r 5 B t i p i s p i i Z s i s ",
"Z Z 5 i 7 B B 7 Z 7 7 y t i i 5 5 y 1 =.u.b.b.V.-.w 5 i i y i Z Z Z F 5 Z H F s s a i S.A 5 e Z Z A s s 5 A S.1 s p i i i i i p a i p p i p ",
"B i 7 5 5 7 B Z 6 7 7 7 B L H l 7 7 w O.v.u.g.+.1 s i Z i i i i F Z s 7 Z ,.P P F e ! P.I.r d a Z a i s F i i i 7 Z y i s i i a s s i s a p ",
"B i t i 4 5 B i 7 5 7 6 Z P D Z 7 5 a r =.g.*.0 7 D H Z B 5 A f 5 p a i D P J D A q v.}.}.} e a i i i 5 A s 4 i i i 7 i i i i 4 i i i i 5 i ",
"a i 5 s s 5 5 4 i 4 5 7 B H B i 7 i i 4 G F i p i Z B F Z 0 ~ L.@.1 5 p F Z s A e +.C.n.W.k.r i G Z F 1 @.J.+.A e i p i i i Z i 7 7 i i 5 Z ",
"i a 1 O.j.*.b 5 5 5 6 i F B B i i C 4 i s 5 a i 7 5 i s i e ! L.k.g.+.w a s s s a a y f F s i Z Z Z G 1 ! x.V.V.1.q 5 i 7 7 J P S Z i a y s ",
"7 Z 4 ! f.u.v.} w 5 i t i i B F S H 7 A P D H Z 4 5 i B F D r 4.v.P.O.a a s D.d s y i f f y p Z B H H 7 0 5.I.*.s 5 B Z i 7 H L L P v s i p ",
"n D 1 q h.k.` r 7 e <.r < i p B B Z B 7 D :.Z 7 7 i Z D J D 8 &.G.+.e e *.;.L.! d F B a i i i i 5 f s i 1 %.%.1 7 7 Z H Z < S L L Z i 7 H J ",
"L n 7 w <.@.3 i 7 O.x.h.#.w 5 i 7 F i 4 i s i s A l D :.P H i s A d ) L.g.u.x._ v J J J l Z 4 F G 5 7 y i i i 5 7 l Z Z B 6 Z J v i i e L P ",
"Z Z 7 p B 6 7 7 0 #.k.Z.x.*.e 1 q _.5.' e 7 7 D J Z e Z P Z Z i i s s r ;.P.P._ 8 J P D H B 7 A ,.L Z Z i 7 i i B p i Z Z i s i i i Z Z D L ",
"7 i 7 4 7 B H v 1 #.7.+.0 5 Z A * z.;X(.l.c m P L H i s A Z 5 i F F i 5 e O.H.O.1 J P J Z s i Z J L P L Z 7 5 s i i 7 i p 5 5 Z B Z v 7 J D ",
"y y 7 i S L I D 1 J A 4 i Z L D 0 *.}.i.q A Z v S L 7 i i Z H Z Z Z f p s 5 f G 4 Z J f s s s i H P J A p s i 4 i p 7 p 7 7 z Z D D Z 7 Z v ",
"y y p i u V S P l 5 i t Z P :.@.x @.].! w s s i Z i y p 7 Z Z A H B Z i i G J i i i i i i i a i 7 F Z 4 i i y i i i 5 y 7 i 7 Z Z Z D i i s ",
"i s B i 5 5 5 B i 4 i B B B Z H D 7 F i y 5 A K.s e e G G 1 Z H H Z i 1 r L.].q d i y a f s i i i Z i i s s 7 y 4 i p i i p i i 7 i i B 7 Z ",
"6 Z Z B Z B u u 6 7 O.5.^ -.A 5 i i i i s e / XXG.q r +.I.+.w s F 7 8 #.C.(.x.q s i i s s i y p i i p 1 ) K.&.A a i i s i 7 i i Z i i 7 i e ",
"i Z S S Z 7 7 v ' a.}.q.Y L.P.*.e 5 i F Z 8 t.=X=Xu.& *.P.f.;.~ 1 w ) k.>X>X~.9 e y i p i i Z s 7 Z Z v 0 t.Z.u.i.+.7 5 B i v i i i i Z S L ",
"p Z H A 7 3 Q ~.$XOX(.[ # d.k.f.O.1 Z F F 0 -.-.1.3.q +.v.v.P.+.e i s e ' t.|.' 0 p i i i s 7 7 Z S Z Z 1 ' v.Z.k.` e i p s Z 7 7 l P L M L ",
"i i Z a i i 8 *.R.%X:X[ & 4.@.A 7 H H B A Z i p p i e 4.L.+.G a 4 i H J 6 7 O.%.s i i 5 B i 7 Z S Z B v 1 &.L.2.b 7 l B 7 F B i i 7 B P L N ",
"7 i i i B Z H 6 q 7.{./ 7 7 i s i s Z Z H F f i F s i G f i i i 5 l L L L H B i i i 4 7 i i B Z Z Z B B v v %.s 7 i Z p i 7 i i B S 7 7 n L ",
"5 s %.@.7 l L L Z 7 Z Z 7 s &.@.1 s 4 i 7 s i i J P Z Z Z 5 J O.e A L P D n Z s r D.5 e i 7 i i l l B B Z 7 5 B i i i 7 l B l 7 6 B S 7 7 Z ",
"r A L.5.0 k D D L H l 7 c j.P._ q 5.-.+.O.s e i A ,.,.:.v x L.L.e 7 D %.Z e 1 A g.f.@.e i t 7 i B Z Z Z 7 l i i 6 7 7 B 7 B V i 6 B Z Z Z l ",
"q 7.v.x.) 0 L P H 0 r 2.s.b.x._ 8 +.c.y.y.g.;.r v J D D b -.g.g.@.w i F B e ! d.v.t.-.w e i l Z 6 H L L S v Z u 7 l B 7 V F H B 6 Z S z l 7 ",
"q.V.b.Z.1.1 D V 7 i e b *.f.v.*.8 ! P.r.f.d.r d v H Z w ! f.g.y.g.! e i 7 5 ) 2.v.u.2.r e 7 B i 6 S L L L L S 7 7 t l B V S S V 6 l B 6 i i ",
"` #.2.d.7.r Z u i p F 5 6 A 4.@.1 w ;.P.-.r e F 7 s Z e %.-.} *.4.O.e G 5 7 5 5 b @.F.O.e i 7 7 6 z K L S S 7 7 7 t 7 B k B S B k i 7 i 5 B ",
"H 1 7 i B B 5 B B l P S 6 7 i 7 J e ) K.A 7 F F i 5 y p 5 p t t i 0 4.-.0 y y i u u l Z i 7 7 5 7 6 K K z 5 B B 6 l Z Z 6 4 i 7 l 7 7 B 7 B ",
"@Xs.^ r 0 @.*.2.m 0 L S S 0 8 ) '.;.8 G i s H Z B p i y 5 i 5 w *.g.P.;.w 5 5 i u u 4 u u i u i 7 7 Z i 6 B B B 7 6 n S V z 6 7 B l z 7 k S ",
"l.( 0 J b ) d.=.8 v L D H b = ~.W.A.r 1 5 Z B Z Z B i 4 i F 5 e O.+.F.&.1 y i i u 6 7 F B l B 7 i 5 i 4 6 B l B l 2 k S k k B B l B Z 6 6 V ",
"%.1 h P S 3 4.3.@ n S z z 0 o.(.+X>Xl.q 0 i i s u i i t i F H B C t i t i y 4 t t 5 7 F V l 7 < <.) 4 6 l V z l B 7 6 B 6 6 V B 6 l H l k B ",
"4 7 Z n K v v s : 5 B 5 7 s 1.2.2.| 4.0 1 s 9 L.I.-.d 5 4 i B i i i i 5 i l Z Z i 5 6 B i 4 e #.d.*.1 5 4 6 6 7 7 l 4 y 4 i l l V u B 6 : i ",
": l n n K z 6 6 6 6 7 7 6 l 5 t 7 i 4 s -.P.Q } 1XU.A.=.1 p i 4 i i y 4 Z H H z 5 4 i i 4 r =.u.8.t.r i : : 6 5 t 4 t < < i 6 B B 6 5 6 4 t ",
"2 6 Z l 4 6 6 : 6 B V B B 7 7 1 B H e ) f.f.E Q }.B.t.` 1 i y y i i t 5 Z D Z 7 4 5 4 7 4 w ) -. .d.#.3 l B 7 7 5 6 < 7 2 6 B 7 : 7 5 4 u u ",
"7 4 4 4 8 &.O.r 6 k V l 7 7 6 6 Z L H 1 w %.r q P.{ 1 4 i a 5 e &.+.d i e D 5 4 7 H p 5 4 , 4 : 1 e s 5 l B l 7 6 6 4 i 5 : 5 4 7 B 7 7 u B ",
"7 4 7 1 9 5.j.' O 7 i 6 1 Z 7 < z S n D 6 6 4 4 y < i Z v n 7 1 ) P.G.0 5 7 5 < Z L S l 4 y 4 < i 4 4 4 i 7 2 B 7 : t i 5 : p 4 7 S B t 4 i ",
"t 4 t t 1 &.%.. < 7 4 1 r K.) 3 n S n L S 6 5 4 4 i 4 Z S Z 7 1 r 4.A 4 i 5 4 4 z S S H 5 4 4 i 4 4 5 5 i 7 B i : t 4 i 7 4 7 5 7 B i - 4 i ",
"t 4 6 < 2 7 5 4 > > q =.r.f.` 1 n n S B i 7 i 5 y t 5 i B Z t 5 i y 4 t u 5 i 7 S h n H S 6 7 t t y 4 5 6 B t t < i 7 6 t 4 4 4 4 4 y 4 , 4 ",
"i 4 4 4 5 4 5 4 > > q ' | d.` 1 7 7 7 4 4 i t t 4 t t i 5 i 4 4 t 5 i 5 t 5 7 F H l l 7 7 i 7 t 5 4 y 4 5 4 < 4 : 7 B u u 4 4 7 t y i 4 4 t ",
"4 4 6 7 2 l 7 1 4 < : : 6 B B 7 5 1 &.&.O.1 1 i 4 t i 4 4 y y y i y 7 4 i 5 t i i , 4 i u u 6 i t 6 t 5 t 6 5 i B B i 6 4 5 7 u 7 B B 4 5 6 ",
"4 7 7 7 6 k 6 2 : - 4 i y 4 t t t 1 q d.g._ 1 i i 4 i t t i 4 i y y y 4 4 1 Z s < 4 5 t 6 5 u t 6 7 B i 7 6 i i B k B k 6 7 B l 6 B B u 4 < ",
"4 6 4 4 6 l z 7 4 - 5 B 5 6 6 4 4 5 9 4.5.! 5 y i i t i 5 B i i 5 y 4 y 4 7 4.@.< 5 5 5 u B B 7 7 5 B B l t 4 4 : i 7 B u 6 4 5 u B B 7 4 : ",
"4 7 6 < 2 7 B 7 2 6 B z 6 6 t 4 5 5 8 F.@.1 a 1 i 4 y 4 6 H B 4 4 i 5 5 0 @.f.=.8 5 6 V V B k 6 7 6 l B k B 4 < Z 7 5 5 6 u 6 6 6 B V B 5 4 ",
"2 l S k 2 6 i 6 2 S z n k 6 S l 5 7 7 H 7 7 i u i 4 i i k H S B 5 6 4 7 q d.u.g.) 1 7 Z z B B 7 5 6 k B B 5 5 1 <.#.7 7 6 B S l 6 t B t 7 S ",
"2 l M K z 6 2 2 K S l S l 2 n H S 6 u u 5 u i 7 7 i i 1 z L K P l < 6 r 2.l.b.u.*.8 6 5 7 l 6 4 7 u B B 5 7 6 1 *.j.` 1 g k K K V 7 6 6 S S ",
"2 z z V S 6 2 l n j j n v 3 S B l l B 7 k F Z 5 7 i i i Z D B l i 4 5 7 O.1.2.t.5.! 1 5 4 4 i 6 4 6 u u 4 7 1 9 t.a.2.q 2 V z n V 5 6 l K z ",
"6 l ; 5 7 5 u 5 6 3 6 Z S k 7 4 4 i 5 7 S S S 7 4 i Z 7 l i 6 t i 5 6 u i 7 7 e Z 7 4 5 4 7 t i t 6 u t 7 i 1 v &.b v 3 2 i 1 < 6 6 6 6 7 7 ",
"2 < i F 7 7 6 6 7 4 : 4 t i < y u i l B B B H B i p 7 7 i 7 4 i l 7 B B B i u t 4 6 6 6 6 5 i < t 6 4 i 6 u i 6 : k 5 6 6 6 6 4 7 7 6 5 i < ",
"; 6 7 7 l 7 : 7 B l ; 5 B u l B l 7 7 6 7 u B i 5 i i i 7 i 5 H B 5 B S B S V 5 7 7 6 S H 7 4 < 7 i i i 7 u 7 : C C t 6 4 5 5 6 B B < 7 V K ",
"6 < 6 6 l l < 6 l V B 7 l S S l l l Z l l i t 4 7 i 7 i 7 5 k P V 6 l l S B 7 6 7 < z H K l 2 i 7 7 4 i u u 6 6 l u 6 t 7 6 6 6 z V 2 2 V K ",
": < 2 z z z l 2 z V B 6 7 B B V n 6 l z S z V l i i y i 7 k S L H k 6 B S k 6 6 6 B n K j l 6 6 7 4 i 7 6 u k u u t u : < 4 6 V M n S < z L ",
"2 k l k j z V 6 l i 7 7 7 7 B B Z 6 l B S S i 6 5 7 i 6 Z L L L z z k Z k k B 7 k V H n z D k < i 7 i 1 6 t 7 7 5 7 7 7 < 6 S j n M S k k l ",
"2 6 6 7 B z l 7 l Z 7 2 6 7 7 7 B B l B H l 7 i i 7 i l B B S S S S B 7 B k u l 6 ; 7 6 6 z l 7 5 i 7 7 6 B B B k 4 7 7 5 6 6 6 l l l l 3 A ",
"z l 6 6 6 6 l l l S S t 4 u i 5 6 B B F B 6 l S Z B B i 7 6 ; 5 V B 7 5 i 7 l : ; 7 6 6 6 6 5 4 7 i 7 1 z S z B l 6 7 0 >.` 0 4 2 6 7 3 ' p.",
"n L n j v k l n z n S k 6 B l B B V B l 7 k Z V S l b @.@.@.D l l 6 B l k k u 6 l B k ; B 6 6 6 5 4 7 i l l S l 7 7 6 @ o.:XR.9.X.^ 1 ` u.q.",
"M M M L M 2 g B z l l 7 k H K j I K k l 7 V V B l A 0 2.l.w.u.o.0 h :.D l 6 2 4 6 l 6 k S V n B 7 6 l 7 6 6 7 B k 7 3 O ] Q.OX+X(.] $ ` | t.",
"j K M l g 6 : i 6 6 l l k z K S L B 7 u B B B B h n x b z.i.l.| 0 v n L S 2 6 6 7 7 7 6 l S n S k 2 k S 6 6 7 7 k k 7 1 R T.Q.i.= 1 ; 4 2 6 ",
"g K V g 6 l 7 7 6 7 6 l l 6 z L K 6 7 u 7 7 B B l 7 7 1 2.z.1.0 7 l 6 6 v k 6 6 2 3 6 7 k S z l 6 3 z n S g 1 ' o.t.7./ $ p.).( O 6 6 7 7 6 ",
"k k 6 6 l B l 6 k k v B k 7 l P F 6 6 t k H V V l 7 i 0 ` 6.0 7 l 6 l 6 l 6 7 z 2 l 6 l h l 6 6 k l l M M n @ q p.a.2.* 3 D 6 1 g 6 6 B z h ",
"l 6 l 6 2 l l l 6 6 l 6 7 B 6 i l 5 u l 2 S L L K L n h k J 7 6 2 7 i 6 7 6 6 6 4 6 k 6 2 6 6 k 6 2 l K K z l 7 q j.@.O 7 2 2 k 2 6 l z z l ",
"l 7 6 k 6 k k 7 6 6 l l k 7 5 l 7 4 6 5 2 z L S K M n l ; k 6 6 7 7 6 7 5 6 6 l z v 6 7 6 3 D N 2 3 l l l 6 6 7 2 v 7 2 3 l l k 6 6 2 6 B h ",
"l 3 6 7 l 6 6 7 z 6 6 k k 7 l S S l k 5 l l L L L z 6 7 7 7 7 7 7 6 6 z k 3 2 k z z h l k q T.).c 3 6 6 6 2 2 7 7 6 6 6 l z k l k 7 4 6 l V ",
"6 6 l 6 7 7 3 k 6 7 6 6 7 k B S z S B 6 l l z K K h 6 7 l 6 7 6 6 k 6 6 7 6 6 k l v z l * X.Q.Q.o.% 3 7 2 6 2 6 B < 6 6 6 k B l 2 6 ; 4 l l ",
"6 l 7 7 k k 7 6 6 6 l 6 6 k z S V 7 7 l l k 7 B 7 l 7 7 l 6 l 6 3 z S l < 2 7 l 6 B l 3 = s.Y.Y.R.R O l z k 3 3 4.3.c x 3 6 l 6 3 k x 7 2 6 ",
"6 6 7 7 6 n S V B k 7 6 k B B l l B 6 u 6 6 i k l i 6 l 7 6 l k g n ..3...3 2 2 7 l l 6 6 1 3 l Z g g v g z 6 O X.i.m.q.' 3 3 6 6 8 7.2.c 0 ",
"6 6 k k 2 z n K S k 3 6 7 7 l 7 6 B i B l 6 z v l l 6 : 7 7 7 S k h N :.:.h 2 6 7 V 6 7 < 2 k 2 2 6 6 k g z k 1 / T.p.' 3 2 k 6 k O 2.i.w.q.",
"j l n v 2 l n n l l l k V 6 6 u l 7 7 B 6 6 S S V B 2 6 6 l h n l g j M l 2 2 x #.T.b h l 6 6 l 1 2 l   6 V 3 o * 6.n o @ g z L v . | s.p.[ ",
"6 S z l 2 k S l k 6 k S L K l 2 k 6 6 6 z 7 7 Z 6 6 B k l V z V l g g l g x | i.u.k.b h n j n 6 6 2 6 l 6 2 < 2 l 7 3 ; g j K n k O ) 7.O.1 ",
"6 z Z k 2 l l g k k l m L N L n 6 6 3 D S 3 7 7 6 7 z l g l z z l k 6 2 3 x o.t.q.z.) 3 n j M j g 2 2 D z g 2 2 < 6 2 7 g 2 z S l 2 z A 6 7 "
};
