/* XPM */
static char *result[] = {
/* columns rows colors chars-per-pixel */
"50 20 64 1 ",
"  c #650014",
". c #750018",
"X c #770019",
"o c #7E0023",
"O c #7F0023",
"+ c #8E011E",
"@ c #90011E",
"# c #95001E",
"$ c #96001E",
"% c #800022",
"& c #810023",
"* c #820023",
"= c #830023",
"- c #840023",
"; c #850023",
": c #870023",
"> c #860024",
", c #870024",
"< c #8E0021",
"1 c #8A0024",
"2 c #8B0024",
"3 c #950024",
"4 c #960024",
"5 c #970024",
"6 c #9D0120",
"7 c #9F0120",
"8 c #9F0121",
"9 c #990024",
"0 c #990124",
"q c #9B0025",
"w c #9D0025",
"e c #9E0025",
"r c #A00121",
"t c #A00025",
"y c #A80026",
"u c #A90026",
"i c #A80127",
"p c #AA0026",
"a c #AB0026",
"s c #AA0126",
"d c #AC0026",
"f c #B00027",
"g c #B20027",
"h c #B40026",
"j c #B50026",
"k c #B60026",
"l c #B60027",
"z c #B90027",
"x c #BB0027",
"c c #BC0027",
"v c #BD0027",
"b c #BE0027",
"n c #BF0027",
"m c #C00027",
"M c #C30028",
"N c #C40028",
"B c #C70028",
"V c #C80028",
"C c #C90028",
"Z c #CA0028",
"A c #CB0029",
"S c #CC0029",
"D c #CD0029",
"F c None",
/* pixels */
"FFFFFFFFFFFFFFFFFFFFFFFFFFFFFFFFFFFFFFFFFFFFFFFFFF",
"FFFFFFelVZZZZZZZZZZZZZZZZZZZZZZZZZZZZZZZZVhwFFFFFF",
"FFFFFFelVZZZZZZZZZZZZZZZZZZZZZZZZZZZZZZZZVhwFFFFFF",
"FFFFFFwlVZZZZZZZZZZZZZZZZZZZZZZZZZZZZZZZZVhqFFFFFF",
"FZna3-9lVZZZZZZZZZZZZZZZZZZZZZZZZZZZZZZZZVj5-5dmZF",
"FZna3-9lVZZZZZZZZZZZZZZZZZZZZZZZZZZZZZZZZVj5-5dmZF",
"FFna3-9lVZZZZZZZZZZZZZZZZZZZZZZZZZZZZZZZZVj5-5dmFF",
"FFna3-9lVZZZZZZZZZZZZZZZZZZZZZZZZZZZZZZZZVj5-5dnFF",
"FFca3-9lVZZZZZZZZZZZZZZZZZZZZZZZZZZZZZZZZVj5-5dvFF",
"FFFa3-9lVZZZZZZZZZZZZZZZZZZZZZZZZZZZZZZZZVj5-5dFFF",
"FFFp3-9lVZZZZZZZZZZZZZZZZZZZZZZZZZZZZZZZZVj5-5aFFF",
"FFFy4-9lVZZZZZZZZZZZZZZZZZZZZZZZZZZZZZZZZVj5-5uFFF",
"FFFp3-9lVZZZZZZZZZZZZZZZZZZZZZZZZZZZZZZZZVj5-5pFFF",
"FFFa3-9lVZZZZZZZZZZZZZZZZZZZZZZZZZZZZZZZZVj5-5dFFF",
"FFca3=9kVZZZZZZZZZZZZZZZZZZZZZZZZZZZZZZZZBh5-5dvFF",
"FFba3;txSDDDDDDDDDDDDDDDDDDDDDDDDDDDDDDDDAze;5dnFF",
"FFna3,s6$rFFFFFFFFFFFFFFFFFFFFFFFFFFFFFF7#8i:4dmFF",
"FCnp3%O<. FFFFFFFFFFFFFFFFFFFFFFFFFFFFFF X<o&4dmZF",
"FDMfw1*,0+FFFFFFFFFFFFFFFFFFFFFFFFFFFFFF@0>*2egNDF",
"FFFFFFFFFFFFFFFFFFFFFFFFFFFFFFFFFFFFFFFFFFFFFFFFFF"
};
