/* XPM */
static char *result[] = {
/* columns rows colors chars-per-pixel */
"70 70 209 2 ",
"   c #2A2723",
".  c #2D2A27",
"X  c #2E2C2A",
"o  c #322E2C",
"O  c #35312E",
"+  c #3C322C",
"@  c #322E30",
"#  c #353333",
"$  c #3B3533",
"%  c #3D3835",
"&  c #3C3A3A",
"*  c #363638",
"=  c #43342D",
"-  c #4C352D",
";  c #53372B",
":  c #53382C",
">  c #5C3A2B",
",  c #423733",
"<  c #423A35",
"1  c #4B3C36",
"2  c #433D3A",
"3  c #4A3E3A",
"4  c #4E3731",
"5  c #523731",
"6  c #533A34",
"7  c #5B3C32",
"8  c #503E39",
"9  c #633C2D",
"0  c #6C3C2D",
"q  c #733E2D",
"w  c #7A3D2C",
"e  c #623D33",
"r  c #6B3E32",
"t  c #703F32",
"y  c #45413E",
"u  c #4C423C",
"i  c #574136",
"p  c #5E4236",
"a  c #53443C",
"s  c #5A453C",
"d  c #5B483D",
"f  c #54493E",
"g  c #6C412D",
"h  c #74412E",
"j  c #78412F",
"k  c #644334",
"l  c #6B4333",
"z  c #6C4933",
"x  c #63453B",
"c  c #6C463A",
"v  c #644B3E",
"b  c #6C4C3C",
"n  c #734333",
"m  c #794232",
"M  c #734B34",
"N  c #73453B",
"B  c #7D4739",
"V  c #724A3B",
"C  c #7C493B",
"Z  c #6D503D",
"A  c #74523C",
"S  c #7B543D",
"D  c #3E3E41",
"F  c #423F42",
"G  c #423F49",
"H  c #444343",
"J  c #4A4443",
"K  c #4D4946",
"L  c #444448",
"P  c #49464A",
"I  c #4D4A4C",
"U  c #534640",
"Y  c #5A4641",
"T  c #534A43",
"R  c #5B4C43",
"E  c #534D4B",
"W  c #5A4E49",
"Q  c #56514D",
"!  c #5C524C",
"~  c #4C4D53",
"^  c #534F50",
"/  c #555152",
"(  c #5C5453",
")  c #5F5857",
"_  c #5D5959",
"`  c #56545B",
"'  c #624D42",
"]  c #6B4E42",
"[  c #6B4A45",
"{  c #744B41",
"}  c #794C41",
"|  c #635145",
" . c #6C5444",
".. c #63544C",
"X. c #6A574C",
"o. c #6E594B",
"O. c #64584F",
"+. c #745544",
"@. c #7C5741",
"#. c #7D5C46",
"$. c #72524A",
"%. c #735D4D",
"&. c #7D5B4C",
"*. c #795A48",
"=. c #635652",
"-. c #6A5751",
";. c #655A55",
":. c #6A5B53",
">. c #655B5A",
",. c #695D5B",
"<. c #725E54",
"1. c #7D5F51",
"2. c #79604D",
"3. c #6C6056",
"4. c #736153",
"5. c #7C6353",
"6. c #756159",
"7. c #7A685C",
"8. c #766863",
"9. c #796662",
"0. c #85412C",
"q. c #8C442C",
"w. c #99462D",
"e. c #99462E",
"r. c #844534",
"t. c #8D4532",
"y. c #844936",
"u. c #884A36",
"i. c #834C3A",
"p. c #8B4C3B",
"a. c #844638",
"s. c #934935",
"d. c #9C4C35",
"f. c #944A37",
"g. c #8B533C",
"h. c #8B5A3C",
"j. c #86593E",
"k. c #92523D",
"l. c #9C523D",
"z. c #925E3F",
"x. c #9C593C",
"c. c #A1482F",
"v. c #A9482E",
"b. c #A44B33",
"n. c #AA4D33",
"m. c #A34E39",
"M. c #A4523B",
"N. c #AB563D",
"B. c #A5583E",
"V. c #98603B",
"C. c #A1643D",
"Z. c #844E42",
"A. c #8B4E43",
"S. c #835545",
"D. c #8B5244",
"F. c #855C45",
"G. c #8B5944",
"H. c #8A5249",
"J. c #825C49",
"K. c #865B4A",
"L. c #9B5644",
"P. c #955C45",
"I. c #9B5A44",
"U. c #935C4A",
"Y. c #995A4C",
"T. c #945443",
"R. c #A55743",
"E. c #8F6345",
"W. c #86624C",
"Q. c #8B654C",
"!. c #8F694E",
"~. c #866044",
"^. c #956543",
"/. c #92654B",
"(. c #946A4D",
"). c #9B6C4C",
"_. c #9D6646",
"`. c #836555",
"'. c #8A6B53",
"]. c #846B5B",
"[. c #8A6D5C",
"{. c #946D5D",
"}. c #976E52",
"|. c #8F705E",
" X c #9B7254",
".X c #9B745D",
"XX c #95775C",
"oX c #A96B42",
"OX c #A56849",
"+X c #B4764C",
"@X c #B67A4D",
"#X c #A46C51",
"$X c #A47551",
"%X c #A57658",
"&X c #A37B5B",
"*X c #AB7E5B",
"=X c #A97651",
"-X c #B17750",
";X c #B67C56",
":X c #856E63",
">X c #867167",
",X c #937463",
"<X c #987867",
"1X c #A17C62",
"2X c #B07D61",
"3X c #BD8154",
"4X c #A68068",
"5X c #B38761",
"6X c None",
/* pixels */
"6X6X6X6X6X6X6X6X6X6X6X6X6X6X6X6X6X6X6X6X6X6X6X6X6X6X6X6X6X6X6X6X6X6X6X6X6X6X6X6X6X6X6X6X6X6X6X6X6X6X6X6X6X6X6X6X6X6X6X6X6X6X6X6X6X6X6X6X6X6X",
"6X6X6X6X6X6X6X6X6X6X6X6X6X6X6X6X6X6X6X6X6X6X6X6X6X6X6X6X6X6X6X6X6X6X6X6X6X6X6X6X6X6X6X6X6X6X6X6X6X6X6X6X6X6X6X6X6X6X6X6X6X6X6X6X6X6X6X6X6X6X",
"6X6X6X6X6X6X6X6X6X6X6X6X6X6X6X6X6X6X6X6X6X6X6X6X6X6X6X6X6X6X6X6X6X6X6X6X6X6X6X6X6X6X6X6X6X6X6X6X6X6X6X6X6X6X6X6X6X6X6X6X6X6X6X6X6X6X6X6X6X6X",
"6X6X6X6X6X6X6X6X6X6X6X6X6X6X6X6X6X6X6X6X6X6X6X6X6X6X6X6X6X6X6X6X6X6X6X6X6X6X6X6X6X6X6X6X6X6X6X6X6X6X6X6X6X6X6X6X6X6X6X6X6X6X6X6X6X6X6X6X6X6X",
"6X6X6X6X6X6X6X6X6X6X6X6X6X6X6X6X6X6X6X6X6X6X6X6X6X6X6X6X6X6X6X6X6X6X6X6X6X6X6X6X6X6X6X6X6X6X6X6X6X6X6X6X6X6X6X6X6X6X6X6X6X6X6X6X6X6X6X6X6X6X",
"6X6X6X6X6X6X6X6X6X6X6X6X6X6X6X6X6X6X6X6X6X6X6X6X6X6X6X6X6X6X6X6X6X6X6X6X6X6X6X6X6X6X6X6X6X6X6X6X6X6X6X6X6X6X6X6X6X6X6X6X6X6X6X6X6X6X6X6X6X6X",
"6X6X6X6X6X6X6X6X6X6X6X6X6X6X6X6X6X6X6X6X6X6X6X6X6X6X6X6X6X6X6X6X6X6X6X6X6X6X6X6X6X6X6X6X6X6X6X6X6X6X6X6X6X6X6X6X6X6X6X6X6X6X6X6X6X6X6X6X6X6X",
"6X6X6X6X6X6X6X6X6X6X6X6X6X6X6X6X6X6X6X6X6X6X6X6X6X* $ 2 6X6X6X6X6X6X6X6X6X6X6X6X6X6X6X# & 6X6X6X6X6X6X6X6X6X6X6X6X6X6X6X6X6X6X6X6X6X6X6X6X6X",
"6X6X6X6X6X6X6X6X6X6X6X6X6X6X6X6X6X6X6X6X6X6X6X6X6X# & J 6X6X6X6X6X6X6X6X6X6X6X6X6X6X6X& & 6X6X6X6X6X6X6X6X6X6X6X6X6X6X6X6X6X6X6X6X6X6X6X6X6X",
"6X6X6X6X6X6X6X6X6X6X6X6X6X6X6X6X6X# * 2 6X6X6X6X6XI :.=.6X6X6X6X6X6X6X6X6X6X6X6X6X6X^ 3.E 6X6X6X6X6X6X6X6X6X6X6X6X6X6X6X6X6X6X6X6X6X6X6X6X6X",
"6X6X6X6X6X6X6X6X6X6X6X6X6X6X6X6X6X# $ 2 6X6X6X6X6X,.W =.5.6X6X6X6X6X6X6X6X6X6X6X6X6X;.X.:.6X6X6X6X6X* , & 6X6X6X6X6X6X6X6X6X6X6X6X6X6X6X6X6X",
"6X6X6X6X6X6X6X6X6X6X6X6X6X6X6X6X6X* O & 6X6X6X6X6X<.E X.! 6X6X6X6X6X6X6X6X6X6X6X6X6XJ E 4.6X6X6X6X6X# % * F 6X6X6X6X6X6X6X6X6X6X6X6X6X6X6X6X",
"6X6X6X6X6X6X6X6X6X6X6X6X6X6X6X6X6X& * L ^ 6X6X6X6X^ Q.$X&X6X6X6X6X6X6X6X6X6X6X6X6X].&X X! 6X6X6X6X6XH & * 6X6X6X6X6X6X6X6X6X6X6X6X6X6X6X6X6X",
"6X6X6X6X6X6X6X6X6X6X6X6X6X6X6X6X6X6X! [.,X6X6X6X6X6X#X .#.6X6X6XH 6X6X6X6X2 6X6X6XJ.@.$X'.6X6X6X6X:.:.Q H 6X6X6X6X6X6X6X6X6X6X6X6X6X6X6X6X6X",
"6X6X6X6X6X6X6X6X6X6X6X6X6X6X6X6X6X6X6XR E Q 6X6X6X6XV c b V 6X^ ) I L 6XP _ ( 6X6Xp b @.W.6X6X6X6X-.5.4.6X6X6X6X6X6X6X6X6X6X6X6X6X6X6X6X6X6X",
"6X6X6X6X6X6X6X6X6X6X6X6X6X6X6X6X6X6X6XJ 2 ! 6X6X6X6XV y.p.A.6X( ! T J 6XH R 3._ { r k.N 6X6X6X6X& 2 J %.6X6X6X6X6X6X6X6X6X6X6X6X6X6X6X6X6X6X",
"6X6X6X6X6X6X6X6X6X6X6X6X6X6X6X6X6X6X6X:.*X*X*X6X6X6XY.m.l.Z.W E T u H y < T =.) V p.N.L.6X6X6X6X&XXX! 6X6X6X6X6X6X6X6X6X6X6X6X6X6X6X6X6X6X6X",
"6X6X6X6X6X6X6X6X6X6X6X6X6X6X6X6X6X6X6X<.^.@.#.+.6X6XH.f.t c W J f y H H $ T ! E e n M.T.6X6X6XJ.!.=X%.6X6X6X6X6X6X6X6X6X6X6X6X6X6X6X6X6X6X6X",
"6X6X6X6X6X6X6X6X6X6X6X6X6X6X6X6X6X6X6X6X^.b v i.6X6X6X0 ; p R y u 3 2 D @ u T W ' ; m c 6X6Xk b +.^.Q.6X6X6X6X6X6X6X6X6X6X6X6X6X6X6X6X6X6X6X",
"6X6X6X6X6X6X6X6X6X6X6X6X6X6X6X6X6X6X6X6XW.c c u.T.6X6X+.S O./ 2 < 2 H P * < 3 ^ :.V b 6X6X} a.b Z F.6X6X6X6X6X6X6X6X6X6X6X6X6X6X6X6X6X6X6X6X",
"6X6X6X6X6X6X6X6X6X6X6X6X6X6X6X6X6X6X6X6X$.C f.f.k.} 6X( =.<.-.G * 3 [ &.1 % 2 ;.9...Q 6X6XB a.f.M +.6X6X6X6X6X6X6X6X6X6X6X6X6X6X6X6X6X6X6X6X",
"6X6X6X6X6X6X6X6X6X6X6X6X6X6X6X6X6X6X6X6X6XY.l.m.C V A 6X,.{.U.x 8 x ] $.S +.H./..X;.6X6Xe C B.m.D.6X6X6X6X6X6X6X6X6X6X6X6X6X6X6X6X6X6X6X6X6X",
"6X6X6X6X6X6X6X6X6X6X6X6X6X6X6X6X6X6X6X6X6X6XR.d.9 : V K ) K.l.5 X @ H J # $ b k.J.:.I Z : e d.m.H.6X6X6X6X6X6X6X6X6X6X6X6X6X6X6X6X6X6X6X6X6X",
"6X6X6X6X6X6X6X6X6X6X6X6X6X6X6X6X6X6X6X6X6X6XZ.r.> z Z J :XV a.e @ & E E I 2 v V A `.E +.n ; t.Z.6X6X6X6X6X6X6X6X6X6X6X6X6X6X6X6X6X6X6X6X6X6X",
"6X6X6X6X6X6X6X6X6X6X6X6X6X6X6X6X6X6X6X6X6X6X6Xk S @.f ! `.4 5 6 @ & I I H & f 1 x 1.=.R G.V l 6X6X6X6X6X6X6X6X6X6X6X6X6X6X6X6X6X6X6X6X6X6X6X",
"6X6X6X6X6X6X6X6X6X6X6X6X* < D P -.=.6X6X6X6X6X6X' R ! 6.K.6 , & & D L L H 2 2 $ 4 *.<.! R A 6X6X6X6X6X6X6X6X6X6Xy 6X6X6X6X6X6X6X6X6X6X6X6X6X",
"6X6X6X6X6X6X6X6X6X6X6X6Xo o * O.O.H |.~.] N u.Z.{ o./ 8.Y.t 1 & * # & D & * * , N P.7.^ R ' Z.A.+.~.4X4.;.7.( D 1 & 6X6X6X6X6X6X6X6X6X6X6X6X",
"6X6X6X6X6X6X6X6X6X6X6X6X$ X O '.Y ..OXA x l r.p.l | _ >X@.= , & # # * & & * # 1 5 S.9._ d c A.u.c  .!.3XW R ].H $ * 6X6X6X6X6X6X6X6X6X6X6X6X",
"6X6X6X6X6X6X6X6X6X6X6X6XH O y X.5.f @Xh.z m n.d.r p ;.,XU.- # # # @ O % & * * % p Y.:X;.i e x.N.B z S -XR R 2.O X $ 6X6X6X6X6X6X6X6X6X6X6X6X",
"6X6X6X6X6X6X6X6X6X6X6X6X6X6X6X6X}.R }._.z t.b.v.w A ..<XY.7 @ @ # # O $ $ * * $ v I.[.:.b w n.w.0.g V.).U W.R H & 6X6X6X6X6X6X6X6X6X6X6X6X6X",
"6X6X6X6X6X6X6X6X6X6X6X6X6X6X6X6X6X6X6X6X6XY.L.u.9 Z ( <XG.6 @ @ # # O O O & * # 6 g.|.=.@.0 s.M.p.b ^.6X6X6X6X6X6X6X6X6X6X6X6X6X6X6X6X6X6X6X",
"6X6X6X6X6X6X6X6X6X6X6X6X6X6X6X6X6X6X6X6X6X6X6X6X6X6X/ 4XG., @ # # # + + O $ $ % 6 k.<X( v k 6X6X6X6X6X6X6X6X6X6X6X6X6X6X6X6X6X6X6X6X6X6X6X6X",
"6X6X6X6X6X6X6X6X6X6X6X6X6X6X6X6X6X6X6X6X6X6X6X6XY ..~ <X_.5 O O # O = + o O + - n I.:XI ! 6X6X6X6X6X6X6X6X6X6X6X6X6X6X6X6X6X6X6X6X6X6X6X6X6X",
"6X6X6X6X6X6X6X6X6X6X6X6X6X6X6X6X6X6X6X6X6X6X6X{ r v <.8.#Xt o O X X = = + o + + q _.8.=.Y { 6X6X6X6X6X6X6X6X6X6X6X6X6X6X6X6X6X6X6X6X6X6X6X6X",
"6X6X6X6X6X6X6X6X6X6X6X6X6X6X6X6X6X6X6X6X6X6XC a.n e &.>.#X7 o O O + p 1 % + O o 7 }.>.] - B Y.H.6X6X6X6X6X6X6X6X6X6X6X6X6X6X6X6X6X6X6X6X6X6X",
"6X6X6X6X6X6X6X6X6X6X6X6X6X6X6X6X6X6X6X6X6Xx r d.b.r.b ( ;XB 7 O y + k k 1 + O = u.1X( b r.d.l.p.A 6X6X6X6X6X6X6X6X6X6X6X6X6X6X6X6X6X6X6X6X6X",
"6X6X6X6X6X6X6X6X6X6X6X6X6X6X6X6X6X6X6X6X*.8 m e.c.t e 6X;XR.r = + ; q h : = = : x..XW e 0.b.b.C +. X6X6X6X6X6X6X6X6X6X6X6X6X6X6X6X6X6X6X6X6X",
"6X6X6X6X6X6X6X6X6X6X6X6X6X6X6X6X6X6X6XQ.A z h w.d.B 6X~ <XOX0 = ; q 0.q.q - 9 h P.].6X6Xu.b.q.l v !.6X6X6X6X6X6X6X6X6X6X6X6X6X6X6X6X6X6X6X6X",
"6X6X6X6X6X6X6X6X6X6X6X6X6X6X6X6X6X6XI Q.h.M g u.6X6X( ` 9.%Xi.l m q.q.q.q.g h g./.>.~ I 6XL.q.g z E.5.6X6X6X6X6X6X6X6X6X6X6X6X6X6X6X6X6X6X6X",
"6X6X6X6X6X6X6X6X6X6X6X6X6X6X6X6X6X6XJ '.@XV.V 6X6XY $.5.I |.Q.V z M g h n z M j.1.P -.X.| 6XV z V.oX5...6X6X6X6X6X6X6X6X6X6X6X6X6X6X6X6X6X6X",
"6X6X6X6X6X6X6X6X6X6X6X6X6X6X6X6X6X-.< $  .+X6X6X{ 7 7 Q.' E <.Y u u u a T f d o.I v A 4 c 6X6Xz.@X(.u f 6X6X6X6X6X6X6X6X6X6X6X6X6X6X6X6X6X6X",
"6X6X6X6X6X6X6X6X6X6X6X6X6X6X6X6XL 2.b a y 6X6X6Xi.a.r.k A L H 2 i a d v  . .! E H Z 7 w i.A.6X6X6X< < i o.6X6X6X6X6X6X6X6X6X6X6X6X6X6X6X6X6X",
"6X6X6X6X6X6X6X6X6X6X6X6X6X6X6X& * ' !.(.6X6X6X} t.n.w.r 6XL # + = y u a u a 1 y P 6Xt b.M.g.6X6X6X6X#.).o.P D 6X6X6X6X6X6X6X6X6X6X6X6X6X6X6X",
"6X6X6X6X6X6X6X6X6X6X6X6X6X6X& o o $ y 6X6X6X6Xc r.w.b.V I & o + + + u u u < < % L 6Xu.n.b.u.} 6X6X6X*.a * & u 6X6X6X6X6X6X6X6X6X6X6X6X6X6X6X",
"6X6X6X6X6X6X6X6X6X6X6X6X6X6XO X . $ 6X6X6X6X1.s h q.d.6XP # o o O O & y 2 % % % & ~ 6Xb.0.n +.6X6X6X6XT O . O 6X6X6X6X6X6X6X6X6X6X6X6X6X6X6X",
"6X6X6X6X6X6X6X6X6X6X6X6X6X6X6XO o 6X6X6X6X6XQ.k k n Z.I F @ @ @ O % 2 y y < % $ & E 6Xk.q k  .6X6X6X6X6X$   o 6X6X6X6X6X6X6X6X6X6X6X6X6X6X6X",
"6X6X6X6X6X6X6X6X6X6X6X6X6X6X6X6X6X6X6X6X6X6X(.M M l 6X^ 2 = # , % y y y u 2 < & 2 I E b g z A %X6X6X6X6X6X$ $ 6X6X6X6X6X6X6X6X6X6X6X6X6X6X6X",
"6X6X6X6X6X6X6X6X6X6X6X6X6X6X6X6X6X6X6X6X6X6X(.oXoXG.6X/ $ , @ F y u y 2 3 & 3 3 a H ^ 6Xh.C.V.'.6X6X6X6X6X6X6X6X6X6X6X6X6X6X6X6X6X6X6X6X6X6X",
"6X6X6X6X6X6X6X6X6X6X6X6X6X6X6X6X6X6X6X6X6X6X2.(.(.6X6X( 3 1 $ , 2 3 2 2 3 2 u u u u Q 6X@X3X3XR 6X6X6X6X6X6X6X6X6X6X6X6X6X6X6X6X6X6X6X6X6X6X",
"6X6X6X6X6X6X6X6X6X6X6X6X6X6X6X6X6X6X6X6X6X6X< % % 6X6X( 1 1 $ 3 2 % % 3 u < a u < J I 6X6X< % y 6X6X6X6X6X6X6X6X6X6X6X6X6X6X6X6X6X6X6X6X6X6X",
"6X6X6X6X6X6X6X6X6X6X6X6X6X6X6X6X6X6X6X6X6X6Xb ' 6X6X_ W 2 3 2 3 % $ % u y < u u u d I 6X6XR a i 6X6X6X6X6X6X6X6X6X6X6X6X6X6X6X6X6X6X6X6X6X6X",
"6X6X6X6X6X6X6X6X6X6X6X6X6X6X6X6X6X6X6X6X6X..Q.#.6X6X) E 3 U 3 3 2 2 % u 2 u Y U 1 a T 6X6X!.).W.6X6X6X6X6X6X6X6X6X6X6X6X6X6X6X6X6X6X6X6X6X6X",
"6X6X6X6X6X6X6X6X6X6X6X6X6X6X6X6X6X6X6X6XL 2 < 2 6X6X6X! U J F 3 < 2 $ u < f T a u 1 W 6X6XW a f L 6X6X6X6X6X6X6X6X6X6X6X6X6X6X6X6X6X6X6X6X6X",
"6X6X6X6X6X6X6X6X6X6X6X6X6X6X6X6X6X6X6X6X2 o X 2 6X6X6X=.f u J 3 , 3 , u y f f f f a ! 6X6X6X$ O y 6X6X6X6X6X6X6X6X6X6X6X6X6X6X6X6X6X6X6X6X6X",
"6X6X6X6X6X6X6X6X6X6X6X6X6X6X6X6X6X6X6X6X*     2 6X6X6X=.a Y u 3 < 1 u s < u u T U T ( 6X6X6XO   + 6X6X6X6X6X6X6X6X6X6X6X6X6X6X6X6X6X6X6X6X6X",
"6X6X6X6X6X6X6X6X6X6X6X6X6X6X6X6X6X6X6X6XO o # 6X6X6X6X;.U d a 1 1 a a a u u u u a T ( 6X6X6X* . o 6X6X6X6X6X6X6X6X6X6X6X6X6X6X6X6X6X6X6X6X6X",
"6X6X6X6X6X6X6X6X6X6X6X6X6X6X6X6X6X6X6X6X6X6X6X6X6X6X6X;.R u U 1 s i d a 1 1 u < a ( 6X6X6X6X6X$ o 6X6X6X6X6X6X6X6X6X6X6X6X6X6X6X6X6X6X6X6X6X",
"6X6X6X6X6X6X6X6X6X6X6X6X6X6X6X6X6X6X6X6X6X6X6X6X6X6X6X6X=.u a s p a d a 1 1 a < J =.6X6X6X6X6X6X6X6X6X6X6X6X6X6X6X6X6X6X6X6X6X6X6X6X6X6X6X6X",
"6X6X6X6X6X6X6X6X6X6X6X6X6X6X6X6X6X6X6X6X6X6X6X6X6X6X6X6X>.W f f a p R a i 6 s u ! 6X6X6X6X6X6X6X6X6X6X6X6X6X6X6X6X6X6X6X6X6X6X6X6X6X6X6X6X6X",
"6X6X6X6X6X6X6X6X6X6X6X6X6X6X6X6X6X6X6X6X6X6X6X6X6X6X6X6X6X:.! R d Y Y R d u f W ;.6X6X6X6X6X6X6X6X6X6X6X6X6X6X6X6X6X6X6X6X6X6X6X6X6X6X6X6X6X",
"6X6X6X6X6X6X6X6X6X6X6X6X6X6X6X6X6X6X6X6X6X6X6X6X6X6X6X6X6X:.:.R | ' R W ' Y | ;.6X6X6X6X6X6X6X6X6X6X6X6X6X6X6X6X6X6X6X6X6X6X6X6X6X6X6X6X6X6X",
"6X6X6X6X6X6X6X6X6X6X6X6X6X6X6X6X6X6X6X6X6X6X6X6X6X6X6X6X6X6X6X..X. .| ' W ' ..6X6X6X6X6X6X6X6X6X6X6X6X6X6X6X6X6X6X6X6X6X6X6X6X6X6X6X6X6X6X6X",
"6X6X6X6X6X6X6X6X6X6X6X6X6X6X6X6X6X6X6X6X6X6X6X6X6X6X6X6X6X6X6X6X=.:.3.3.;.6X6X6X6X6X6X6X6X6X6X6X6X6X6X6X6X6X6X6X6X6X6X6X6X6X6X6X6X6X6X6X6X6X",
"6X6X6X6X6X6X6X6X6X6X6X6X6X6X6X6X6X6X6X6X6X6X6X6X6X6X6X6X6X6X6X6X6X6X6X6X6X6X6X6X6X6X6X6X6X6X6X6X6X6X6X6X6X6X6X6X6X6X6X6X6X6X6X6X6X6X6X6X6X6X",
"6X6X6X6X6X6X6X6X6X6X6X6X6X6X6X6X6X6X6X6X6X6X6X6X6X6X6X6X6X6X6X6X6X6X6X6X6X6X6X6X6X6X6X6X6X6X6X6X6X6X6X6X6X6X6X6X6X6X6X6X6X6X6X6X6X6X6X6X6X6X",
"6X6X6X6X6X6X6X6X6X6X6X6X6X6X6X6X6X6X6X6X6X6X6X6X6X6X6X6X6X6X6X6X6X6X6X6X6X6X6X6X6X6X6X6X6X6X6X6X6X6X6X6X6X6X6X6X6X6X6X6X6X6X6X6X6X6X6X6X6X6X",
"6X6X6X6X6X6X6X6X6X6X6X6X6X6X6X6X6X6X6X6X6X6X6X6X6X6X6X6X6X6X6X6X6X6X6X6X6X6X6X6X6X6X6X6X6X6X6X6X6X6X6X6X6X6X6X6X6X6X6X6X6X6X6X6X6X6X6X6X6X6X",
"6X6X6X6X6X6X6X6X6X6X6X6X6X6X6X6X6X6X6X6X6X6X6X6X6X6X6X6X6X6X6X6X6X6X6X6X6X6X6X6X6X6X6X6X6X6X6X6X6X6X6X6X6X6X6X6X6X6X6X6X6X6X6X6X6X6X6X6X6X6X",
"6X6X6X6X6X6X6X6X6X6X6X6X6X6X6X6X6X6X6X6X6X6X6X6X6X6X6X6X6X6X6X6X6X6X6X6X6X6X6X6X6X6X6X6X6X6X6X6X6X6X6X6X6X6X6X6X6X6X6X6X6X6X6X6X6X6X6X6X6X6X",
"6X6X6X6X6X6X6X6X6X6X6X6X6X6X6X6X6X6X6X6X6X6X6X6X6X6X6X6X6X6X6X6X6X6X6X6X6X6X6X6X6X6X6X6X6X6X6X6X6X6X6X6X6X6X6X6X6X6X6X6X6X6X6X6X6X6X6X6X6X6X"
};
