/* XPM */
static char *result[] = {
/* columns rows colors chars-per-pixel */
"70 70 202 2 ",
"   c #2D2926",
".  c #2F2C2A",
"X  c #332E2C",
"o  c #35312D",
"O  c #3B322C",
"+  c #312E30",
"@  c #353333",
"#  c #3A3533",
"$  c #3D3836",
"%  c #393739",
"&  c #3C3A3A",
"*  c #43342D",
"=  c #4B362E",
"-  c #55392D",
";  c #593A2C",
":  c #54372B",
">  c #423633",
",  c #4F3530",
"<  c #423A35",
"1  c #4A3D36",
"2  c #443D3B",
"3  c #4B3E3A",
"4  c #523731",
"5  c #533B34",
"6  c #5C3D33",
"7  c #503E39",
"8  c #623C2D",
"9  c #6D3D2D",
"0  c #733E2D",
"q  c #7A3E2C",
"w  c #623D33",
"e  c #6C3E32",
"r  c #713E32",
"t  c #45413E",
"y  c #4C423C",
"u  c #4C4035",
"i  c #5A4336",
"p  c #53443C",
"a  c #5B443B",
"s  c #55483F",
"d  c #5A493D",
"f  c #6C412E",
"g  c #74422F",
"h  c #7E402F",
"j  c #644334",
"k  c #6B4434",
"l  c #6E4934",
"z  c #62453B",
"x  c #6D463B",
"c  c #654B3E",
"v  c #6C4C3C",
"b  c #744233",
"n  c #7A4331",
"m  c #754B36",
"M  c #794F34",
"N  c #72453A",
"B  c #7C4739",
"V  c #734B3B",
"C  c #7C4A3B",
"Z  c #6E503E",
"A  c #73523D",
"S  c #7A543D",
"D  c #3F3D42",
"F  c #413E40",
"G  c #444243",
"H  c #4B4543",
"J  c #47464A",
"K  c #494749",
"L  c #4E4A4C",
"P  c #4C4947",
"I  c #544641",
"U  c #5A4641",
"Y  c #544A44",
"T  c #5C4C43",
"R  c #534C4B",
"E  c #5B4E4A",
"W  c #56504D",
"Q  c #5C524C",
"!  c #4C4E53",
"~  c #534F50",
"^  c #575151",
"/  c #5C5553",
"(  c #535258",
")  c #5B575D",
"_  c #634D43",
"`  c #6A4D43",
"'  c #654F4B",
"]  c #744C41",
"[  c #7A4C41",
"{  c #635246",
"}  c #6D5444",
"|  c #63544B",
" . c #6A564D",
".. c #67584D",
"X. c #6C594D",
"o. c #735444",
"O. c #795645",
"+. c #7B5944",
"@. c #775D4C",
"#. c #7C5C4B",
"$. c #785949",
"%. c #635651",
"&. c #685750",
"*. c #655953",
"=. c #6B5C54",
"-. c #645B5A",
";. c #695B59",
":. c #745E52",
">. c #76614F",
",. c #79614E",
"<. c #6B6056",
"1. c #7D6454",
"2. c #73645C",
"3. c #7B645B",
"4. c #766452",
"5. c #776963",
"6. c #85422D",
"7. c #8C452D",
"8. c #96442D",
"9. c #9A472F",
"0. c #844534",
"q. c #8D4633",
"w. c #844936",
"e. c #874738",
"r. c #834B39",
"t. c #8C4D3B",
"y. c #884A36",
"u. c #924935",
"i. c #9C4B35",
"p. c #934C3A",
"a. c #9E4D3A",
"s. c #81573E",
"d. c #8B523E",
"f. c #8C5C3E",
"g. c #92523D",
"h. c #9C513C",
"j. c #925E3D",
"k. c #9B593C",
"l. c #A6482F",
"z. c #A34B33",
"x. c #AA4D34",
"c. c #A14F3B",
"v. c #A4523B",
"b. c #A4583E",
"n. c #9B623C",
"m. c #A0633D",
"M. c #874E41",
"N. c #8A4E42",
"B. c #825545",
"V. c #895143",
"C. c #855D43",
"Z. c #8D5947",
"A. c #825748",
"S. c #835C4A",
"D. c #895F49",
"F. c #88534A",
"G. c #925343",
"H. c #9C5542",
"J. c #975C44",
"K. c #9A5943",
"L. c #995749",
"P. c #935C4A",
"I. c #985B4E",
"U. c #A25743",
"Y. c #8D6446",
"T. c #85624B",
"R. c #8C654A",
"E. c #936444",
"W. c #94634B",
"Q. c #936A4C",
"!. c #9C6D4D",
"~. c #9C6546",
"^. c #9C714F",
"/. c #816454",
"(. c #8C6C54",
"). c #896C5D",
"_. c #916B5C",
"`. c #9C6D51",
"'. c #8D7158",
"]. c #997155",
"[. c #9C765A",
"{. c #96715B",
"}. c #A56A43",
"|. c #A4694A",
" X c #AF774D",
".X c #B1754A",
"XX c #A46C52",
"oX c #A37454",
"OX c #AF7751",
"+X c #A57957",
"@X c #A67658",
"#X c #A87956",
"$X c #B67C57",
"%X c #816F69",
"&X c #856C61",
"*X c #8C7465",
"=X c #937563",
"-X c #9A7866",
";X c #A27D64",
":X c #AF7C61",
">X c #A9815E",
",X c None",
/* pixels */
",X,X,X,X,X,X,X,X,X,X,X,X,X,X,X,X,X,X,X,X,X,X,X,X,X,X,X,X,X,X,X,X,X,X,X,X,X,X,X,X,X,X,X,X,X,X,X,X,X,X,X,X,X,X,X,X,X,X,X,X,X,X,X,X,X,X,X,X,X,X",
",X,X,X,X,X,X,X,X,X,X,X,X,X,X,X,X,X,X,X,X,X,X,X,X,X,X,X,X,X,X,X,X,X,X,X,X,X,X,X,X,X,X,X,X,X,X,X,X,X,X,X,X,X,X,X,X,X,X,X,X,X,X,X,X,X,X,X,X,X,X",
",X,X,X,X,X,X,X,X,X,X,X,X,X,X,X,X,X,X,X,X,X,X,X,X,X,X,X,X,X,X,X,X,X,X,X,X,X,X,X,X,X,X,X,X,X,X,X,X,X,X,X,X,X,X,X,X,X,X,X,X,X,X,X,X,X,X,X,X,X,X",
",X,X,X,X,X,X,X,X,X,X,X,X,X,X,X,X,X,X,X,X,X,X,X,X,X,X,X,X,X,X,X,X,X,X,X,X,X,X,X,X,X,X,X,X,X,X,X,X,X,X,X,X,X,X,X,X,X,X,X,X,X,X,X,X,X,X,X,X,X,X",
",X,X,X,X,X,X,X,X,X,X,X,X,X,X,X,X,X,X,X,X,X,X,X,X,X,X,X,X,X,X,X,X,X,X,X,X,X,X,X,X,X,X,X,X,X,X,X,X,X,X,X,X,X,X,X,X,X,X,X,X,X,X,X,X,X,X,X,X,X,X",
",X,X,X,X,X,X,X,X,X,X,X,X,X,X,X,X,X,X,X,X,X,X,X,X,X,X,X,X,X,X,X,X,X,X,X,X,X,X,X,X,X,X,X,X,X,X,X,X,X,X,X,X,X,X,X,X,X,X,X,X,X,X,X,X,X,X,X,X,X,X",
",X,X,X,X,X,X,X,X,X,X,X,X,X,X,X,X,X,X,X,X,X,X,X,X,X,X,X,X,X,X,X,X,X,X*.<.<.<.=.,X,X,X,X,X,X,X,X,X,X,X,X,X,X,X,X,X,X,X,X,X,X,X,X,X,X,X,X,X,X,X",
",X,X,X,X,X,X,X,X,X,X,X,X,X,X,X,X,X,X,X,X,X,X,X,X,X,X,X,X,X,X,X,X| { T _ { { ..| | ,X,X,X,X,X,X,X,X,X,X,X,X,X,X,X,X,X,X,X,X,X,X,X,X,X,X,X,X,X",
",X,X,X,X,X,X,X,X,X,X,X,X,X,X,X,X,X,X,X,X,X,X,X,X,X,X,X,X,X,X,X*.| T _ T T _ _ T X.;.,X,X,X,X,X,X,X,X,X,X,X,X,X,X,X,X,X,X,X,X,X,X,X,X,X,X,X,X",
",X,X,X,X,X,X,X,X,X,X,X,X,X,X,X,X,X,X,X,X,X,X,X,X,X,X,X,X,X,X,XQ p y i T T U a d T ;.,X,X,X,X,X,X,X,X,X,X,X,X,X,X,X,X,X,X,X,X,X,X,X,X,X,X,X,X",
",X,X,X,X,X,X,X,X,X,X,X,X,X,X,X,X,X,X,X,X,X,X,X,X,X,X,X,X,X,XQ y a 7 p 7 T a p p p Q *.,X,X,X,X,X,X,X,X,X,X,X,X,X,X,X,X,X,X,X,X,X,X,X,X,X,X,X",
",X,X,X,X,X,X,X,X,X,X,X,X,X,X,X,X,X,X,X,X,X,X,X,X,X,X,X,X,X%.Y 2 p 1 7 7 a a a i a y Q ,X,X,X,X,X,X,X,X,X,X,X,X,X,X,X,X,X,X,X,X,X,X,X,X,X,X,X",
",X,X,X,X,X,X,X,X,X,X,X,X,X,X,X,X,X,X,X,X,X,XX O ,X,X,X,X,XQ Y 1 1 1 u y d a a p I t T %.,X,X,X,X,X,X,X,X,X,X,X,X,X,X,X,X,X,X,X,X,X,X,X,X,X,X",
",X,X,X,X,X,X,X,X,X,X,X,X,X,X,X,X,X,X,X,X,X,Xo   @ ,X,X,X,XR Y y t u y p p p 1 3 p d I %.,X,X,X,X@ o o ,X,X,X,X,X,X,X,X,X,X,X,X,X,X,X,X,X,X,X",
",X,X,X,X,X,X,X,X,X,X,X,X,X,X,X,X,X,X,X,X,X,XO . @ ,X,X,X/ Y s I y y t p 1 3 < 3 y T p Q ,X,X,X,X    @ ,X,X,X,X,X,X,X,X,X,X,X,X,X,X,X,X,X,X,X",
",X,X,X,X,X,X,X,X,X,X,X,X,X,X,X,X,X,X,X,X,X,Xt # # ,X,X,XQ y p p s s t u < 1 < 3 3 t p / ,X,X,Xt X X $ ,X,X,X,X,X,X,X,X,X,X,X,X,X,X,X,X,X,X,X",
",X,X,X,X,X,X,X,X,X,X,X,X,X,X,X,X,X,X,X,X,X,XG T d T ,X,XR p 3 p I p 3 y > 2 > 7 F p p Q / ,X,X2 # & G ,X,X,X,X,X,X,X,X,X,X,X,X,X,X,X,X,X,X,X",
",X,X,X,X,X,X,X,X,X,X,X,X,X,X,X,X,X,X,X,X,X,X,X#.R.R.,X,XY p y p s y 2 H > 2 2 F 3 I t Y / ,X,X+.T.{ ,X,X,X,X,X,X,X,X,X,X,X,X,X,X,X,X,X,X,X,X",
",X,X,X,X,X,X,X,X,X,X,X,X,X,X,X,X,X,X,X,X,X,X,Xp p d ,X,XL I y y p 2 3 3 > $ % 2 3 3 3 R ) ,X,X{ Z X.,X,X,X,X,X,X,X,X,X,X,X,X,X,X,X,X,X,X,X,X",
",X,X,X,X,X,X,X,X,X,X,X,X,X,X,X,X,X,X,X,X,X,X,Xy 1 u ,X,XL I 1 u u t F 2 < < > 2 > 1 2 Q / ,X,X$ 3 ,X,X,X,X,X,X,X,X,X,X,X,X,X,X,X,X,X,X,X,X,X",
",X,X,X,X,X,X,X,X,X,X,X,X,X,X,X,X,X,X,X,X,X,X,X{ #X>X.X,XR I y p y 2 2 2 3 3 F 2 # 1 2 ^ ,X,XY.R.@.,X,X,X,X,X,X,X,X,X,X,X,X,X,X,X,X,X,X,X,X,X",
",X,X,X,X,X,X,X,X,X,X,X,X,X,X,X,X,X,X,X,X,X,X,X(.j.n.j.,X^ F H 2 1 & 3 2 F F 3 1 @ > > R ,X,X}.}.Q.,X,X,X,X,X,X,X,X,X,X,X,X,X,X,X,X,X,X,X,X,X",
",X,X,X,X,X,X,X,X,X,X,X,X,X,X,X,X@ O $ ,X,X,X,X#XS k f v R P 2 2 < 2 t t F F 2 > @ # 2 ~ ,Xl M M W.,X,X,X,X,X,X,X,X,X,X,X,X,X,X,X,X,X,X,X,X,X",
",X,X,X,X,X,X,X,X,X,X,X,X,X,X,X,XX   @ ,X,X,X,X,Xo.j 0 p.,X~ 2 $ $ 2 t 2 2 2 + O + + F L C g j z T.,X,X,X,X,Xo o ,X,X,X,X,X,X,X,X,X,X,X,X,X,X",
",X,X,X,X,X,X,X,X,X,X,X,X,X,X,X,X# X o y ,X,X,X,Xo.N 6.z.d.! 2 $ # $ t t $ @ o o X @ G ,XG.8.0 i #.,X,X,X,X$     o ,X,X,X,X,X,X,X,X,X,X,X,X,X",
",X,X,X,X,X,X,X,X,X,X,X,X,X,X,X,Xt & 2 d $.,X,X,X[ y.z.x.y.,XG & 1 > t y u O O o X % J x 9.9.0.x ,X,X,X,Xt # . X % ,X,X,X,X,X,X,X,X,X,X,X,X,X",
",X,X,X,X,X,X,X,X,X,X,X,X,X,X,X,X,XJ X.Y.+.d ,X,X,Xt.h.l.0 ,XK t u p y s u 1 * O @ G ,Xe 9.x.u.[ ,X,X,XR.R.T % & ,X,X,X,X,X,X,X,X,X,X,X,X,X,X",
",X,X,X,X,X,X,X,X,X,X,X,X,X,X,X,X,X,XX.i 1 y ,X,X,XV.C g j v H R Q { } c d i p t G J A j 0.0.r.,X,X,X,Xd Z @.G ,X,X,X,X,X,X,X,X,X,X,X,X,X,X,X",
",X,X,X,X,X,X,X,X,X,X,X,X,X,X,X,X,X,X,XT y Q..Xf.,X,XN 4 v _ R X.c s s p u y y Y :.R _ T.j w N ,X,X.X} > 1 &.,X,X,X,X,X,X,X,X,X,X,X,X,X,X,X,X",
",X,X,X,X,X,X,X,X,X,X,X,X,X,X,X,X,X,X,X| 1.}.n.l m ,X' |  .L >.s.m f g g f n l m R.&XR 1.o.U I ,XV m..XT.H ,X,X,X,X,X,X,X,X,X,X,X,X,X,X,X,X,X",
",X,X,X,X,X,X,X,X,X,X,X,X,X,X,X,X,X,X,X,X1.Y.l f q.h.,XR ! -.R.d.g f 7.7.7.6.b j r.XX5.( ( ,X,Xy.f M n.T.Y ,X,X,X,X,X,X,X,X,X,X,X,X,X,X,X,X,X",
",X,X,X,X,X,X,X,X,X,X,X,X,X,X,X,X,X,X,X,X,XQ.c k 7.z.y.,X,X).J.g ; - 9 7.6.g - = e }.-X( ,XC i.9.f j S /.,X,X,X,X,X,X,X,X,X,X,X,X,X,X,X,X,X,X",
",X,X,X,X,X,X,X,X,X,X,X,X,X,X,X,X,X,X,X,X,X].o.C c.z.7.w E [.k.; * * = q 9 : * O e b.:X,X6 n 9.8.q 6 O.,X,X,X,X,X,X,X,X,X,X,X,X,X,X,X,X,X,X,X",
",X,X,X,X,X,X,X,X,X,X,X,X,X,X,X,X,X,X,X,X,X,XA N.h.a.q ` / +Xw.* o $ 1 j 8 > > O ; B $X/ v 6.z.a.r _ ,X,X,X,X,X,X,X,X,X,X,X,X,X,X,X,X,X,X,X,X",
",X,X,X,X,X,X,X,X,X,X,X,X,X,X,X,X,X,X,X,X,X,X,XZ.L.C 4 _ ) `.6 X o O $ 7 6 O O o O 6 XX-.#.j B e.[ ,X,X,X,X,X,X,X,X,X,X,X,X,X,X,X,X,X,X,X,X,X",
",X,X,X,X,X,X,X,X,X,X,X,X,X,X,X,X,X,X,X,X,X,X,X,X,XN U %.5.~.g O O o o O * o . o X b XX5.:.z e N ,X,X,X,X,X,X,X,X,X,X,X,X,X,X,X,X,X,X,X,X,X,X",
",X,X,X,X,X,X,X,X,X,X,X,X,X,X,X,X,X,X,X,X,X,X,X,X,X,XQ ! *Xk.f = O o X O * o o o O 6 P.=X~ | a ,X,X,X,X,X,X,X,X,X,X,X,X,X,X,X,X,X,X,X,X,X,X,X",
",X,X,X,X,X,X,X,X,X,X,X,X,X,X,X,X,X,X,X,X,X,X,X,Xr.j ` / =Xg.5 O # # o O O @ @ @ + > Z.;X~ d ,X,X,X,X,X,X,X,X,X,X,X,X,X,X,X,X,X,X,X,X,X,X,X,X",
",X,X,X,X,X,X,X,X,X,X,X,X,X,X,X,X,X,X,X,Xn.k t.v.u.9 +.%._.V.5 @ $ & o o o @ @ + + 5 Z.-XQ v w e.L.P.,X,X,X,X,X,X,X,X,X,X,X,X,X,X,X,X,X,X,X,X",
",X,X,X,X,X,X,X,X,X,X,X,X,X,X$ t { #.I !.j.k 7.9.x.0 v =.).L.z % & @ & % + @ @ + + w P.=X| A q l.z.u.m ~.Q.T ,X,X,X,X,X,X,X,X,X,X,X,X,X,X,X,X",
",X,X,X,X,X,X,X,X,X,X,X,X,X@ . # ,.{ T OXS k M b.h.w p ;.&XZ.6 & @ % & & @ + @ @ @ , P.*X*.z 9 z.x.n k j.OXI 1. .t # ,X,X,X,X,X,X,X,X,X,X,X,X",
",X,X,X,X,X,X,X,X,X,X,X,X,X# $ K 1.| | >XQ.Z V e.p.x U ) 3.B.4 2 @ @ & & @ @ @ % > > A.%X/ _ l t.e.k j S |.{ _ /.@ X # ,X,X,X,X,X,X,X,X,X,X,X",
",X,X,X,X,X,X,X,X,X,X,X,X,X& y F / 3.%.4.#XT.[ V.[ _ T ^ 1.Z.N > @ % & F & @ % % 5 n P.5.^ } ] d.r.N v T.'.P | &.@ o + ,X,X,X,X,X,X,X,X,X,X,X",
",X,X,X,X,X,X,X,X,X,X,X,X,X,Xt ,X,X,X,X,X,X,X,X,X,X} _ | :.o.3 # & t t G J F % < > 5 S.2.Q E c ,X,X,X,.]...Q %.L & < @ ,X,X,X,X,X,X,X,X,X,X,X",
",X,X,X,X,X,X,X,X,X,X,X,X,X,X,X,X,X,X,X,X,X,X,X,Xk m s.T %.#.z 3 s & G L L % @ 5 4 5 /.Q I +.S j ,X,X,X,X,X,X,X,X,X,X,X,X,X,X,X,X,X,X,X,X,X,X",
",X,X,X,X,X,X,X,X,X,X,X,X,X,X,X,X,X,X,X,X,X,X,XN.7.; l o.~ 1.A V c t L ~ R % @ w B ] 3.Y Z l 8 0.,X,X,X,X,X,X,X,X,X,X,X,X,X,X,X,X,X,X,X,X,X,X",
",X,X,X,X,X,X,X,X,X,X,X,X,X,X,X,X,X,X,X,X,X,XG.c.p.w 4 } R X.D.d.c $ @ G t + . w G.A.%.Y v - 9 i.U.,X,X,X,X,X,X,X,X,X,X,X,X,X,X,X,X,X,X,X,X,X",
",X,X,X,X,X,X,X,X,X,X,X,X,X,X,X,X,X,X,X,X,X,XV.c.v.B w ,X,X=.{.W.C.o.S o.` a 7 x P._.,X,XA l C c.c.I.,X,X,X,X,X,X,X,X,X,X,X,X,X,X,X,X,X,X,X,X",
",X,X,X,X,X,X,X,X,X,X,X,X,X,X,X,X,X,X,X,X,Xo.C t.0.B ,X,XQ | 2./ 2 $ 7 $._ 2 $ H =.<.%.,X,X[ g.p.u.C ,X,X,X,X,X,X,X,X,X,X,X,X,X,X,X,X,X,X,X,X",
",X,X,X,X,X,X,X,X,X,X,X,X,X,X,X,X,X,X,X,X,XC.v v w.[ ,X,Xv A *.R 3 & % J G 2 < 3 ^ | S o.,X,XG.y.N v D.,X,X,X,X,X,X,X,X,X,X,X,X,X,X,X,X,X,X,X",
",X,X,X,X,X,X,X,X,X,X,X,X,X,X,X,X,X,X,X,XT.E.S v j ,X,XN n - z E Y 3 @ F 2 2 y H E i ; k ,X,X,XC c v Q.,X,X,X,X,X,X,X,X,X,X,X,X,X,X,X,X,X,X,X",
",X,X,X,X,X,X,X,X,X,X,X,X,X,X,X,X,X,X,X,X,.oXQ.#.,X,X,XG.h.N w ^ Q p # F G 3 I H E k n p.,X,X,Xo.+.B.E.,.,X,X,X,X,X,X,X,X,X,X,X,X,X,X,X,X,X,X",
",X,X,X,X,X,X,X,X,X,X,X,X,X,X,X,X,X,X,XX...'.[.,X,X,X,XK.v.e.` / / s < t H y T R ' M.a.a.I.,X,X,X+X#X[.=.,X,X,X,X,X,X,X,X,X,X,X,X,X,X,X,X,X,X",
",X,X,X,X,X,X,X,X,X,X,X,X,X,X,X,X,X,X,XX.Y G ,X,X,X,X,XC t.b ` -.;.R t G P Y Q ^ ' N.e.0.[ ,X,X,X,X| y Y ,X,X,X,X,X,X,X,X,X,X,X,X,X,X,X,X,X,X",
",X,X,X,X,X,X,X,X,X,X,X,X,X,X,X,X,X,X,X>.:.| ,X,X,X,XR.O.c i ,XR / / K ,XK ~ / ~ ,XV V x ] ,X,X,X,XW Y T ,X,X,X,X,X,X,X,X,X,X,X,X,X,X,X,X,X,X",
",X,X,X,X,X,X,X,X,X,X,X,X,X,X,X,X,X,Xt R *.&.,X,X,X,X(.!.+.S.,X,X,X2 ,X,X,X,XG ,X,X,X+.o.!.,X,X,X,X).).3.Q ,X,X,X,X,X,X,X,X,X,X,X,X,X,X,X,X,X",
",X,X,X,X,X,X,X,X,X,X,X,X,X,X,X,X,XF & F D ,X,X,X,X,X..].[./.,X,X,X,X,X,X,X,X,X,X,X,X+X].T.,X,X,X,X,XQ P & & ,X,X,X,X,X,X,X,X,X,X,X,X,X,X,X,X",
",X,X,X,X,X,X,X,X,X,X,X,X,X,X,X,X,X& $ $ @ ,X,X,X,X,X=.R K ,X,X,X,X,X,X,X,X,X,X,X,X,X| | E 2.,X,X,X,XG & @ & ,X,X,X,X,X,X,X,X,X,X,X,X,X,X,X,X",
",X,X,X,X,X,X,X,X,X,X,X,X,X,X,X,X,X,X$ $ ,X,X,X,X,X,X=.X.=.,X,X,X,X,X,X,X,X,X,X,X,X,X:.| | ;.,X,X,X,X,X& # @ ,X,X,X,X,X,X,X,X,X,X,X,X,X,X,X,X",
",X,X,X,X,X,X,X,X,X,X,X,X,X,X,X,X,X,X,X,X,X,X,X,X,XP R =.,X,X,X,X,X,X,X,X,X,X,X,X,X,X,X%.&.L ,X,X,X,X,X$ % @ ,X,X,X,X,X,X,X,X,X,X,X,X,X,X,X,X",
",X,X,X,X,X,X,X,X,X,X,X,X,X,X,X,X,X,X,X,X,X,X,X,X,X& % % ,X,X,X,X,X,X,X,X,X,X,X,X,X,X,XJ & @ ,X,X,X,X,X,X,X,X,X,X,X,X,X,X,X,X,X,X,X,X,X,X,X,X",
",X,X,X,X,X,X,X,X,X,X,X,X,X,X,X,X,X,X,X,X,X,X,X,X,X,X% # ,X,X,X,X,X,X,X,X,X,X,X,X,X,X,X& % % ,X,X,X,X,X,X,X,X,X,X,X,X,X,X,X,X,X,X,X,X,X,X,X,X",
",X,X,X,X,X,X,X,X,X,X,X,X,X,X,X,X,X,X,X,X,X,X,X,X,X,X,X,X,X,X,X,X,X,X,X,X,X,X,X,X,X,X,X,X,X,X,X,X,X,X,X,X,X,X,X,X,X,X,X,X,X,X,X,X,X,X,X,X,X,X",
",X,X,X,X,X,X,X,X,X,X,X,X,X,X,X,X,X,X,X,X,X,X,X,X,X,X,X,X,X,X,X,X,X,X,X,X,X,X,X,X,X,X,X,X,X,X,X,X,X,X,X,X,X,X,X,X,X,X,X,X,X,X,X,X,X,X,X,X,X,X",
",X,X,X,X,X,X,X,X,X,X,X,X,X,X,X,X,X,X,X,X,X,X,X,X,X,X,X,X,X,X,X,X,X,X,X,X,X,X,X,X,X,X,X,X,X,X,X,X,X,X,X,X,X,X,X,X,X,X,X,X,X,X,X,X,X,X,X,X,X,X",
",X,X,X,X,X,X,X,X,X,X,X,X,X,X,X,X,X,X,X,X,X,X,X,X,X,X,X,X,X,X,X,X,X,X,X,X,X,X,X,X,X,X,X,X,X,X,X,X,X,X,X,X,X,X,X,X,X,X,X,X,X,X,X,X,X,X,X,X,X,X",
",X,X,X,X,X,X,X,X,X,X,X,X,X,X,X,X,X,X,X,X,X,X,X,X,X,X,X,X,X,X,X,X,X,X,X,X,X,X,X,X,X,X,X,X,X,X,X,X,X,X,X,X,X,X,X,X,X,X,X,X,X,X,X,X,X,X,X,X,X,X",
",X,X,X,X,X,X,X,X,X,X,X,X,X,X,X,X,X,X,X,X,X,X,X,X,X,X,X,X,X,X,X,X,X,X,X,X,X,X,X,X,X,X,X,X,X,X,X,X,X,X,X,X,X,X,X,X,X,X,X,X,X,X,X,X,X,X,X,X,X,X",
",X,X,X,X,X,X,X,X,X,X,X,X,X,X,X,X,X,X,X,X,X,X,X,X,X,X,X,X,X,X,X,X,X,X,X,X,X,X,X,X,X,X,X,X,X,X,X,X,X,X,X,X,X,X,X,X,X,X,X,X,X,X,X,X,X,X,X,X,X,X",
",X,X,X,X,X,X,X,X,X,X,X,X,X,X,X,X,X,X,X,X,X,X,X,X,X,X,X,X,X,X,X,X,X,X,X,X,X,X,X,X,X,X,X,X,X,X,X,X,X,X,X,X,X,X,X,X,X,X,X,X,X,X,X,X,X,X,X,X,X,X"
};
