/* XPM */
static char *result[] = {
/* columns rows colors chars-per-pixel */
"70 70 211 2 ",
"   c #292623",
".  c #2C2926",
"X  c #2E2D2A",
"o  c #27272B",
"O  c #322E2C",
"+  c #35312D",
"@  c #3B322C",
"#  c #322E30",
"$  c #353333",
"%  c #3B3533",
"&  c #3D3835",
"*  c #373738",
"=  c #3C3A3A",
"-  c #42342D",
";  c #4C352D",
":  c #52362B",
">  c #53382D",
",  c #59392A",
"<  c #423733",
"1  c #4D3731",
"2  c #423A35",
"3  c #4B3C36",
"4  c #433D3A",
"5  c #4B3E3A",
"6  c #533B34",
"7  c #5B3C31",
"8  c #523B35",
"9  c #633B2D",
"0  c #6E3D2C",
"q  c #733E2C",
"w  c #7A3D2C",
"e  c #623D33",
"r  c #6B3E31",
"t  c #703F31",
"y  c #45413E",
"u  c #4C423C",
"i  c #574035",
"p  c #5D4136",
"a  c #53443C",
"s  c #5A453C",
"d  c #5C483D",
"f  c #52483E",
"g  c #6B412D",
"h  c #74412E",
"j  c #78412F",
"k  c #644334",
"l  c #6B4333",
"z  c #6C4933",
"x  c #63453A",
"c  c #6C453A",
"v  c #634B3D",
"b  c #6C4D3C",
"n  c #744332",
"m  c #794231",
"M  c #734B34",
"N  c #74453B",
"B  c #7E4739",
"V  c #724A3B",
"C  c #7C4A3B",
"Z  c #6D513E",
"A  c #74523D",
"S  c #7B543C",
"D  c #3D3D41",
"F  c #403F43",
"G  c #413F4A",
"H  c #444243",
"J  c #4A4544",
"K  c #4C4946",
"L  c #454549",
"P  c #494749",
"I  c #4D4A4C",
"U  c #524640",
"Y  c #5A4642",
"T  c #544A43",
"R  c #5B4C43",
"E  c #534D4B",
"W  c #5A4E4A",
"Q  c #56514C",
"!  c #5C524C",
"~  c #4B4C53",
"^  c #534F50",
"/  c #545052",
"(  c #5C5453",
")  c #5F5857",
"_  c #505058",
"`  c #5A575B",
"'  c #5E5A5A",
"]  c #624D41",
"[  c #6B4E42",
"{  c #6B4A45",
"}  c #744B41",
"|  c #794C41",
" . c #7D4B48",
".. c #635145",
"X. c #6B5445",
"o. c #62544B",
"O. c #6A564C",
"+. c #6D594A",
"@. c #735444",
"#. c #7C5642",
"$. c #72524A",
"%. c #735D4C",
"&. c #7C5B4B",
"*. c #7C5846",
"=. c #635652",
"-. c #6A5751",
";. c #645A54",
":. c #6B5C54",
">. c #665B5A",
",. c #6B5C58",
"<. c #735E54",
"1. c #7C5F50",
"2. c #7D614B",
"3. c #6C6157",
"4. c #6A605E",
"5. c #736155",
"6. c #7C6252",
"7. c #786358",
"8. c #78675C",
"9. c #766863",
"0. c #7A6662",
"q. c #85412C",
"w. c #8C442C",
"e. c #9A462D",
"r. c #9D482F",
"t. c #94432D",
"y. c #844534",
"u. c #8D4532",
"i. c #854936",
"p. c #884A36",
"a. c #844C3A",
"s. c #8B4D3B",
"d. c #834638",
"f. c #924935",
"g. c #9C4C36",
"h. c #944A37",
"j. c #8A543B",
"k. c #8A5A3D",
"l. c #94523D",
"z. c #9D533D",
"x. c #995C3D",
"c. c #A7472F",
"v. c #A6482F",
"b. c #A44B34",
"n. c #AB4D33",
"m. c #A34E3C",
"M. c #A5523B",
"N. c #AB553C",
"B. c #A5583E",
"V. c #9A613B",
"C. c #A2653D",
"Z. c #A9683F",
"A. c #844E43",
"S. c #8C4E43",
"D. c #845445",
"F. c #8B5445",
"G. c #845C46",
"H. c #8A5B44",
"J. c #89534A",
"K. c #815C4A",
"L. c #865B4A",
"P. c #9B5745",
"I. c #955D43",
"U. c #9B5A44",
"Y. c #945D4A",
"T. c #995A4C",
"R. c #955544",
"E. c #A65743",
"W. c #8E6344",
"Q. c #86644C",
"!. c #8B644D",
"~. c #876044",
"^. c #966543",
"/. c #90664A",
"(. c #9A654C",
"). c #936B4D",
"_. c #9B6C4C",
"`. c #9E6641",
"'. c #826453",
"]. c #82695C",
"[. c #8A6D5C",
"{. c #886954",
"}. c #926D52",
"|. c #996C56",
" X c #8D715B",
".X c #9B7154",
"XX c #91715F",
"oX c #9B755D",
"OX c #987A5E",
"+X c #AB6D44",
"@X c #A16D4D",
"#X c #AA6446",
"$X c #B4764D",
"%X c #BF7D4D",
"&X c #A46C51",
"*X c #A67658",
"=X c #A67D5C",
"-X c #AD7E5A",
";X c #A87751",
":X c #B77C58",
">X c #856F64",
",X c #867267",
"<X c #957564",
"1X c #997967",
"2X c #A17C62",
"3X c #B17D61",
"4X c #BE8256",
"5X c #A78168",
"6X c #AE8360",
"7X c #B78A62",
"8X c None",
/* pixels */
"8X8X8X8X8X8X8X8X8X8X8X8X8X8X8X8X8X8X8X8X8X8X8X8X8X8X8X8X8X8X8X8X8X8X8X8X8X8X8X8X8X8X8X8X8X8X8X8X8X8X8X8X8X8X8X8X8X8X8X8X8X8X8X8X8X8X8X8X8X8X",
"8X8X8X8X8X8X8X8X8X8X8X8X8X8X8X8X8X8X8X8X8X8X8X8X8X8X8X8X8X8X8X8X8X8X8X8X8X8X8X8X8X8X8X8X8X8X8X8X8X8X8X8X8X8X8X8X8X8X8X8X8X8X8X8X8X8X8X8X8X8X",
"8X8X8X8X8X8X8X8X8X8X8X8X8X8X8X8X8X8X8X8X8X8X8X8X8X8X8X8X8X8X8X8X8X8X8X8X8X8X8X8X8X8X8X8X8X8X8X8X8X8X8X8X8X8X8X8X8X8X8X8X8X8X8X8X8X8X8X8X8X8X",
"8X8X8X8X8X8X8X8X8X8X8X8X8X8X8X8X8X8X8X8X8X8X8X8X8X8X8X8X8X8X8X8X8X8X8X8X8X8X8X8X8X8X8X8X8X8X8X8X8X8X8X8X8X8X8X8X8X8X8X8X8X8X8X8X8X8X8X8X8X8X",
"8X8X8X8X8X8X8X8X8X8X8X8X8X8X8X8X8X8X8X8X8X8X8X8X8X8X8X8X8X8X8X8X8X8X8X8X8X8X8X8X8X8X8X8X8X8X8X8X8X8X8X8X8X8X8X8X8X8X8X8X8X8X8X8X8X8X8X8X8X8X",
"8X8X8X8X8X8X8X8X8X8X8X8X8X8X8X8X8X8X8X8X8X8X8X8X8X8X8X8X8X8X8X8X8X8X8X8X8X8X8X8X8X8X8X8X8X8X8X8X8X8X8X8X8X8X8X8X8X8X8X8X8X8X8X8X8X8X8X8X8X8X",
"8X8X8X8X8X8X8X8X8X8X8X8X8X8X8X8X8X8X8X8X8X8X8X8X8X8X8X8X8X8X8X8X8X8X8X8X8X8X8X8X8X8X8X8X8X8X8X8X8X8X8X8X8X8X8X8X8X8X8X8X8X8X8X8X8X8X8X8X8X8X",
"8X8X8X8X8X8X8X8X8X8X8X8X8X8X8X8X8X8X8X8X8X8X8X8X8X8X8X8X8X8X8X8X8X8X8X8X8X8X8X8X8X8X8X8X8X8X8X8X8X8X8X8X8X8X8X8X8X8X8X8X8X8X8X8X8X8X8X8X8X8X",
"8X8X8X8X8X8X8X8X8X8X8X8X8X8X8X8X8X8X8X8X8X8X8X8X8X8X8X8X8X8X8X8X8X8X8X8X8X8X8X8X8X8X8X8X8X8X8X8X8X8X8X8X8X8X8X8X8X8X8X8X8X8X8X8X8X8X8X8X8X8X",
"8X8X8X8X8X8X8X8X8X8X8X8X8X8X8X8X8X8X8X8X8X8X8X8X8X8X8X8X8X8X8X8X8X8X8X8X8X8X8X8X8X8X8X8X8X8X8X8X8X8X8X8X8X8X8X8X8X8X8X8X8X8X8X8X8X8X8X8X8X8X",
"8X8X8X8X8X8X8X8X8X8X8X8X8X8X8X8X8X8X8X8X8X8X8X8X8X8X8X8X8X8X8X8X8X8X8X8X8X8X8X8X8X8X8X8X8X8X8X8X8X8X8X8X8X8X8X8X8X8X8X8X8X8X8X8X8X8X8X8X8X8X",
"8X8X8X8X8X8X8X8X8X8X8X8X8X8X8X8X8X8X8X8X8X8X8X8X8X8X8X8X8X8X8X8X8X8X8X8X8X8X8X8X8X8X8X8X8X8X8X8X8X8X8X8X8X8X8X8X8X8X8X8X8X8X8X8X8X8X8X8X8X8X",
"8X8X8X8X8X8X8X8X8X8X8X8X8X8X8X8X8X8X8X8X8X8X8X8X8X8X8X8X8X8X8X8X8X8X8X8X8X8X8X8X8XH $ X * 8X8X8X8X8X8X8X8X8X8X8X8X8X8X8X8X8X8X8X8X8X8X8X8X8X",
"8X8X8X8X8X8X8X8X8X8X8X8X8X8X8X8X8X8X8X8X8X8X8X8X8X8X8X8X8X8X8X8X8X8X8X8X8X8X8X8X8X+ X + 2 8X8X8X8X8X8X8X8X8X8X8X8X8X8X8X8X8X8X8X8X8X8X8X8X8X",
"8X8X8X8X8X8X8X8X8X8X8X8X8X8X8X8X8X8X8X8X8X8X8X8X8X$ = 8X8X8X8X8X8X8X8X8X8X8X8X8X8Xy $ $ D 8X8X8X8X8X8X8X8X8X8X8X8X8X8X8X8X8X8X8X8X8X8X8X8X8X",
"8X8X8X8X8X8X8X8X8X8X8X8X8X8X8X8X8X8X8X8X8X8X8X8X+ . + = 8X8X8X8X8X8X8X8X8X8X8X8X8X+.}.=.L 8X8X8X8X8X8X8X8X8X8X8X8X8X8X8X8X8X8X8X8X8X8X8X8X8X",
"8X8X8X8X8X8X8X8X8X8X8X8X8X8X8X8X8X8X8X8X8X8X8X8XO   X * L 8X8X8X8X8X8X8X8X8X8X8X}.6.a =.8X8X8X8X8X8X8X8X8X8X8X8X8X8X8X8X8X8X8X8X8X8X8X8X8X8X",
"8X8X8X8X8X8X8X8X8X8X8X8X8X8X8X8X8X8X8X8X8X8X8X8X8X& + ..6.-.8X8X8X8X8X8X8X8X8X8XW U O.H :.8X8X8X8X8X8X8X8X8X8X8X8X= $ $ $ 8X8X8X8X8X8X8X8X8X",
"8X8X8X8X8X8X8X8X8X8X8X8X8X8X8X8X8X8X8X8X8X8X8X8X8X8XJ ).b 3 J K 8X8X8X8X8X8X8X8X_.4X@X X8X8X8X8X8X8X8X8X8X8X8X1.! $ $ % * 8X8X8X8X8X8X8X8X8X",
"8X8X8X8X8X8X8X8X8X8X8X8X8X8X8X8X8X8X8X8X8X8X8X8X8X8X8X/.u + }.Q.Q.8X8X8X8X8X8X8XV.k.A ~.8X8X8X8X8X8X8X8X%.:.J R  XL = 4 4 8X8X8X8X8X8X8X8X8X",
"8X8X8X8X8X8X8X8X8X8X8X8X8X8X$ % y P 8X8X8X8X8X8X8X8X8X8Xy @.%Xj.A &.8X8X8X8X8X@.z l x b 8X8X8X8X8X$.L._.^.6X& E <X^ 8X8X8X8X8X8X8X8X8X8X8X8X",
"8X8X8X8X8X8X8X8X8X8X8X8X8X8XO . O H ! 8X8X8X8X8X8X8X8X8X8X$XV.M x i x 8X8X8X8XT.u.m l M 8X8X8X8XT.N c v S -X! Q 8X8X8X8X8X8X8X8X8X8X8X8X8X8X",
"8X8X8X8X8X8X8X8X8X8X8X8X8X8X$   . % ).v 4 2.}._.!.K.8X8X8X8XV g t m t | 8X8X8XP.c.m.y.p.8X8XD.E.m.h.c v Q.-X8X8X8X8X8X8X8X8X8X8X8X8X8X8X8X8X",
"8X8X8X8X8X8X8X8X8X8X8X8X8X8X8X= y y G.v % ).Z.M p s { | 8X8X8Xp.e.t.g.d.} 8X8Xp.c.g.s.A.8Xk y.r.m.h.p.a.[ 8X8X8X8X8X8X8X8X8X8X8X8X8X8X8X8X8X",
"8X8X8X8X8X8X8X8X8X8X8X8X8X8X8X8X8X8X8Xd = ).+XM k h q.u.| } 8X8Xg.v.b.n r Y 8Xk w 9 c } v S , 9 B l.R.8X8X8X8X8X8X8X8X8X8X8X8X8X8X8X8X8X8X8X",
"8X8X8X8X8X8X8X8X8X8X8X8X8X8X8X8X8X8X8X8X8X8XH.l q w.r.n.y.7 Y 8XB q q.x Y o.8XV A s [ X.Q #.M ; V } 8X8X8X8X8X8X8XE 7.,.P $ $ 8X8X8X8X8X8X8X",
"8X8X8X8X8X8X8X8X8X8X8X8X8X8X8X8X8X8X' ' 8X8X8X8Xa.z.b.r.q.7 @.` 8X7 b K.5.~ / ! ( ;.' / ! T Z A A 8X8X8XJ.T.} } @X{.E W <.= % 8X8X8X8X8X8X8X",
"8X8X8X8X8X8X8X8X8X8X8X8X8X;.,.=.;.( W W ( ( ( ^ ~ 8XN 0 k !.'.~ _ 8X( >.0.1X5X1X1X<X,X0.5.! K K 8X( @.r h.b.y.c b ;XO.=.=.L 8X8X8X8X8X8X8X8X",
"8X8X8X8X8X8X8X8X8X8X8X>.=.R U u U a 5 4 4 3 < F H I P 8X@.[ P 9.<X3X:X@X&XY.H.H.T.Y. .U.D.[.].) >.;.S > n M.p.b Q.=XQ '.8X8X8X8X8X8X8X8X8X8X",
"8X8X8X8X8X8X8X8X8X8X,.! u u d Y u J U 3 3 3 < % O $ D L P I <X*X#XE.B 7 n > < 6 e 1 - t 1 1 N L.|.,.! p l A.S.} 8X8X8X8X8X8X8X8X8X8X8X8X8X8X",
"8X8X8X8X8X8X8X8X8X:...U a a a a 5 F a 4 % % # # O O O @ P <./.a.g r 7 O O O # # # # 2 1 % 8 y.z.Y.=./ Q E Q 8X8X8X8X8X8X8X8X8X8X8X8X8X8X8X8X",
"8X8X8X8X8X8X8X8Xo.W d a a a 5 5 5 4 5 5 5 4 4 < $ O @ @ 2 T M k - - @ $ O $ $ # # $ = = 2 6 7 6 x H 4 u J E ( / 8X8X8X8X8X8X8X8X8X8X8X8X8X8X",
"8X8X8X8X8X8X8X;.O.] d a s s 3 < < 2 4 = 4 4 4 = % + @ - a u z M > - < + O + $ $ $ $ $ * * $ + o a $ 2 a a R ! ) H 8X8X8X8X8X8X8X8X8X8X8X8X8X",
"8X8X8X8X8X8X8X;.X.] s d a i a u 5 4 4 % 4 4 u H & + @ 2 a u m w.q > < - + + + $ $ # $ $ F = * $ x 4 4 4 4 y T I 8X8X8X8X8X8X8X8X8X8X8X8X8X8X",
"8X8X8X8X8X8X;.3...R Y v x d u u % < % < % 4 y 4 4 4 u u d a g w.q.0 e 7 - - @ + $ $ * = H ~ Q H [ [ P = H J J 8X8X8X8X8X8X8X8X8X8X8X8X8X8X8X",
"8X8X8X8X8X8X8X3.] W d u a a a d a u U 5 4 4 4 y y 4 u a v a h u.w.w e 5 - @ @ + * = = F H I / H $.&.P = H H 8X8X8X8X8X8X8X8X8X8X8X8X8X8X8X8X",
"8X8X8X8X8X8X8X>.] ] s s u u u 2 2 2 4 u u 2 u u y y y u +.T h w.g ; i & O O @ + = = * = H H K + S 5 $ $ $ 2 y J 8X8X8X8X8X8X8X8X8X8X8X8X8X8X",
"8X8X8X8X8X8X8X8X..T 5 3 3 2 3 u K f y & y 2 & 2 & & 2 u ..d l 0 : & @ @ @ O * & * * & $ 4 = 4 % $.% 4 a T Y ! ) 4 8X8X8X8X8X8X8X8X8X8X8X8X8X",
"8X8X8X8X8X8X8X8X....a p i u u u f R d u i y y y & @ 2 i ..d V q 9 - O O % @ % * * $ $ $ 4 Y b { F.u 4 T ! ;.4.( 8X8X8X8X8X8X8X8X8X8X8X8X8X8X",
"8X8X8X8X8X8X8X8X8X,.W u y 2 u f T a d u u u y 2 & & & y I +.H.j.g , - O @ 1 @ + & * 3 < % 5 b l.(.;./ E E ) ' 8X8X8X8X8X8X8X8X8X8X8X8X8X8X8X",
"8X8X8X8X8X8X8X8X8X8X;.! u a a T a 5 5 u 2 u u 4 = 4 H P P P 1./.V.x.p.7 q n 6 6 c p 6 C 3 x A L.OX8.,.x e N } 8X8X8X8X8X8X8X8X8X8X8X8X8X8X8X",
"8X8X8X8X8X8X8X8X8X8X8X8X) ( T T u a a s u u F E ~ I 8X8Xb ] P >.[.oX2X.X(.x.l.j.U.Y.D.Y.*.6.].O.;.! S : m s.r p K.].8X8X8X8X8X8X8X8X8X8X8X8X",
"8X8X8X8X8X8X8X8X8X8X8X8X8X8X( ( W E T E E E W ~ 8X8Xi.0 e A O.~ 8XW ( ) 9.>X<XXX[.>X0.7.5.( I E 8XQ V m E.N.z.b A =XJ :.^ 8X8X8X8X8X8X8X8X8X",
"8X8X8X8X8X8X8X8X8X8X8X8X8X8X8X8X8X8X8X8X8X8X8Xb l.b.n.v.m ; o.~ 8X7 b [ =.~ ( =.:.>.` ^ ! Y #.b 8X8X8Xc F.P.V #.;X.XQ O.5.= $ 8X8X8X8X8X8X8X",
"8X8X8X8X8X8X8X8X8X8X8X8X8X8X8X8X8X8X8X8X8X8Xk.l w q.b.M.B N ..8Xp.q.y.; Y Q ] #.b 6 s Y W k.z > e 8X8X8X8X8X8X!.{.E 7.5.J * = 8X8X8X8X8X8X8X",
"8X8X8X8X8X8X8X8X8X8X8X8X8X8X8X8X8X8X).R % 4XC.l k n p.s.S.} 8XU.n.b.g.B } 8Xk 0 w e N Y A A : e C B | 8X8X8X8X8X8X8X8X8X8X8X8X8X8X8X8X8X8X8X",
"8X8X8X8X8X8X8X8X8X8X8X8X8X8X* % % u _.f % 4XV.S X.@.| 8X8X8Xb w.w.b.z.P. .8X8Xu.n.M.l.A.8Xk w.b.E.y.p.x 8X8X8X8X8X8X8X8X8X8X8X8X8X8X8X8X8X8X",
"8X8X8X8X8X8X8X8X8X8X8X8X8X&     + d Q.i y R {.*X.X8X8X8X8XI.z g r B j.J.8X8X8XN.r.N.i.F.8X8XA.m.b.l.c b K.8X8X8X8X8X8X8X8X8X8X8X8X8X8X8X8X8X",
"8X8X8X8X8X8X8X8X8X8X8X8X8X+ X @ u H 8X8X8X8X8X8X8X8X8X8X8X$XV.z v @.A 8X8X8X8Xj.q.B b V 8X8X8XJ.F.n [ @.).=X* 8X8X8X8X8X8X8X8X8X8X8X8X8X8X8X",
"8X8X8X8X8X8X8X8X8X8X8X8X8X8X8X& 8X8X8X8X8X8X8X8X8X8X8X8X& ).+X^.)..X8X8X8X8X8Xb g k [ ~.8X8X8X8X8XX.H.^.;XOX4 -.:.8X8X8X8X8X8X8X8X8X8X8X8X8X",
"8X8X8X8X8X8X8X8X8X8X8X8X8X8X8X8X8X8X8X8X8X8X8X8X8X8X%.G.3 2 Q.7.8X8X8X8X8X8X8X^.V.S W.6X8X8X8X8X8X8X8XQ.%.! K 6.:.D $ $ 8X8X8X8X8X8X8X8X8X8X",
"8X8X8X8X8X8X8X8X8X8X8X8X8X8X8X8X8X8X8X8X8X8X8X8X8XE u @Xi T ! 8X8X8X8X8X8X8X8X8X_.$X7X5.8X8X8X8X8X8X8X8X8X8X%.6.E y & & 8X8X8X8X8X8X8X8X8X8X",
"8X8X8X8X8X8X8X8X8X8X8X8X8X8X8X8X8X8X8X8X8X8X8X8X& + $ <.+.8X8X8X8X8X8X8X8X8X8X8XK R T ) 8X8X8X8X8X8X8X8X8X8X8X8XF * & = 8X8X8X8X8X8X8X8X8X8X",
"8X8X8X8X8X8X8X8X8X8X8X8X8X8X8X8X8X8X8X8X8X8X8X&   . * H 8X8X8X8X8X8X8X8X8X8X8X8XQ...R 8.8X8X8X8X8X8X8X8X8X8X8X8X8X8XF 8X8X8X8X8X8X8X8X8X8X8X",
"8X8X8X8X8X8X8X8X8X8X8X8X8X8X8X8X8X8X8X8X8X8X8X$ O + u H 8X8X8X8X8X8X8X8X8X8X8X8XT 2. X! 8X8X8X8X8X8X8X8X8X8X8X8X8X8X8X8X8X8X8X8X8X8X8X8X8X8X",
"8X8X8X8X8X8X8X8X8X8X8X8X8X8X8X8X8X8X8X8X8X8X8X8X8X= 8X8X8X8X8X8X8X8X8X8X8X8X8X8XH O H F D 8X8X8X8X8X8X8X8X8X8X8X8X8X8X8X8X8X8X8X8X8X8X8X8X8X",
"8X8X8X8X8X8X8X8X8X8X8X8X8X8X8X8X8X8X8X8X8X8X8X8X8X8X8X8X8X8X8X8X8X8X8X8X8X8X8X8X= . * u y 8X8X8X8X8X8X8X8X8X8X8X8X8X8X8X8X8X8X8X8X8X8X8X8X8X",
"8X8X8X8X8X8X8X8X8X8X8X8X8X8X8X8X8X8X8X8X8X8X8X8X8X8X8X8X8X8X8X8X8X8X8X8X8X8X8X8X8X& $ = 8X8X8X8X8X8X8X8X8X8X8X8X8X8X8X8X8X8X8X8X8X8X8X8X8X8X",
"8X8X8X8X8X8X8X8X8X8X8X8X8X8X8X8X8X8X8X8X8X8X8X8X8X8X8X8X8X8X8X8X8X8X8X8X8X8X8X8X8X8X8X8X8X8X8X8X8X8X8X8X8X8X8X8X8X8X8X8X8X8X8X8X8X8X8X8X8X8X",
"8X8X8X8X8X8X8X8X8X8X8X8X8X8X8X8X8X8X8X8X8X8X8X8X8X8X8X8X8X8X8X8X8X8X8X8X8X8X8X8X8X8X8X8X8X8X8X8X8X8X8X8X8X8X8X8X8X8X8X8X8X8X8X8X8X8X8X8X8X8X",
"8X8X8X8X8X8X8X8X8X8X8X8X8X8X8X8X8X8X8X8X8X8X8X8X8X8X8X8X8X8X8X8X8X8X8X8X8X8X8X8X8X8X8X8X8X8X8X8X8X8X8X8X8X8X8X8X8X8X8X8X8X8X8X8X8X8X8X8X8X8X",
"8X8X8X8X8X8X8X8X8X8X8X8X8X8X8X8X8X8X8X8X8X8X8X8X8X8X8X8X8X8X8X8X8X8X8X8X8X8X8X8X8X8X8X8X8X8X8X8X8X8X8X8X8X8X8X8X8X8X8X8X8X8X8X8X8X8X8X8X8X8X",
"8X8X8X8X8X8X8X8X8X8X8X8X8X8X8X8X8X8X8X8X8X8X8X8X8X8X8X8X8X8X8X8X8X8X8X8X8X8X8X8X8X8X8X8X8X8X8X8X8X8X8X8X8X8X8X8X8X8X8X8X8X8X8X8X8X8X8X8X8X8X",
"8X8X8X8X8X8X8X8X8X8X8X8X8X8X8X8X8X8X8X8X8X8X8X8X8X8X8X8X8X8X8X8X8X8X8X8X8X8X8X8X8X8X8X8X8X8X8X8X8X8X8X8X8X8X8X8X8X8X8X8X8X8X8X8X8X8X8X8X8X8X",
"8X8X8X8X8X8X8X8X8X8X8X8X8X8X8X8X8X8X8X8X8X8X8X8X8X8X8X8X8X8X8X8X8X8X8X8X8X8X8X8X8X8X8X8X8X8X8X8X8X8X8X8X8X8X8X8X8X8X8X8X8X8X8X8X8X8X8X8X8X8X",
"8X8X8X8X8X8X8X8X8X8X8X8X8X8X8X8X8X8X8X8X8X8X8X8X8X8X8X8X8X8X8X8X8X8X8X8X8X8X8X8X8X8X8X8X8X8X8X8X8X8X8X8X8X8X8X8X8X8X8X8X8X8X8X8X8X8X8X8X8X8X",
"8X8X8X8X8X8X8X8X8X8X8X8X8X8X8X8X8X8X8X8X8X8X8X8X8X8X8X8X8X8X8X8X8X8X8X8X8X8X8X8X8X8X8X8X8X8X8X8X8X8X8X8X8X8X8X8X8X8X8X8X8X8X8X8X8X8X8X8X8X8X",
"8X8X8X8X8X8X8X8X8X8X8X8X8X8X8X8X8X8X8X8X8X8X8X8X8X8X8X8X8X8X8X8X8X8X8X8X8X8X8X8X8X8X8X8X8X8X8X8X8X8X8X8X8X8X8X8X8X8X8X8X8X8X8X8X8X8X8X8X8X8X",
"8X8X8X8X8X8X8X8X8X8X8X8X8X8X8X8X8X8X8X8X8X8X8X8X8X8X8X8X8X8X8X8X8X8X8X8X8X8X8X8X8X8X8X8X8X8X8X8X8X8X8X8X8X8X8X8X8X8X8X8X8X8X8X8X8X8X8X8X8X8X",
"8X8X8X8X8X8X8X8X8X8X8X8X8X8X8X8X8X8X8X8X8X8X8X8X8X8X8X8X8X8X8X8X8X8X8X8X8X8X8X8X8X8X8X8X8X8X8X8X8X8X8X8X8X8X8X8X8X8X8X8X8X8X8X8X8X8X8X8X8X8X"
};
