/* XPM */
static char *result[] = {
/* columns rows colors chars-per-pixel */
"70 70 211 2 ",
"   c #292623",
".  c #2C2926",
"X  c #2E2D2A",
"o  c #27272B",
"O  c #322E2C",
"+  c #35312D",
"@  c #3B322C",
"#  c #322E30",
"$  c #353333",
"%  c #3B3533",
"&  c #3D3835",
"*  c #373738",
"=  c #3C3A3A",
"-  c #42342D",
";  c #4C352D",
":  c #52362B",
">  c #53382D",
",  c #59392A",
"<  c #423733",
"1  c #4D3731",
"2  c #423A35",
"3  c #4B3C36",
"4  c #433D3A",
"5  c #4B3E3A",
"6  c #533B34",
"7  c #5B3C31",
"8  c #523B35",
"9  c #633B2D",
"0  c #6E3D2C",
"q  c #733E2C",
"w  c #7A3D2C",
"e  c #623D33",
"r  c #6B3E31",
"t  c #703F31",
"y  c #45413E",
"u  c #4C423C",
"i  c #574035",
"p  c #5D4136",
"a  c #53443C",
"s  c #5A453C",
"d  c #5C483D",
"f  c #52483E",
"g  c #6B412D",
"h  c #74412E",
"j  c #78412F",
"k  c #644334",
"l  c #6B4333",
"z  c #6C4933",
"x  c #63453A",
"c  c #6C453A",
"v  c #634B3D",
"b  c #6C4D3C",
"n  c #744332",
"m  c #794231",
"M  c #734B34",
"N  c #74453B",
"B  c #7E4739",
"V  c #724A3B",
"C  c #7C4A3B",
"Z  c #6D513E",
"A  c #74523D",
"S  c #7B543C",
"D  c #3D3D41",
"F  c #403F43",
"G  c #413F4A",
"H  c #444243",
"J  c #4A4544",
"K  c #4C4946",
"L  c #454549",
"P  c #494749",
"I  c #4D4A4C",
"U  c #524640",
"Y  c #5A4642",
"T  c #544A43",
"R  c #5B4C43",
"E  c #534D4B",
"W  c #5A4E4A",
"Q  c #56514C",
"!  c #5C524C",
"~  c #4B4C53",
"^  c #534F50",
"/  c #545052",
"(  c #5C5453",
")  c #5F5857",
"_  c #505058",
"`  c #5A575B",
"'  c #5E5A5A",
"]  c #624D41",
"[  c #6B4E42",
"{  c #6B4A45",
"}  c #744B41",
"|  c #794C41",
" . c #7D4B48",
".. c #635145",
"X. c #6B5445",
"o. c #62544B",
"O. c #6A564C",
"+. c #6D594A",
"@. c #735444",
"#. c #7C5642",
"$. c #72524A",
"%. c #735D4C",
"&. c #7C5B4B",
"*. c #7C5846",
"=. c #635652",
"-. c #6A5751",
";. c #645A54",
":. c #6B5C54",
">. c #665B5A",
",. c #6B5C58",
"<. c #735E54",
"1. c #7C5F50",
"2. c #7D614B",
"3. c #6C6157",
"4. c #6A605E",
"5. c #736155",
"6. c #7C6252",
"7. c #786358",
"8. c #78675C",
"9. c #766863",
"0. c #7A6662",
"q. c #85412C",
"w. c #8C442C",
"e. c #9A462D",
"r. c #9D482F",
"t. c #94432D",
"y. c #844534",
"u. c #8D4532",
"i. c #854936",
"p. c #884A36",
"a. c #844C3A",
"s. c #8B4D3B",
"d. c #834638",
"f. c #924935",
"g. c #9C4C36",
"h. c #944A37",
"j. c #8A543B",
"k. c #8A5A3D",
"l. c #94523D",
"z. c #9D533D",
"x. c #995C3D",
"c. c #A7472F",
"v. c #A6482F",
"b. c #A44B34",
"n. c #AB4D33",
"m. c #A34E3C",
"M. c #A5523B",
"N. c #AB553C",
"B. c #A5583E",
"V. c #9A613B",
"C. c #A2653D",
"Z. c #A9683F",
"A. c #844E43",
"S. c #8C4E43",
"D. c #845445",
"F. c #8B5445",
"G. c #845C46",
"H. c #8A5B44",
"J. c #89534A",
"K. c #815C4A",
"L. c #865B4A",
"P. c #9B5745",
"I. c #955D43",
"U. c #9B5A44",
"Y. c #945D4A",
"T. c #995A4C",
"R. c #955544",
"E. c #A65743",
"W. c #8E6344",
"Q. c #86644C",
"!. c #8B644D",
"~. c #876044",
"^. c #966543",
"/. c #90664A",
"(. c #9A654C",
"). c #936B4D",
"_. c #9B6C4C",
"`. c #9E6641",
"'. c #826453",
"]. c #82695C",
"[. c #8A6D5C",
"{. c #886954",
"}. c #926D52",
"|. c #996C56",
" X c #8D715B",
".X c #9B7154",
"XX c #91715F",
"oX c #9B755D",
"OX c #987A5E",
"+X c #AB6D44",
"@X c #A16D4D",
"#X c #AA6446",
"$X c #B4764D",
"%X c #BF7D4D",
"&X c #A46C51",
"*X c #A67658",
"=X c #A67D5C",
"-X c #AD7E5A",
";X c #A87751",
":X c #B77C58",
">X c #856F64",
",X c #867267",
"<X c #957564",
"1X c #997967",
"2X c #A17C62",
"3X c #B17D61",
"4X c #BE8256",
"5X c #A78168",
"6X c #AE8360",
"7X c #B78A62",
"8X c None",
/* pixels */
"8X8X8X8X8X8X8X8X8X8X8X8X8X8X8X8X8X8X8X8X8X8X8X8X8X8X8X8X8X8X8X8X8X8X8X8X8X8X8X8X8X8X8X8X8X8X8X8X8X8X8X8X8X8X8X8X8X8X8X8X8X8X8X8X8X8X8X8X8X8X",
"8X8X8X8X8X8X8X8X8X8X8X8X8X8X8X8X8X8X8X8X8X8X8X8X8X8X8X8X8X8X8X8X8X8X8X8X8X8X8X8X8X8X8X8X8X8X8X8X8X8X8X8X8X8X8X8X8X8X8X8X8X8X8X8X8X8X8X8X8X8X",
"8X8X8X8X8X8X8X8X8X8X8X8X8X8X8X8X8X8X8X8X8X8X8X8X8X8X8X8X8X8X8X8X8X8X8X8X8X8X8X8X8X8X8X8X8X8X8X8X8X8X8X8X8X8X8X8X8X8X8X8X8X8X8X8X8X8X8X8X8X8X",
"8X8X8X8X8X8X8X8X8X8X8X8X8X8X8X8X8X8X8X8X8X8X8X8X8X8X8X8X8X8X8X8X8X8X8X8X8X8X8X8X8X8X8X8X8X8X8X8X8X8X8X8X8X8X8X8X8X8X8X8X8X8X8X8X8X8X8X8X8X8X",
"8X8X8X8X8X8X8X8X8X8X8X8X8X8X8X8X8X8X8X8X8X8X8X8X8X8X8X8X8X8X8X8X8X8X8X8X8X8X8X8X8X8X8X8X8X8X8X8X8X8X8X8X8X8X8X8X8X8X8X8X8X8X8X8X8X8X8X8X8X8X",
"8X8X8X8X8X8X8X8X8X8X8X8X8X8X8X8X8X8X8X8X8X8X8X8X8X8X8X8X8X8X8X8X8X8X8X8X8X8X8X8X8X8X8X8X8X8X8X8X8X8X8X8X8X8X8X8X8X8X8X8X8X8X8X8X8X8X8X8X8X8X",
"8X8X8X8X8X8X8X8X8X8X8X8X8X8X8X8X8X8X8X8X8X8X8X8X8X8X8X8X8X8X8X8X8X8X8X8X8X8X8X8X8X8X8X8X8X8X8X8X8X8X8X8X8X8X8X8X8X8X8X8X8X8X8X8X8X8X8X8X8X8X",
"8X8X8X8X8X8X8X8X8X8X8X8X8X8X8X8X8X8X8X8X8X8X8X8X8X8X8X8X8X8X8X8X8X8X8X8X8X8X8X8X8X8X8X8X8X8X8X8X8X8X8X8X8X8X8X8X8X8X8X8X8X8X8X8X8X8X8X8X8X8X",
"8X8X8X8X8X8X8X8X8X8X8X8X8X8X8X8X8X8X8X8X8X8X8X8X8X8X8X8X8X8X8X8X8X8X8X8X8X8X8X8X8X8X8X8X8X8X8X8X8X8X8X8X8X8X8X8X8X8X8X8X8X8X8X8X8X8X8X8X8X8X",
"8X8X8X8X8X8X8X8X8X8X8X8X8X8X8X8X8X8X8X8X8X8X8X8X8X8X8X8X8X8X8X8X8X8X8X8X8X8X8X8X8X8X8X8X8X8X8X8X8X8X8X8X8X8X8X8X8X8X8X8X8X8X8X8X8X8X8X8X8X8X",
"8X8X8X8X8X8X8X8X8X8X8X8X8X8X8X8X8X8X8X8X8X8X8X8X8X8X8X8X8X8X8X8X8X8X8X8X8X8X8X8X8X8X8X8X8X8X8X8X8X8X8X8X8X8X8X8X8X8X8X8X8X8X8X8X8X8X8X8X8X8X",
"8X8X8X8X8X8X8X8X8X8X8X8X8X8X8X8X8X8X8X8X8X8X8X8X8X8X8X8X8X8X8X8X8X8X8X8X8X8X8X8X8X8X8X8X8X8X8X8X8X8X8X8X8X8X8X8X8X8X8X8X8X8X8X8X8X8X8X8X8X8X",
"8X8X8X8X8X8X8X8X8X8X8X8X8X8X8X8X8X8X8X8X8X8X8X8X8X8X= % & 8X8X8X8X8X8X8X8X8X8X8X8X8X8X8X8X8X8X8X8X8X8X8X8X8X8X8X8X8X8X8X8X8X8X8X8X8X8X8X8X8X",
"8X8X8X8X8X8X8X8X8X8X8X8X8X8X8X8X8X8X8X8X8X8X8X8X8Xy u * . = 8X8X8X8X8X8X8X8X8X8X8X8X8X8X8X8X8X8X8X8X8X8X8X8X8X8X8X8X8X8X8X8X8X8X8X8X8X8X8X8X",
"8X8X8X8X8X8X8X8X8X8X8X8X8X8X8X8X8X8X8X8X8X8X8X8X8XD = H X H 8X8X8X8X8X8X8X8X8X8X8X8X8X8X= 8X8X8X8X8X8X8X8X8X8X8X8X8X8X8X8X8X8X8X8X8X8X8X8X8X",
"8X8X8X8X8X8X8X8X8X8X8X8X8X8X8X8X8X8X8X8X8X8X8X8X8X8X/  X2.W 8X8X8X8X8X8X8X8X8X8X8X8XH u + + % 8X8X8X8X8X8X8X8X8X8X8X8X8X8X8X8X8X8X8X8X8X8X8X",
"8X8X8X8X8X8X8X8X8X8X8XH 8X8X8X8X8X8X8X8X8X8X8X8X8X8X8.R ..Q.8X8X8X8X8X8X8X8X8X8X8X8XH = .   & 8X8X8X8X8X8X8X8X8X8X8X8X8X8X8X8X8X8X8X8X8X8X8X",
"8X8X8X8X8X8X8X8X8X8X= * $ H 8X8X8X8X8X8X8X8X8X8X8X8X=.W R u 8X8X8X8X8X8X8X8X8X8X8X+.+.% + * 8X8X8X8X8X8X8X8X8X8X8X8X8X8X8X8X8X8X8X8X8X8X8X8X",
"8X8X8X8X8X8X8X8X8X8X2 & H E 6.%.8X8X8X8X8X8X8X8X8X8X5.7X$X_.8X8X8X8X8X8X8X8X8Xo.T i _.u E 8X8X8X8X8X8X8X8X8X8X8X8X8X8X8X8X8X8X8X8X8X8X8X8X8X",
"8X8X8X8X8X8X8X8X8X8X$ $ D :.6.J ! %.Q.8X8X8X8X8X8X8X-XW.S V.^.8X8X8X8X8X8X8X7.2.2 y G.2.8X8X8X8X8X8X8X8X8X8X8X8X8X8X8X8X8X8X8X8X8X8X8X8X8X8X",
"8X8X8X8X8X8X8X8X8X8X8X8X8X:.:.4 OX;X^.H.X.8X8X8X8X8XQ.[ k l b 8X8X8X8X8X.X).W.+X).4 8X8X8X8X8X8X8X8X8X8X8X8X= 8X8X8X8X8X8X8X8X8X8X8X8X8X8X8X",
"8X8X8X8X8X8X8X8X8X8X8X8X8X8X8X* 6X/.@.[ M F.J.8X8X8XV c i.q.s.8X8X8X8XA @.v z V.$X8X8X8X8X8X8X8X8X8X8X8XH y @ X X 8X8X8X8X8X8X8X8X8X8X8X8X8X",
"8X8X8X8X8X8X8X8X8X8X8X8X8X8X8X8X8XK.c c l.b.m.A.8X8XF.p.N.r.M.8X8X8XJ.s.B l g z ^.8X8X8X8X.X*X{.R u d Q.T +   . & 8X8X8X8X8X8X8X8X8X8X8X8X8X",
"8X8X8X8X8X8X8X8X8X8X8X8X8X8X8X8X8X8Xx p.i.E.b.u.k 8XD.l.z.n.f.8X8X .T.z.b.w.w.b 8X8X8X| @.Z S V.4X+ a _.a + % % 8X8X8X8X8X8X8X8X8X8X8X8X8X8X",
"8X8X8X8X8X8X8X8X8X8X8X8X8X8X8X8X8X8X8X| B B e : S A d N e w 0 k 8X} B g.b.n.P.8X} S.S.p.h k l C.4X% W /.8X8X8X8X8X8X8X8X8X8X8X8X8X8X8X8X8X8X",
"8X8X8X8X8X8X8X= * K 5.7.E {.!.8X8X8X8X8X8Xe > l k.R Y s 6 b #.v W s 1 q.q.a.8X..N B M.b.q.q k k.8X8X8X8X8X8X8X8X8X8X8X8X8X8X8X8X8X8X8X8X8X8X",
"8X8X8X8X8X8X8X$ * 5.O.Q .X;X*.N P.F.c 8X8X8XZ *.R ! ^ ` ;.:.=.( ~ =.[ b e 8X~ O.; w v.n.b.l.b 8X8X8X8X8X8X8X8X8X8X8X8X8X8X8X8X8X8X8X8X8X8X8X",
"8X8X8X8X8X8X8X8X8X^ :.H =XA b l.N.M.m b Q 8XK E =.,.7.0.>X[.<X1X,X9.) ( W 8X~ O.@.e 0 a.8X8XI / E E I T E ! ( =.8X8X8X8X8X8X8X8X8X8X8X8X8X8X",
"8X8X8X8X8X8X8X8X8X8X8X8X].K.7 n s.m : A ! ;.;.].1.*.Y.D.Y.P.j.l.U.(._.2XoX[.>.P v b 8X8X~ E K y u J s a i u J T ( ' 8X8X8X8X8X8X8X8X8X8X8X8X",
"8X8X8X8X8X8X8X8X8X8X8X8X8X8X8X} } e x ,.8.OXL.V x 3 B 6 p c i 6 h h 7 p.x.x./.1.I H P H = & 5 u u 2 u 5 u s f a a u o.=.8X8X8X8X8X8X8X8X8X8X",
"8X8X8X8X8X8X8X8X8X8X8X8X8X8X8X' ) Q W / ;.(.j.N 5 * < < * * + @ ; @ O - > t j.G.+.I H < & & 4 y a 5 a s a f f u 2 4 u ! ;.8X8X8X8X8X8X8X8X8X",
"8X8X8X8X8X8X8X8X8X8X8X8X8X8X( 4.=.! T 5 y F.[ b s 4 * $ * * * % @ + O @ - 9 q M ] ..3 2 & & 4 4 u u u a R f u y 3 s s f ..o.8X8X8X8X8X8X8X8X",
"8X8X8X8X8X8X8X8X8X8X8X8X8X4 ) ! Y T a 4 * *.= 4 = y * * % * = $ + + + % < > g l f ..a 2 % 4 = = 4 4 2 u u T u u 2 3 3 u Y ..8X8X8X8X8X8X8X8X",
"8X8X8X8X8X8X8X8X8X8X8X8X8X8XL u 2 $ $ $ 4 C + K y H = = = = + + + + < 3 > q w.h f +.u u y y u 5 4 u u 4 4 2 4 u u u p s ] R ;.8X8X8X8X8X8X8X",
"8X8X8X8X8X8X8X8X8X8X8X8X8X8X8X8Xy D = L K.$.H ^ I H D = * & + @ - - 8 k q w.w.h i v f u 4 y y 4 4 4 u u u a U s i i u R R ..3.8X8X8X8X8X8X8X",
"8X8X8X8X8X8X8X8X8X8X8X8X8X8X8XK J H F J [ { J ^ ^ H = $ $ + + + - - 6 e 0 q.w.h u d u u & y 4 y 5 & & & < < 4 a d d ] R R ..3.;.8X8X8X8X8X8X",
"8X8X8X8X8X8X8X8X8X8X8X8X8X8XE K u u 4 4 5 x # * = H $ $ # * $ $ + + @ - > q w.h a s 2 @ O < H F 4 = & 4 4 4 5 a i a x U ] X.:.8X8X8X8X8X8X8X",
"8X8X8X8X8X8X8X8X8X8X8X8X8XH ' ! T f u 4 * 8 o # $ * * $ $ $ $ $ + O + < - > M z J 8 < @ O $ 4 4 F < < 4 < < < 3 s s a d ..X.;.8X8X8X8X8X8X8X",
"8X8X8X8X8X8X8X8X8X8X8X8X8X8X/ ( E J u 2 H x 6 7 6 & * = $ # # $ + + + @ - - k M Y 4 @ @ O @ < 4 4 5 4 5 4 8 s 5 u a a d W o.8X8X8X8X8X8X8X8X",
"8X8X8X8X8X8X8X8X8X8X8X8X8X8X8X8XQ E W / =.Y.z.p.> @ u & $ # # # + O O 7 r l a./.<.P $ O O # + + % < 4 5 F F U a a a a o.:.8X8X8X8X8X8X8X8X8X",
"8X8X8X8X8X8X8X8X8X8X8X8X8X8XV S.A.c k o.3.|.L.V 1 8 t - - e 8 < 6 t 7 B N.#X*XXXI P L = + $ $ < 3 3 4 U J u Y d u u W ,.8X8X8X8X8X8X8X8X8X8X",
"8X8X8X8X8X8X8X8X8X8X'.Q =X~.V a.z.t > S =.>.( >X{.&.T.D.Y.R.H.F.Y.@X&X:X3X1X9.I ..A 8X~ I H 4 < 4 4 3 y a T u U R =.>.8X8X8X8X8X8X8X8X8X8X8X",
"8X8X8X8X8X8X8X8XL =.=.O.*XZ c y.b.h.r @.( 8XJ J ! 5.0.,X<X<X1X5X1X9.>.( 8X~ _ '.!.k 9 B 8X~ / / ( =.W W ! ;.=.,.>.8X8X8X8X8X8X8X8X8X8X8X8X8X",
"8X8X8X8X8X8X8X* = <.W E Q.@X@.N T.J.8X8X8XA A X.T ! / ` >.! ( ( I <.&.[ p 8X/ @.p q.r.g.z.s.8X8X8X8X' ' 8X8X8X8X8X8X8X8X8X8X8X8X8X8X8X8X8X8X",
"8X8X8X8X8X8X8X$ $ L >.7.E 8X8X8X8X8X8X8X} V ; M #.T X.X.x S b 8Xo.] x q.w C 8XY 7 y.n.g.t.q l H.8X8X8X8X8X8X8X8X8X8X8X8X8X8X8X8X8X8X8X8X8X8X",
"8X8X8X8X8X8X8X8X8X8X8X8X8X8X8X8X8X8X8XR.l.B 9 , S ] } c 9 j 9 8XY e t b.v.g.8X8X{ B u.q.h k M +X).% v 8X8X8X8X8X8X8X8X8X8X8X8X8X8X8X8X8X8X8X",
"8X8X8X8X8X8X8X8X8X8X8X8X8X8X8X8X8X$.a.s.s.M.g.q.z 8XA.s.g.c.p.8X8X} d.g.t.e.a.8X8X8X| { s p M Z._.+ v K.4 y 2 8X8X8X8X8X8X8X8X8X8X8X8X8X8X8X",
"8X8X8X8X8X8X8X8X8X8X8X8X8X8X8X8X-X&.v l h.b.E.D.8X8Xa.y.n.c.P.8X8X8XC t w r r V 8X8X8X8X&.!._.).2.4 b ).& .   % 8X8X8X8X8X8X8X8X8X8X8X8X8X8X",
"8X8X8X8X8X8X8X8X8X8X8X8X8X8XQ ! -X#.v x C T.8X8X8X8XN l m w.T.8X8X8X8Xx i k M C.$X8X8X8X8X8X8X8X8X8X8X( y X . O 8X8X8X8X8X8X8X8X8X8X8X8X8X8X",
"8X8X8X8X8X8X8X8X8X8X8X8X^ <XE & 6X^.(.W.$.8X8X8X8X8Xb x k l @.8X8X8X8X8X&.A k.%XX.y 8X8X8X8X8X8X8X8X8X8XP y * + 8X8X8X8X8X8X8X8X8X8X8X8X8X8X",
"8X8X8X8X8X8X8X8X8X4 4 = J [.R H :.%.8X8X8X8X8X8X8X8X~.V k.`.8X8X8X8X8X8X8XQ.Q.}.+ f /.8X8X8X8X8X8X8X8X8X8X8X8X8X8X8X8X8X8X8X8X8X8X8X8X8X8X8X",
"8X8X8X8X8X8X8X8X8X= % $ * ! 1.8X8X8X8X8X8X8X8X8X8X8X X_.4X_.8X8X8X8X8X8X8X8XI J 2 b ).y 8X8X8X8X8X8X8X8X8X8X8X8X8X8X8X8X8X8X8X8X8X8X8X8X8X8X",
"8X8X8X8X8X8X8X8X8X$ $ $ = 8X8X8X8X8X8X8X8X8X8X8X8X:.F O.U R 8X8X8X8X8X8X8X8X8X8X-.1...+ * 8X8X8X8X8X8X8X8X8X8X8X8X8X8X8X8X8X8X8X8X8X8X8X8X8X",
"8X8X8X8X8X8X8X8X8X8X8X8X8X8X8X8X8X8X8X8X8X8X8X8X8X8X=.U 6.}.8X8X8X8X8X8X8X8X8X8X8XL * O   O 8X8X8X8X8X8X8X8X8X8X8X8X8X8X8X8X8X8X8X8X8X8X8X8X",
"8X8X8X8X8X8X8X8X8X8X8X8X8X8X8X8X8X8X8X8X8X8X8X8X8XL =.}.+.8X8X8X8X8X8X8X8X8X8X8X8X8X= O . + 8X8X8X8X8X8X8X8X8X8X8X8X8X8X8X8X8X8X8X8X8X8X8X8X",
"8X8X8X8X8X8X8X8X8X8X8X8X8X8X8X8X8X8X8X8X8X8X8X8X8XD * $ y 8X8X8X8X8X8X8X8X8X8X8X8X8X8X= + 8X8X8X8X8X8X8X8X8X8X8X8X8X8X8X8X8X8X8X8X8X8X8X8X8X",
"8X8X8X8X8X8X8X8X8X8X8X8X8X8X8X8X8X8X8X8X8X8X8X8X8X2 + . % 8X8X8X8X8X8X8X8X8X8X8X8X8X8X8X8X8X8X8X8X8X8X8X8X8X8X8X8X8X8X8X8X8X8X8X8X8X8X8X8X8X",
"8X8X8X8X8X8X8X8X8X8X8X8X8X8X8X8X8X8X8X8X8X8X8X8X8X* O $ H 8X8X8X8X8X8X8X8X8X8X8X8X8X8X8X8X8X8X8X8X8X8X8X8X8X8X8X8X8X8X8X8X8X8X8X8X8X8X8X8X8X",
"8X8X8X8X8X8X8X8X8X8X8X8X8X8X8X8X8X8X8X8X8X8X8X8X8X8X8X8X8X8X8X8X8X8X8X8X8X8X8X8X8X8X8X8X8X8X8X8X8X8X8X8X8X8X8X8X8X8X8X8X8X8X8X8X8X8X8X8X8X8X",
"8X8X8X8X8X8X8X8X8X8X8X8X8X8X8X8X8X8X8X8X8X8X8X8X8X8X8X8X8X8X8X8X8X8X8X8X8X8X8X8X8X8X8X8X8X8X8X8X8X8X8X8X8X8X8X8X8X8X8X8X8X8X8X8X8X8X8X8X8X8X",
"8X8X8X8X8X8X8X8X8X8X8X8X8X8X8X8X8X8X8X8X8X8X8X8X8X8X8X8X8X8X8X8X8X8X8X8X8X8X8X8X8X8X8X8X8X8X8X8X8X8X8X8X8X8X8X8X8X8X8X8X8X8X8X8X8X8X8X8X8X8X",
"8X8X8X8X8X8X8X8X8X8X8X8X8X8X8X8X8X8X8X8X8X8X8X8X8X8X8X8X8X8X8X8X8X8X8X8X8X8X8X8X8X8X8X8X8X8X8X8X8X8X8X8X8X8X8X8X8X8X8X8X8X8X8X8X8X8X8X8X8X8X",
"8X8X8X8X8X8X8X8X8X8X8X8X8X8X8X8X8X8X8X8X8X8X8X8X8X8X8X8X8X8X8X8X8X8X8X8X8X8X8X8X8X8X8X8X8X8X8X8X8X8X8X8X8X8X8X8X8X8X8X8X8X8X8X8X8X8X8X8X8X8X",
"8X8X8X8X8X8X8X8X8X8X8X8X8X8X8X8X8X8X8X8X8X8X8X8X8X8X8X8X8X8X8X8X8X8X8X8X8X8X8X8X8X8X8X8X8X8X8X8X8X8X8X8X8X8X8X8X8X8X8X8X8X8X8X8X8X8X8X8X8X8X",
"8X8X8X8X8X8X8X8X8X8X8X8X8X8X8X8X8X8X8X8X8X8X8X8X8X8X8X8X8X8X8X8X8X8X8X8X8X8X8X8X8X8X8X8X8X8X8X8X8X8X8X8X8X8X8X8X8X8X8X8X8X8X8X8X8X8X8X8X8X8X",
"8X8X8X8X8X8X8X8X8X8X8X8X8X8X8X8X8X8X8X8X8X8X8X8X8X8X8X8X8X8X8X8X8X8X8X8X8X8X8X8X8X8X8X8X8X8X8X8X8X8X8X8X8X8X8X8X8X8X8X8X8X8X8X8X8X8X8X8X8X8X",
"8X8X8X8X8X8X8X8X8X8X8X8X8X8X8X8X8X8X8X8X8X8X8X8X8X8X8X8X8X8X8X8X8X8X8X8X8X8X8X8X8X8X8X8X8X8X8X8X8X8X8X8X8X8X8X8X8X8X8X8X8X8X8X8X8X8X8X8X8X8X",
"8X8X8X8X8X8X8X8X8X8X8X8X8X8X8X8X8X8X8X8X8X8X8X8X8X8X8X8X8X8X8X8X8X8X8X8X8X8X8X8X8X8X8X8X8X8X8X8X8X8X8X8X8X8X8X8X8X8X8X8X8X8X8X8X8X8X8X8X8X8X",
"8X8X8X8X8X8X8X8X8X8X8X8X8X8X8X8X8X8X8X8X8X8X8X8X8X8X8X8X8X8X8X8X8X8X8X8X8X8X8X8X8X8X8X8X8X8X8X8X8X8X8X8X8X8X8X8X8X8X8X8X8X8X8X8X8X8X8X8X8X8X",
"8X8X8X8X8X8X8X8X8X8X8X8X8X8X8X8X8X8X8X8X8X8X8X8X8X8X8X8X8X8X8X8X8X8X8X8X8X8X8X8X8X8X8X8X8X8X8X8X8X8X8X8X8X8X8X8X8X8X8X8X8X8X8X8X8X8X8X8X8X8X"
};
