/* XPM */
static char *result[] = {
/* columns rows colors chars-per-pixel */
"240 60 59 1 ",
"  c #2B0000",
". c #330000",
"X c #3C0000",
"o c #430000",
"O c #4B0000",
"+ c #530000",
"@ c #5C0000",
"# c #640000",
"$ c #6C0000",
"% c #730000",
"& c #7B0000",
"* c #840000",
"= c #8C0000",
"- c #930000",
"; c #9B0000",
": c #A30000",
"> c #AB0000",
", c #B30000",
"< c #BB0000",
"1 c #C40000",
"2 c #CB0000",
"3 c #D30000",
"4 c #DE0000",
"5 c #E40000",
"6 c #EE0000",
"7 c #F40000",
"8 c #FF0000",
"9 c #FF0C0C",
"0 c #FF1313",
"q c #FF1B1B",
"w c #FF2323",
"e c #FF2C2C",
"r c #FF3434",
"t c #FF3C3C",
"y c #FF4242",
"u c #FF4C4C",
"i c #FF5353",
"p c #FF5C5C",
"a c #FF6363",
"s c #FF6C6C",
"d c #FF7373",
"f c #FF7C7C",
"g c #FF8585",
"h c #FF8C8C",
"j c #FF9393",
"k c #FF9B9B",
"l c #FFA4A4",
"z c #FFACAC",
"x c #FFB4B4",
"c c #FFBCBC",
"v c #FFC2C2",
"b c #FFCBCB",
"n c #FFD4D4",
"m c #FFDCDC",
"M c #FFE4E4",
"N c #FFEDED",
"B c #FFF4F4",
"V c #FFFEFE",
"C c None",
/* pixels */
"CCCCCCCCCCCCCCCC3<;=%%$%%&**=--;:>>,<<122CCCCCCCCCCCCCCCCCCCCCCCCCCCCCCCCCCCCCCCCCCCCCCCCCCCCCCCCCCCCCCCCCCCCCCCCCCCCCCCCCCCCCCCCCCCCCCCCCCCCCCCCCCCCCCCCCCCCCCCCCCCCCCCCCCCCCCCCCCCCCCCCCCCCCCCCCCCCCCCCCCCCCCCCCCCCCCCCCCCCCCCCCCCCCCCCCCCCCCC",
"CCCCCCCCCCCCCCCC43221>;=&***=-;;::>>,<112CCCCCCCCCCCCCCCCCCCCCCCCCCCCCCCCCCCCCCCCCCCCCCCCCCCCCCCCCCCCCCCCCCCCCCCCCCCCCCCCCCCCCCCCCCCCCCCCCCCCCCCCCCCCCCCCCCCCCCCCCCCCCCCCCCCCCCCCCCCCCCCCCCCCCCCCCCCCCCCCCCCCCCCCCCCCCCCCCCCCCCCCCCCCCCCCCCCCCCC",
"CCCCCCCCCCCCCCCC33211<,,>:--=--;::>,,<<1CCCCCCCCCCCCCCCCCCCCCCCCCCCCCCCCCCCCCCCCCCCCCCCCCCCCCCCCCCCCCCCCCCCCCCCCCCCCCCCCCCCCCCCCCCCCCCCCCCCCCCCCCCCCCCCCCCCCCCCCCCCCCCCCCCCCCCCCCCCCCCCCCCCCCCCCCCCCCCCCCCCCCCCCCCCCCCCCCCCCCCCCCCCCCCCCCCCCCCCC",
"CCCCCCCCCCCCCCC33321<<,,>::;-===-;:>,,<1CCCCCCCCCCCCCCCCCCCCCCCCCCCCCCCCCCCCCCCCCCCCCCCCCCCCCCCCCCCCCCCCCCCCCCCCCCCCCCCCCCCCCCCCCCCCCCCCCCCCCCCCCCCCCCCCCCCCCCCCCCCCCCCCCCCCCCCCCCCCCCCCCCCCCCCCCCCCCCCCCCCCCCCCCCCCCCCCCCCCCCCCCCCCCCCCCCCCCCCC",
"CCCCCCCCCCCCCCC43211<,,>::;--=**&&&*=:>CCCCCCCCCCCCCCCCCCCCCCCCCCCCCCCCCCCCCCCCCCCCCCCCCCCCCCCCCCCCCCCCCCCCCCCCCCCCCCCCCCCCCCCCCCCCCCCCCCCCCCCCCCCCCCCCCCCCCCCCCCCCCCCCCCCCCCCCCCCCCCCCCCCCCCCCCCCCCCCCCCCCCCCCCCCCCCCCCCCCCCCCCCCCCCCCCCCCCCCCC",
"CCCCCCCCCCCCCC333211<,>>::;--=**&%$####@+CCCCCCCCCCCCCCCCCCCCCCCCCCCCCCCCCCCCCCCCCCCCCCCCCCCCCCCCCCCCCCCCCCCCCCCCCCCCCCCCCCCCCCCCCCCCCCCCCCCCCCCCCCCCCCCCCCCCCCCCCCCCCCCCCCCCCCCCCCCCCCCCCCCCCCCCCCCCCCCCCCCCCCCCCCCCCCCCCCCCCCCCCCCCCCCCCCCCCCC",
"CCCCCCCCCCCCCC33221<<,>>:;;-=**&&%%##@@+OoooXCCCCCCCCCCCCCCCCCCCCCCCCCCCCCCCCCCCCCCCCCCCCCCCCCCCCCCCCCCCCCCCCCCCCCCCCCCCCCCCCCCCCCCCCCCCCCCCCCCCCCCCCCCCCCCCCCCCCCCCCCCCCCCCCCCCCCCCCCCCCCCCCCCCCCCCCCCCCCCCCCCCCCCCCCCCCCCCCCCCCCCCCCCCCCCCCCCC",
"CCCCCCCCCCCCCC3321<<,,>::;--=**&%%$##@++OOoX.. .+CCCCCCCCCCCCCCCCCCCCCCCCCCCCCCCCCCCCCCCCCCCCCCCCCCCCCCCCCCCCCCCCCCCCCCCCCCCCCCCCCCCCCCCCCCCCCCCCCCCCCCCCCCCCCCCCCCCCCCCCCCCCCCCCCCCCCCCCCCCCCCCCCCCCCCCCCCCCCCCCCCCCCCCCCCCCCCCCCCCCCCCCCCCCCCC",
"CCCCCCCCCCCCC33221<<,>>:;;-==*&&%$###@+OOooXX@*>1CCCCCCCCCCCCCCCCCCCCCCCCCCCCCCCCCCCCCCCCCCCCCCCCCCCCCCCCCCCCCCCCCCCCCCCCCCCCCCCCCCCCCCCCCCCCCCCCCCCCCCCCCCCCCCCCCCCCCCCCCCCCCCCCCCCCCCCCCCCCCCCCCCCCCCCCCCCCCCCCCCCCCCCCCCCCCCCCCCCCCCCCCCCCCCC",
"CCCCCCCCCCCCC33211<,,>>:;;-=**&%%$##@@+OoO@&;,<11CCCCCCCCCCCCCCCCCCCCCCCCCCCCCCCCCCCCCCCCCCCCCCCCCCCCCCCCCCCCCCCCCCCCCCCCCCCCCCCCCCCCCCCCCCCCCCCCCCCCCCCCCCCCCCCCCCCCCCCCCCCCCCCCCCCCCCCCCCCCCCCCCCCCCCCCCCCCCCCCCCCCCCCCCCCCCCCCCCCCCCCCCCCCCCC",
"CCCCCCCCCCCCC3221<<,>>:;;-==**&%%##@@@@%=;:>>,<<<CCCCCCCCCCCCCCCCCCCCCCCCCCCCCCCCCCCCCCCCCCCCCCCCCCCCCCCCCCCCCCCCCCCCCCCCCCCCCCCCCCCCCCCCCCCCCCCCCCCCCCCCCCCCCCCCCCCCCCCCCCCCCCCCCCCCCCCCCCCCCCCCCCCCCCCCCCCCCCCCCCCCCCCCCCCCCCCCCCCCCCCCCCCCCCC",
"CCCCCCCCCCCC33211<,,>::;--=**&%%$###$&--;::>,,,<CCCCCCCCCCCCCCCCCCCCCCCCCCCCCCCCCCCCCCCCCCCCCCCCCCCCCCCCCCCCCCCCCCCCCCCCCCCCCCCCCCCCCCCCCCCCCCCCCCCCCCCCCCCCCCCCCCCCCCCCCCCCCCCCCCCCCCCCCCCCCCCCCCCCCCCCCCCCCCCCCCCCCCCCCCCCCCCCCCCCCCCCCCCCCCCC",
"CCCCCCCCCCCC32211<,,>:;;--=*&&%%$%&**=--;:::>>,<CCCCCCCCCCCCCCCCCCCCCCCCCCCCCCCCCCCCCCCCCCCCCCCCCCCCCCCCCCCCCCCCCCCCCCCCCCCCCCCCCCCCCCCCCCCCCCCCCCCCCCCCCCCCCCCCCCCCCCCCCCCCCCCCCCCCCCCCCCCCCCCCCCCCCCCCCCCCCCCCCCCCCCCCCCCCCCCCCCCCCCCCCCCCCCCC",
"CCCCCCCCCCCC3211<,,>>:;;-=**&%$$%&&**=---;::>,,,CCCCCCCCCCCCCCCCCCCCCCCCCCCCCCCCCCCCCCCCCCCCCCCCCCCCCCCCCCCCCCCCCCCCCCCCCCCCCCCCCCCCCCCCCCCCCCCCCCCCCCCCCCCCCCCCCCCCCCCCCCCCCCCCCCCCCCCCCCCCCCCCCCCCCCCCCCCCCCCCCCCCCCCCCCCCCCCCCCCCCCCCCCCCCCCC",
"CCCCCCCCCCC33211<,>>:;;---*%$%&&&**=--;;;:>>>,<CCCCCCCCCCCCCCCCCCCCCCCCCCCCCCCCCCCCCCCCCCCCCCCCCCCCCCCCCCCCCCCCCCCCCCCCCCCCCCCCCCCCCCCCCCCCCCCCCCCCCCCCCCCCCCCCCCCCCCCCCCCCCCCCCCCCCCCCCCCCCCCCCCCCCCCCCCCCCCCCCCCCCCCCCCCCCCCCCCCCCCCCCCCCCCCCC",
"CCCCCCCCCCC3221<<,>>::--<66666766777777778777878888888888888888888888888888888888888888888888888888888888888888888888888888888888888888888888888888888888888888888888888888888888888888888888888888888888888888888888888888888888888888888888888",
"CCCCCCCCCC23211<,,>::;--58888888888888888888888888888888888888888888888888888888888888888888888888888888888888888888888888888888888888888888888888888888888888888888888888888888888888888888888888888888888888888888888888888888888888888888888C",
"CCCCCCCCCC3221<,,>>:;;-;88888888888888888888888888888888888888888888888888888888888888888888888888888888888888888888888888888888888888888888888888888888888888888888888888888888888888888888888888888888888888888888888888888888888888888888888C",
"CCCCCCCCCC3211<,,>::;;-<8888888888888888888888888888888888888888888888888888888888888888888888888888888888888888888888888888888888888888888888888888888888888888888888888888888888888888888888888888888888888888888888888888888888888888888888CC",
"CCCCCCCCC2321<<,>>:;;-=58888888888888888888888888888888888888888888888888888888888888888888888888888888888888888888888888888888888888888888888888888888888888888888888888888888888888888888888888888888888888888888888888888888888888888888888CC",
"CCCCCCCCC3221<,,>>:;--:8888888888888888888888888888888888888888888888888888888888888888888888888888888888888888888888888888888888888888888888888888888888888888888888888888888888888888888888888888888888888888888888888888888888888888888888CCC",
"CCCCCCCCC221<<,,>::;--2888888888888888888888888888888888888888888888888888888888888888888888888888888888888888888888888888888888888888888888888888888888888888888888888888888888888888888888888888888888888888888888888888888888888888888888CCCC",
"CCCCCCCC2211<,,>>:;---7888888888888888888888888888888888888888888888888888888888888888888888888888888888888888888888888888888888888888888888888888888888888888888888888888888888888888888888888888888888888888888888888888888888888888888888CCCC",
"CCCCCCCC3211<,,>::;-=,888888888888888888888888888888888888888888888888888888888888888888888888888888888888888888888888888888888888888888888888888888888888888888888888888888888888888888888888888888888888888888888888888888888888888888888CCCCC",
"CCCCCCC2221<,,>>:;;-=3888888888888888888888888888888888888888888888888888888888888888888888888888888888888888888888888888888888888888888888888888888888888888888888888888888888888888888888888888888888888888888888888888888888888888888888CCCCC",
"CCCCCCC2211<,,>::;--;688888888888888888888888888888888888888888888888888888888888888888888888888888888888888888888888888888888888888888888888888888888888888888888888888888888888888888888888888888888888888888888888888888888888888888888CCCCCC",
"CCCCCCC221<<,>>:;;-=<888888888888888888888888888888888888888888888888888888888888888888888888888888888888888888888888888888888888888888888888888888888888888888888888888888888888888888888888888888888888888888888888888888888888888888888CCCCCC",
"CCCCCC2211<,,>::;--=488888888888888888888888888888888888888888888888888888888888888888888888888888888888888888888888888888888888888888888888888888888888888888888888888888888888888888888888888888888888888888888888888888888888888888888CCCCCCC",
"CCCCCC2211,,>>:;;-=>788888888888888888888888888888888888888888888888888888888888888888888888888888888888888888888888888888888888888888888888888888888888888888888888888888888888888888888888888888888888888888888888888888888888888888888CCCCCCC",
"CCCCCC211<<,>>:;;-=188888888888888888888888888888888888888888888888888888888888888888888888888888888888888888888888888888888888888888888888888888888888888888888888888888888888888888888888888888888888888888888888888888888888888888888CCCCCCCC",
"CCCCC221<<,>>::;-=-68888888888888888888888888888888888888888888888888888888888888888888888888888888888888888888888888888888888888888888888888888888888888888888888888888888888888888888888888888888888888888888888888888888888888888888CCCCCCCCC",
"CCCCC221<<,>>:;;-=:78888888888888888888888888888888888888888888888888888888888888888888888888888888888888888888888888888888888888888888888888888888888888888888888888888888888888888888888888888888888888888888888888888888888888888888CCCCCCCCC",
"CCCCC211<,,>::;--=288888888888888888888888888880fp888888888888888888888888999888888888888888889888888888888889999999888888888888888888888888888888888888888888888888888888888888888888888888888888888888989888888888888888888888888888CCCCCCCCCC",
"CCCC221<,,>>:;;-=-788888888888888888889ulccjr98fVVe88888888888888888888888gVBw88888888888888fVV98888888888888mVxuVVt88888888888888888888888888yggggggghf0888888888888888888889fggg08rggr8888888888888888pVVt88888888888888888888888888CCCCCCCCCC",
"CCCC211<,,>::;--=>88888888888888888880xVVVVVVl9ecl9888888888888888888txxi8fVNw88888888888888dVV88888888888888mVxiVVy88888888889gxlq88888888888fVVVVVVVVNe888888888888888888880MVVVh8aVVp8888888888888888iBVy8888888888888888888888888CCCCCCCCCCC",
"CCC121<<,,>:;;-==48888888888888888888jVVxiaxns9uzzyzzi8rlzyrkvcjt888dMVBzhfVNilxi98ulvcge888sVBrzvd989pzvxd98mVxuVVt0szccjy880xBVnly9azvxfq888ukjjVVmjjhakvcje8uzjwkcd9fvk0880MVMBB0pVBp8ilccje88rkcvky8uBVyqlzke88888888888888888888CCCCCCCCCCC",
"CCC211<,,>::;--=-88888888888888888888mVn00tytyqaVVtcVc8fVBrVVBMVBr88kVVVVmdVVNVVBriVVMNVmq88sVVMVVVf9kVVVVVz8mVcuVVyjVVmMVc08qMVVVVskVVVVVm0888880VVx88aBVVVVVraVNnVVVlVVVg880mVzcVhuVViiVVVVVBweBVVVVVuuBVunVMy88888888888888888888CCCCCCCCCCCC",
"CCC21<,,,>:;;-==,88888888888888888888MVb9pVVVVspVVwaVMwcVlkVBggmVz88qhVNwwfVVdsVVimVmgjBVs88sVVpenVb9rbcfbVB8nVxuVVyzVMfgzi989rmVjwqBVg9tBVp888889VVz88cVc00mVkaVVjsBVxyNVz880mVzpVBiVBpxVc0wbVllVbw0cVxpBVNVVr888888888888888888888CCCCCCCCCCCC",
"CC221<<,>::;--=-488888888888888888888cVBkifnVVsiVVwwmVdMVilVMuudar888fVV98fVNwwBViMVcuufpw88sVVw8cVnenVkdvVV8mVxiVVtwlgdkVNy889mVj89VVd8wMVp888889VVx88vVz88bVkpVVrwmVs8bVz880mVx0bVzVVaxVz99vVzlVv99lVcpBVVVVf88888888888888888888CCCCCCCCCCCCC",
"CC11<<,,>>:;--=;888888888888888888888uVVVMNmmVspVVw8jVMVnqiVVxzMnu888sVVvpfVNqwNVihVBzxMbw88sVVbcVVlrVVvvmVV0mVxiVVyfBnznVNy889bVNz0vVMcnVBe888889VVz88gVVcvVVpaVBewmVs8nVz880MVc0iVBVBpdVBcvVViiVVvcBVdiVVkhVMu8888888888888888888CCCCCCCCCCCCC",
"CC21<,,>:::--==18888888888888888888888yznnzefbiibbw8rbbbs88icnncd98880lnmdsbcqwvbu9svnnxp888abltvnjq9hbvdrbnyxbjybbrrhbnnci8888ucnnq9gvnblr8888889bbh889acnnxi8ibbwwxbp8zbh880cbk08xbbbu9svnnxu88ucnncs9uvbr8lbxe88888888888888888CCCCCCCCCCCCCC",
"C11<<,,>::;--=-588888888888888888888888899888888888888888888800888888880088888888888809888888888998888988889888898888880988888889098889098888888888888888800888888888888888888888888888888809888888908888888888888888888888888888CCCCCCCCCCCCCCC",
"C21<<,>>:;;-==>888888888888888888888888888888888888888888888888888888888888888888888888888888888888888888888888888888888888888888888888888888888888888888888888888888888888888888888888888888888888888888888888888888888888888888CCCCCCCCCCCCCCC",
"111<,,>::;--=*388888888888888888888888888888888888888888888888888888888888888888888888888888888888888888888888888888888888888888888888888888888888888888888888888888888888888888888888888888888888888888888888888888888888888888CCCCCCCCCCCCCCCC",
"11<<,>>:;;-===788888888888888888888888888888888888888888888888888888888888888888888888888888888888888888888888888888888888888888888888888888888888888888888888888888888888888888888888888888888888888888888888888888888888888888CCCCCCCCCCCCCCCC",
"CC<<,>>:;;-=*,88888888888888888888888888888888888888888888888888888888888888888888888888888888888888888888888888888888888888888888888888888888888888888888888888888888888888888888888888888888888888888888888888888888888888888CCCCCCCCCCCCCCCCC",
"CCCCCC::;-==*488888888888888888888888888888888888888888888888888888888888888888888888888888888888888888888888888888888888888888888888888888888888888888888888888888888888888888888888888888888888888888888888888888888888888888CCCCCCCCCCCCCCCCC",
"CCCCCCCCCCC=-88888888888888888888888888888888888888888888888888888888888888888888888888888888888888888888888888888888888888888888888888888888888888888888888888888888888888888888888888888888888888888888888888888888888888888CCCCCCCCCCCCCCCCCC",
"CCCCCCCCCCCC78888888888888888888888888888888888888888888888888888888888888888888888888888888888888888888888888888888888888888888888888888888888888888888888888888888888888888888888888888888888888888888888888888888888888888CCCCCCCCCCCCCCCCCCC",
"CCCCCCCCCCCC88888888888888888888888888888888888888888888888888888888888888888888888888888888888888888888888888888888888888888888888888888888888888888888888888888888888888888888888888888888888888888888888888888888888888888CCCCCCCCCCCCCCCCCCC",
"CCCCCCCCCCCC8888888888888888888888888888888888888888888888888888888888888888888888888888888888888888888888888888888888888888888888888888888888888888888888888888888888888888888888888888888888888888888888888888888888888888CCCCCCCCCCCCCCCCCCCC",
"CCCCCCCCCCC78888888888888888888888888888888888888888888888888888888888888888888888888888888888888888888888888888888888888888888888888888888888888888888888888888888888888888888888888888888888888888888888888888888888888888CCCCCCCCCCCCCCCCCCCC",
"CCCCCCCCCCC8888888888888888888888888888888888888888888888888888888888888888888888888888888888888888888888888888888888888888888888888888888888888888888888888888888888888888888888888888888888888888888888888888888888888888CCCCCCCCCCCCCCCCCCCCC",
"CCCCCCCCCCC8888888888888888888888888888888888888888888888888888888888888888888888888888888888888888888888888888888888888888888888888888888888888888888888888888888888888888888888888888888888888888888888888888888888888888CCCCCCCCCCCCCCCCCCCCC",
"CCCCCCCCCC7888888888888888888888888888888888888888888888888888888888888888888888888888888888888888888888888888888888888888888888888888888888888888888888888888888888888888888888888888888888888888888888888888888888888888CCCCCCCCCCCCCCCCCCCCCC",
"CCCCCCCCCC8888888888888888888888888888888888888888888888888888888888888888888888888888888888888888888888888888888888888888888888888888888888888888888888888888888888888888888888888888888888888888888888888888888888888888CCCCCCCCCCCCCCCCCCCCCC",
"CCCCCCCCCC888888888888888888888888888888888888888888888888888888888888888888888888888888888888888888888888888888888888888888888888888888888888888888888888888888888888888888888888888888888888888888888888888888888888888CCCCCCCCCCCCCCCCCCCCCCC",
"CCCCCCCCC888888888888888888888888888888888888888888888888888888888888888888888888888888888888888888888888888888888888888888888888888888888888888888888888888888888888888888888888888888888888888888888888888888888888888CCCCCCCCCCCCCCCCCCCCCCCC",
"CCCCCCCCC888888888888888888888888888888888888888888888888888888888888888888888888888888888888888888888888888888888888888888888888888888888888888888888888888888888888888888888888888888888888888888888888888888888888888CCCCCCCCCCCCCCCCCCCCCCCC",
"CCCCCCCC7888888888888888888888888888888888888888888888888888888888888888888888888888888888888888888888888888888888888888888888888888888888888888888888888888888888888888888888888888888888888888888888888888888888888888CCCCCCCCCCCCCCCCCCCCCCCC"
};
