/* XPM */
static char *result[] = {
/* columns rows colors chars-per-pixel */
"70 70 246 2 ",
"   c #1D0302",
".  c #140504",
"X  c #230402",
"o  c #2D0601",
"O  c #2C0904",
"+  c #280906",
"@  c #320701",
"#  c #350901",
"$  c #390B02",
"%  c #3C0F09",
"&  c #3D1205",
"*  c #3C110A",
"=  c #37140A",
"-  c #3B1A14",
";  c #1C251F",
":  c #3D3C1E",
">  c #242926",
",  c #28332D",
"<  c #2D3532",
"1  c #2D3934",
"2  c #313A36",
"3  c #343E39",
"4  c #393B33",
"5  c #373A29",
"6  c #193224",
"7  c #431403",
"8  c #461903",
"9  c #4A1C03",
"0  c #4C1C0B",
"q  c #43160B",
"w  c #521D07",
"e  c #451911",
"r  c #52110B",
"t  c #6F0E08",
"y  c #4D2105",
"u  c #4C2209",
"i  c #542302",
"p  c #5B2502",
"a  c #5E2902",
"s  c #53230B",
"d  c #5A290A",
"f  c #48231B",
"g  c #592512",
"h  c #533717",
"j  c #642D02",
"k  c #652D06",
"l  c #6A3201",
"z  c #693309",
"x  c #753A03",
"c  c #7C3E03",
"v  c #743A0A",
"b  c #632916",
"n  c #6A3413",
"m  c #763B17",
"M  c #762B14",
"N  c #4E302B",
"B  c #723323",
"V  c #08573B",
"C  c #124D37",
"Z  c #28473C",
"A  c #39413D",
"S  c #36403B",
"D  c #354E2D",
"F  c #30663D",
"G  c #56471C",
"H  c #7D4004",
"J  c #7E430C",
"K  c #7B4518",
"L  c #6D4E1B",
"P  c #50482F",
"I  c #7B4723",
"U  c #6B4B38",
"Y  c #54763F",
"T  c #0D5C42",
"R  c #3D4543",
"E  c #3B4A45",
"W  c #2D5947",
"Q  c #086648",
"!  c #15684C",
"~  c #097956",
"^  c #137C5A",
"/  c #157857",
"(  c #0E6F50",
")  c #2D6E54",
"_  c #3C7666",
"`  c #424B46",
"'  c #464D49",
"]  c #4B534B",
"[  c #495551",
"{  c #535853",
"}  c #71504D",
"|  c #50766F",
" . c #756F73",
".. c #615B5C",
"X. c #883B11",
"o. c #923632",
"O. c #A23E34",
"+. c #834402",
"@. c #8B4A03",
"#. c #874709",
"$. c #934E06",
"%. c #955103",
"&. c #9C5402",
"*. c #99540B",
"=. c #824612",
"-. c #854914",
";. c #8B4C13",
":. c #844A1A",
">. c #8A4D1D",
",. c #84461C",
"<. c #8F511A",
"1. c #965418",
"2. c #9C4915",
"3. c #A25601",
"4. c #A55A07",
"5. c #A35D17",
"6. c #AC6319",
"7. c #B5671B",
"8. c #AC600E",
"9. c #894B23",
"0. c #8C5123",
"q. c #995826",
"w. c #924F25",
"e. c #A25D29",
"r. c #B55131",
"t. c #A7632A",
"y. c #B56927",
"u. c #AC6633",
"i. c #B56B33",
"p. c #BD743A",
"a. c #BE702C",
"s. c #C35C3E",
"d. c #C7793B",
"f. c #C56D37",
"g. c #A43C43",
"h. c #B94850",
"j. c #8F7B79",
"k. c #996348",
"l. c #C44C58",
"z. c #C9565B",
"x. c #C7514C",
"c. c #C95863",
"v. c #D25C66",
"b. c #D2626E",
"n. c #D26470",
"m. c #D07544",
"M. c #0B845E",
"N. c #07825E",
"B. c #13825E",
"V. c #1C865E",
"C. c #2E8A59",
"Z. c #0C8661",
"A. c #068D65",
"S. c #0B8B65",
"D. c #078B65",
"F. c #148461",
"G. c #178863",
"H. c #06946B",
"J. c #0A936B",
"K. c #07996E",
"L. c #0A996E",
"P. c #089067",
"I. c #17956D",
"U. c #079B70",
"Y. c #0A9D71",
"T. c #149C72",
"R. c #1A9B73",
"E. c #25966B",
"W. c #229B74",
"Q. c #2E8F69",
"!. c #0BA175",
"~. c #12A276",
"^. c #1AA47A",
"/. c #24A27C",
"(. c #31A47D",
"). c #4E9052",
"_. c #469872",
"`. c #53A773",
"'. c #6FAE72",
"]. c #639D5A",
"[. c #D3813E",
"{. c #B5844F",
"}. c #93A651",
"|. c #AAB258",
" X c #ADAF50",
".X c #95807E",
"XX c #84BA79",
"oX c #93B365",
"OX c #A9BC67",
"+X c #D88645",
"@X c #CF8243",
"#X c #E2904D",
"$X c #C3B34A",
"%X c #393DB7",
"&X c #3F41B9",
"*X c #574891",
"=X c #4445BC",
"-X c #4547BB",
";X c #514DB1",
":X c #4E50C3",
">X c #6B6CC8",
",X c #897487",
"<X c #29A984",
"1X c #33AB88",
"2X c #33B18C",
"3X c #33B38D",
"4X c #748D91",
"5X c #4BBB9B",
"6X c #4CAE8D",
"7X c #70AB92",
"8X c #6F8C92",
"9X c #50C09F",
"0X c #50C0A0",
"qX c #4FC1A0",
"wX c #75C08B",
"eX c #7E82CE",
"rX c #8F8E98",
"tX c #A89794",
"yX c #8899A5",
"uX c #939EA9",
"iX c #98AAB8",
"pX c #92ACB3",
"aX c #ABAFB8",
"sX c #84BF82",
"dX c #C5BBBA",
"fX c #ABBCCB",
"gX c #A5B8C5",
"hX c #ABADDE",
"jX c #B5B7E5",
"kX c #9DA7CE",
"lX c #B7C8D7",
"zX c #B1C3CE",
"xX c #BFC7E4",
"cX c #CECDCF",
"vX c #E2DDDB",
"bX c #C3D5E4",
"nX c #CCDCEA",
"mX c #D0D4EC",
"MX c #D9E6F3",
"NX c #DBEBF4",
"BX c #E4EDF7",
"VX c #E4F3F9",
"CX c #F7F8FA",
"ZX c #ECEAEA",
"AX c #EEE5DA",
"SX c None",
/* pixels */
"SXSXSXSXSXSXSXSXSXSXSXSXSXSXSXSXSXSXSXSXSXSXSXSXSXSXSXSXSXSXSXSXSXSXSXSXSXSXSXSXSXSXSXSXSXSXSXSXSXSXSXSXSXSXSXSXSXSXSXSXSXSXSXSXSXSXSXSXSXSX",
"SXSXSXSXSXSXSXSXSXSXSXSXSXSXSXSXSXSXSXSXSXSXSXSXSXSXSXSXSXSXSXSXSXSXSXSXSXSXu u 8 9 u u SXSXSXSXSXSXSXSXSXSXSXSXSXSXSXSXSXSXSXSXSXSXSXSXSXSX",
"SXSXSXSXSXSXSXSXSXSXSXSXSXSXSXSXSXSXSXSXSXSXSXSXSXSXSXSXSXSXSXSXSXSXSXd w 9 8 8 0 r 9 8 8 8 9 SXSXSXSXSXSXSXSXSXSXSXSXSXSXSXSXSXSXSXSXSXSXSX",
"SXSXSXSXSXSXSXSXSXSXSXSXSXSXSXSXSXSXSXSXSXSXSXSXSXSXSXSXSXSXSXSXSXSXm j p b B O.g.g.g.o.B b 9 9 u SXSXSXSXSXSXSXSXSXSXSXSXSXSXSXSXSXSXSXSXSX",
"SXSXSXSXSXSXSXSXSXSXSXSXSXSXSXSXSXSXSXSXSXSXSXSXSXSXSXSXSXSXSXSXSXSX#.c X.g.l.c.z.c.c.z.v.g.X.i y y SXSXSXSXSXSXSXSXSXSXSXSXSXSXSXSXSXSXSXSX",
"SXSXSXSXSXSXSXSXSXSXSXw y y s SXSXSXSXSXSXSXSXSXSXSXSXSXSXSXSXSXSXSX$.%.2.h.c.v.b.b.b.b.v.l.g.X.a p h SXSXSXSXSXSXSXSXSXSXSXSXSXSXSXSXSXSXSX",
"SXSXSXSXSXSXSXSXu 9 8 8 9 y p j x K SXSXSXSXSXSXSXSXSXSXSXSXSXSXSXSXa.7.7.7.r.z.v.v.v.z.c.l.l.o.x l a SXSXSXSXSXSXSXSXSXSXSXSXSXSXSXSXSXSXSX",
"SXSXSXSXSXSXu 9 9 g B o.O.O.o.#.@.#.>.SXSXSXSXSXSX#X#X#X+X#X+X+X+X+X+X+X+X+X+X[.d.f.x.s.x.r.2.%.@.x z SXSXSXSXSXSXSXSXSXSXSXSXSXSXSXSXSXSXSX",
"SXSXSXSXSXs 9 p o.g.l.c.c.z.l.r.&.@.1.SX#X#X#X+X@Xf.u.e.w.9.9.m m m X.I 9.w.e.u.f.d.@Xd.f.y.4.$.H v SXSXSXSXSXSXSXSXSXSXSXSXSXSXSXSXSXSXSXSX",
"SXSXSXSXd p k g.l.c.v.b.b.c.x.r.7.d.+X+Xd.i.w.m g r r 7 7 $ $ $ % $ $ % $ $ q q w b ,.q.i.p.p.t.9.SXSXSXSXSXSXSXSXSXSXSXSXSXSXSXSXSXSXSXSXSX",
"SXSXSXSXz j o.l.c.v.n.b.v.z.f.d.+Xd.e.m g 7 % $ $ $ $ $ $ $ $ $ # $ # $ $ $ $ $ # # $ & g K e.p.d.SXSXSXSXSXSXSXSXSXSXSXSXSXSXSXSXSXSXSXSXSX",
"SXSXSXK c x O.l.c.c.v.z.d.[.m.i.o.r q $ $ % $ $ $ $ $ $ $ $ $ $ $ $ # # # # $ $ & & $ $ O # q K u.p.p.SXSXSXSXSXSXSXSXSXSXSXSXSXSXSXSXSXSXSX",
"SXSXSX<.@.@.2.h.x.x.s.m.+Xi.B e $ $ $ $ $ $ $ $ $ $ $ @ $ $ @ @ @ $ $ @ @ 7 l X.@.+.x i $ # # # s q.i.p.SXSXSXSXSXSXSXSXSXSXSXSXSXSXSXSXSXSX",
"SXSXSXSX$.$.%.&.2.7.d.p.X.0 7 7 $ $ $ $ $ $ $ $ # $ $ $ $ @ $ $ $ @ $ @ 7 @.3.3.&.&.&.$.+.9 o o O q >.t.p.SXSXSXSXSXSXSXSXSXSXSXSXSXSXSXSXSX",
"SXSXSXSXSX$.@.@.4.d.u.g $ 7 $ $ $ $ $ $ @ $ @ $ @ $ @ $ $ $ # # $ @ $ @ m y.&.2.&.*.*.&.%.@.9 o o o & >.t.i.SXSXSXSXSXSXSXSXSXSXSXSXSXSXSXSX",
"SXSXSXSXSXSXSX>.m.e.r q $ 7 w w r 7 @ $ $ $ $ $ $ $ $ @ @ $ # $ @ $ @ $ tXAXrX} 9.9.1.$.$.%.X.# X O O u <.t.u.SXSXSXSXSXSXSXSXSXSXSXSXSXSXSX",
"SXSXSXSXSXSXSX+Xu.r * $ w @.3.3.3.@.w $ $ $ $ @ $ @ $ # @ $ $ @ $ @ $ @ .XCXjX-X&X;X*X*X}  .p.h o o @ O k 1.t.u.SXSXSXSXSXSXSXSXSXSXSXSXSXSX",
"SXSXSXSXSXSXSXd.b 7 % k 3.3.3.3.3.4.@X} $ @ @ $ @ $ @ $ # # # # @ $ @ @ N ZXBX>X%X&X&X&X%XeXCXtXo @ # @ = =.1.t.u.SXSXSXSXSXSXSXSXSXSXSXSXSX",
"SXSXSXSXSXSX+Xq.7 % 8 $.3.3.3.4.q.,XCXcXq @ $ $ $ @ $ @ @ @ $ # @ $ $ @ 7 j.CXmX>X=X&X&X:XjXCXj.o o o o o a 1.1.t.u.SXSXSXSXSXSXSXSXSXSXSXSX",
"SXSXSXSXSXSXd.b % $ j 3.3.3.2.} ;X:XmXZXN @ $ @ $ @ @ $ @ $ @ @ @ @ @ @ @ % ,XZXZXxXhXjXBXCXcXN o @ @ O O u #.1.q.t.SXSXSXSXSXSXSXSXSXSXSXSX",
"SXSXSXSXSX+Xi.e * $ l 3.1.o.*X=X=X:XmXCX} # # # @ $ @ @ @ @ @ $ @ @ @ @ @ @ @ N tXcXvXvXdXj.f o @ @ # o O 8 #.;.<.q.u.SXSXSXSXSXSXSXSXSXSXSX",
"SXSXSXSXSX@Xq.e $ # k {.,X=X=X:X=X:XmXZXB + # # $ @ # 7 w j l l l j w 7 $ @ @ @ @ e f e = o O @ # o @ o O p #.#.;.0.t.SXSXSXSXSXSXSXSXSXSXSX",
"SXSXSXSXSXm.q.* $ $ N AXmX:X:X=X:XkXCXdXe @ @ @ $ w c $.4.8.5.7.7.7.4.5.@.v w 7 @ @ o o o # o O o o o o 8 H @.#.;.<.t.SXSXSXSXSXSXSXSXSXSXSX",
"SXSXSXSXSXd.w.* $ $ % ,XCXMXjXjXmXCXcXU @ # @ 0 X.4.7.f.f.u.u.u.u.i.i.y.y.5.5.$.x d 7 $ # @ o O O # 8 a H +.H J -.<.e.SXSXSXSXSXSXSXSXSXSXSX",
"SXSXSXSXSX@Xq.& & # # =  .dXvXvXcXtXN $ @ $ j *.y.f.i.w.g q q e 0 B I 0.q.q.5.1.*.%.@.H x l a a l x H @.+.H J #.-.<.e.SXSXSXSXSXSXSXSXSXSXSX",
"SXSXSXSXSXp.t.8 # # # # @ = 0 e e @ @ @ 8 H 8.a.f.t.B - o o X X X + q g v =.;.*.*.%.%.%.%.%.%.%.@.@.+.H H J #.=.>.1.t.SXSXSXSXSXSXSXSXSXSXSX",
"SXSXSXSXSXd.y.n # # # # # @ # @ @ $ @ r @.6.y.i.e.B - o X + X       + = s z v #.#.@.@.@.@.@.@.@.+.+.H H H #.-.;.<.q.SXSXSXSXSXSXSXSXSXSXSXSX",
"SXSXSXSXSXp.y.5.0 @ @ # # # @ @ @ $ j &.8.6.y.t.9.b % + X X   .     X # 8 d z x H +.H +.H +.H H H H J J J -.>.0.q.SXSXSXSXSXSXSXSXSXSXSXSXSX",
"SXSXSXSXSXp.y.t.1.p & $ # # # 7 j X.3.4.8.6.6.q.9.g = O X X         + # 8 i z v c H H H H H H c H J J -.:.0.0.q.SXSXSXSXSXSXSXSXSXSXSXSXSXSX",
"SXSXSXSXSXp.i.y.6.*.#.H x c H $.&.3.3.4.8.5.5.5.=.n 0 $ + X X   X O O & 9 k l x H H J c H H H J J -.-.>.0.q.SXSXSXSXSXSXSXSXSXSXSXSXSXSXSXSX",
"SXSXSXSXSXSXp.t.t.5.*.4.&.&.&.&.&.&.&.4.*.*.5.1.-.v s 8 = O O + O = q s k z v J H J J H J K :.:.:.:.0.0.SXSXSXSXSXSXSXSXSXSXSXSXSXSXSXSXSXSX",
"SXSXSXSXSXSXSXu.t.1.1.*.*.$.%.%.&.&.&.*.*.*.*.;.;.X.z d s 9 0 9 u a z z v m =.=.=.:.-.:.:.K :.K 9.SXSXSXSXSXSXSXSXSXSXSXSXSXSXSXSXSXSXSXSXSX",
"SXSXSXSXSXSXSXSXt.t.q.1.1.1.$.*.$.%.$.$.$.$.$.;.;.=.=.v v v v m m J K =.:.:.>.>.;.K L K K SXSXSXSXSXSXSXSXSXSXSXSXSXSXSXSXSXSXSXSXSXSXSXSXSX",
"SXSXSXSXSXSXSXSXSXq.q.q.<.0.<.>.<.;.-.;.:.-.-.;.-.-.-.-.:.:.:.9.:.:.:.:.:.I L U G D F  .SXSXSXSXSXSXSXSXSXSXSXSXSXSXSXSXSXSXSXSXSXSXSXSXSXSX",
"SXSXSXSXSXSXSXSXSXSXSXSXq.0.0.<.:.:.<.>.K >.<.-.:.:.=.K I I X.m m n U U P : C C V V ) rXrXpXaXSXSXSXSXSXSXSXSXSXSXSXSXSXSXSXSXSXSXSXSXSXSXSX",
"SXSXSXSXSXSXSXSXSXSXSXSXSXSXSXSXSXSXSXL 0.U } } P P D : : ]  .r r g ..{ D V V V V Q ! *X4XuXuXiXfXlXSXSXSXSXSXSXSXnXj.f % # $ # SXSXSXSXSXSX",
"SXSXSXSXSXSXSXSXSXSXSXSXSXSXSXSXSXSXSXSXyXrX4X| ) V C C D W U t t g { D V Q Q Q Q Q Q _.yXyXiXiXgXfXlXbXSXSXSXBXVXgX= @ # # # @ + SXSXSXSXSX",
"SXSXSXSXSXSXSXSXSXSXSXSXSXSXSXSXSXSXaXpXuXuX8X) ! Q Q C D D t X.t h D V V Q V C C Q Q ) 8XuXiXiXgXfXfXfXlXnXNXVXVXcXf o @ @ @ + + SXSXSXSXSX",
"SXSXSXSXSXSXSXSXSXSXSXSXSXSXSXSXSXnXlXzXaX7XQ.G.G.G.F.B.) Y G X.P F Q ( Q Q V ; C V V Q _.yXiXgXgXfXfXgXfXnXBXNXVXVXaXf o @ X X - SXSXSXSXSX",
"SXSXSXSXSXSXSXSXSXSXSXSXSXSXSXMXMXnXnXlXpX(.W.T.I.J.I.J.M.) ).) / M.N.D.D./ Q 6 T ! ! / ~ *XyXkXgXfXfXkXfXnXVXVXVXVXVXvX*X' '  .SXSXSXSXSXSX",
"SXSXSXSXSXSXSXSXSXSXSXSXSXSXMXnXbXbXlXiX6XW.R.R.T.L.I.L.L.J.A.A.P.P.L.P.K.L.P./ M.M.M.M.~ ( | 4XiXfXfXgXlXnXNXVXVXNXNXnXnXnXbXSXSXSXSXSXSXSX",
"SXSXSXSXSXSXSXSXSXSXSXSXBXNXnXbXcXzXiX6X/.^.R.~.T.Y.L.L.L.L.K.K.J.L.L.K.K.K.L.L.P.A.M.M.Z.~ ( _ 8XiXfXlXxXnXMXNXNXMXnXnXbXSXSXSXSXSXSXSXSXSX",
"SXSXSXSXSXSXSXSXSXSXSXVXBXmXnXbXlXgX7X(.<X~.I.T.!.^.^.Y.T.K.K.L.Y.!.K.K.K.K.L.L.H.P.P.P.S.Z.Z.( ) 8XuXfXbXbXnXbXxXnXxXSXSXSXSXSXSXSXSXSXSXSX",
"SXSXSXSXSXSXSXSXSXSXaX ...j.tXzXgX7X1XW.1X].}.E.<X2X2X~.K.I.J.U.Y.^./.Y.Y.Y.P.P.K.H.P.P.J.S.S.Z.~ Q _ 6XgXzXlXlXlXSXSXSXSXSXSXSXSXSXSXSXSXSX",
"SXSXSXSXSXSXSXSXSXaXN $ # o + N rX_.E.E.`.OX|.`.<X!.<X1XW.6X<XI./.3X/.2X!.P.C.C.P.H.^.R.P.P.S.S.Z.^ ( / SXSXSXSXSXSXSXSXSXSXSXSXSXSXSXSXSXSX",
"SXSXSXSXSXSXSXSXSX,X* $ # # X   > ) R._.OXsXsXoXI.!.L.3X0X5X5X3X^.!.Y.^.<X]. X XC././.K.H.P.S.S.Z.^ / / [ d h s 0 0 0 0 u f SXSXSXSXSXSXSXSX",
"SXSXSXSXSXSXSXSXSXSX$ @ # @ o X . C I._.oXwXOX XQ.J.1X0X0X0X5X5XT.K.U.E.'.XX X X'._.A.P.J.J.P.S.F.F.^ ^ ) z d p p y 9 9 8 8 0 f SXSXSXSXSXSX",
"SXSXSXSXSXSXSXSXSXSX# o o o o X . C W.(.XXOXXX`.T.L.<X0X0X0X9X5X(.P.S.}.$XoX7XwXOX}.C.A.H.J.P.S.S.G.^ G._ L z l a a p i 9 9 8 7 e SXSXSXSXSX",
"SXSXSXSXSXSXSXSXSXSXSXO + +   . 6 / 1X1X].|.`.<X!.!.<X5XqXqX5X<XJ.Y.K.).|.XX'.'.oX}.Q.D.H.J.S.S.S.F.F.F.) L v l l l a a a y y 8 7 q SXSXSXSX",
"SXSXSXSXSXSXSXSXSXSXSXSXSXSXSXSXSXE.<X^.E.Q.~.3X<X3X3X~.9X6X(.2X!.Y.!.^.6XoX$X X`.E.D.H.H.J.D.S.F.F.F.F.Q.G l l l l l j a a i 8 7 & SXSXSXSX",
"SXSXSXSXSXSXSXSXSXSXSXSXSXSXSXSXSX/./.^.^.!.~.^.3X<X!.K.R.L.!.^.3X<X<X<XJ.).}.].I.1XR.H.H.D.S.S.F.F.F.F.Q.G l l l l l j j a p y 8 7 q SXSXSX",
"SXSXSXSXSXSXSXSXSXSXSXSXSXSXSXSXSXW.^.^.^.^.~.~.~.!.!.!.K.!.!.U.<X2X<XY.U.S.G.H.J.J.<XY.H.J.S.S.S.F.F.F.G.G l j l l l l l a a i 9 q SXSXSXSX",
"SXSXSXSXSXSXSXSXSXSXSXSXSXSXSXSXSXE.I.R.R.^.~.~.!.!.!.Y.!.!.!.!.U.!.U.U.U.U.H.U.J.H.U.J.J.S.S.Z.F.^ F.^ ^ G l l l l l l j j a i 0 0 SXSXSXSX",
"SXSXSXSXSXSXSXSXSXSXSXSXSXSXSXSXSXI.E.R.F.I.~.T.~.!.!.Y.!.Y.U.K.U.!.U.U.U.H.U.H.H.H.J.H.D.J.S.Z.^ ^ ^ ( / G l l l l l l l a p i 0 SXSXSXSXSX",
"SXSXSXSXSXSXSXSXSXSXSXSXSXSXSXSXSXE.G.T.V.I.R.S.S.L.L.P.N.P.K.K.A.A.K.U.H.H.D.H.H.D.~ D.D.~ ( ^ ^ ( ^ ~ F z l l l l l j j k d s SXSXSXSXSXSX",
"SXSXSXSXSXSXSXSXSXSXSXSXSXSXSXSXSXSX| Q.G.G.R.G.V.T.T.M.N.P.K.H.~ ~ A.H.D.~ ~ D.D.D.~ ~ D.^ ( ~ ^ ( ^ W h l l j l l l k d d g SXSXSXSXSXSXSX",
"SXSXSXSXSXSXSXSXSXSXSXSXSXSXSXSXSXSXSX..) ) G./ / L.T.F.~ P.H.P.N.~ A.H.P.~ ~ N.J.~ ( ~ S./ Q / ! W ) SXSXm v n n n n SXSXSXSXSXSXSXSXSXSXSX",
"SXSXSXSXSXSXSXSXSXSXSXSXSXSXSXSXSXSXSXSX..{ E E E W ) ! ! ^ Z.D.~ Q N.P.A.( ~ N.~ ( T ( ! W C E R ' SXSXSXSXSXSXSXSXSXSXSXSXSXSXSXSXSXSXSXSX",
"SXSXSXSXSXSXSXSXSXSXSXSXSXSXSXSXSXSXSXSXSX{ [ ' R S 3 3 3 S R Z Z Z Z Z Z Z Z C W , 1 1 < 1 2 R [ SXSXSXSXSXSXSXSXSXSXSXSXSXSXSXSXSXSXSXSXSX",
"SXSXSXSXSXSXSXSXSXSXSXSXSXSXSXSXSXSXSXSXSXSXSX[ ' E R A R 3 3 3 1 3 3 3 2 2 2 2 < < 1 < < S E [ SXSXSXSXSXSXSXSXSXSXSXSXSXSXSXSXSXSXSXSXSXSX",
"SXSXSXSXSXSXSXSXSXSXSXSXSXSXSXSXSXSXSXSXSXSXSX] ' ` R R R R R A 3 3 3 3 3 3 2 2 2 2 3 A R ' [ SXSXSXSXSXSXSXSXSXSXSXSXSXSXSXSXSXSXSXSXSXSXSX",
"SXSXSXSXSXSXSXSXSXSXSXSXSXSXSXSXSXSXSXSXSXSX{ ' ] ` A 2 < < < A ' ` E ` E A A S S S A A S 3 3 SXSXSXSXSXSXSXSXSXSXSXSXSXSXSXSXSXSXSXSXSXSXSX",
"SXSXSXSXSXSXSXSXSXSXSXSXSXSXSXSXSXSXSXSXSXSX{ ] ] ` E S , ; ; SXSXSXSXSXSX< > > , < < < 1 1 R SXSXSXSXSXSXSXSXSXSXSXSXSXSXSXSXSXSXSXSXSXSXSX",
"SXSXSXSXSXSXSXSXSXSXSXSXSXSXSXSXSXSXSXSXSXSX] ] ' ` ` S < > > SXSXSXSXSXSX< > , < < < 1 < 3 SXSXSXSXSXSXSXSXSXSXSXSXSXSXSXSXSXSXSXSXSXSXSXSX",
"SXSXSXSXSXSXSXSXSXSXSXSXSXSXSXSXSXSXSXSXSX{ { ] ' ' ` 3 , > < SXSXSXSXSXSX2 , 1 1 1 1 1 1 3 SXSXSXSXSXSXSXSXSXSXSXSXSXSXSXSXSXSXSXSXSXSXSXSX",
"SXSXSXSXSXSXSXSXSXSXSXSXSXSXSXSXSXSXSXSXSXP P ' ' P A 3 , > SXSXSXSXSXSXSXA S E R S S S 2 3 SXSXSXSXSXSXSXSXSXSXSXSXSXSXSXSXSXSXSXSXSXSXSXSX",
"SXSXSXSXSXSXSXSXSXSXSXSXSXSXSXSXSXSXSXSXSXw w i g h u - - SXSXSXSXSXSXSXSXN 5 N P A S 4 4 SXSXSXSXSXSXSXSXSXSXSXSXSXSXSXSXSXSXSXSXSXSXSXSXSX",
"SXSXSXSXSXSXSXSXSXSXSXSXSXSXSXSXSXSXSXSXSXSX% % $ $ O + SXSXSXSXSXSXSXSXSXSX& q - = = = SXSXSXSXSXSXSXSXSXSXSXSXSXSXSXSXSXSXSXSXSXSXSXSXSXSX",
"SXSXSXSXSXSXSXSXSXSXSXSXSXSXSXSXSXSXSXSXSXSXSXSXSXSXSXSXSXSXSXSXSXSXSXSXSXSXSX$ O # O SXSXSXSXSXSXSXSXSXSXSXSXSXSXSXSXSXSXSXSXSXSXSXSXSXSXSX",
"SXSXSXSXSXSXSXSXSXSXSXSXSXSXSXSXSXSXSXSXSXSXSXSXSXSXSXSXSXSXSXSXSXSXSXSXSXSXSXSXSXSXSXSXSXSXSXSXSXSXSXSXSXSXSXSXSXSXSXSXSXSXSXSXSXSXSXSXSXSX"
};
